# High-Resolution Beveled Couch
# Unit scale: Meters

# --- VERTICES (Vertices 1 to 24: Main Seat Cushion) ---
v -1.80 0.10  0.90
v  1.80 0.10  0.90
v  1.80 0.40  0.90
v -1.80 0.40  0.90
v -1.90 0.15  0.80
v  1.90 0.15  0.80
v  1.90 0.35  0.80
v -1.90 0.35  0.80
v -1.90 0.15 -0.80
v  1.90 0.15 -0.80
v  1.90 0.35 -0.80
v -1.90 0.35 -0.80
v -1.80 0.10 -0.90
v  1.80 0.10 -0.90
v  1.80 0.40 -0.90
v -1.80 0.40 -0.90
v -1.70 0.05  0.80
v  1.70 0.05  0.80
v  1.70 0.45  0.80
v -1.70 0.45  0.80
v -1.70 0.05 -0.80
v  1.70 0.05 -0.80
v  1.70 0.45 -0.80
v -1.70 0.45 -0.80

# --- VERTICES (Vertices 25 to 48: Rounded Backrest) ---
v -1.80 0.50 -0.85
v  1.80 0.50 -0.85
v  1.80 1.20 -0.85
v -1.80 1.20 -0.85
v -1.90 0.55 -0.75
v  1.90 0.55 -0.75
v  1.90 1.15 -0.75
v -1.90 1.15 -0.75
v -1.90 0.55 -0.55
v  1.90 0.55 -0.55
v  1.90 1.15 -0.55
v -1.90 1.15 -0.55
v -1.80 0.50 -0.45
v  1.80 0.50 -0.45
v  1.80 1.20 -0.45
v -1.80 1.20 -0.45
v -1.70 1.25 -0.75
v  1.70 1.25 -0.75
v  1.70 1.25 -0.55
v -1.70 1.25 -0.55
v -1.70 0.45 -0.75
v  1.70 0.45 -0.75
v  1.70 0.45 -0.55
v -1.70 0.45 -0.55

# --- VERTICES (Vertices 49 to 64: Left Armrest) ---
v -1.95 0.40  0.85
v -1.65 0.40  0.85
v -1.65 0.75  0.85
v -1.95 0.75  0.85
v -2.00 0.45  0.75
v -1.60 0.45  0.75
v -1.60 0.70  0.75
v -2.00 0.70  0.75
v -2.00 0.45 -0.45
v -1.60 0.45 -0.45
v -1.60 0.70 -0.45
v -2.00 0.70 -0.45
v -1.95 0.40 -0.55
v -1.65 0.40 -0.55
v -1.65 0.75 -0.55
v -1.95 0.75 -0.55

# --- VERTICES (Vertices 65 to 80: Right Armrest) ---
v  1.65 0.40  0.85
v  1.95 0.40  0.85
v  1.95 0.75  0.85
v  1.65 0.75  0.85
v  1.60 0.45  0.75
v  2.00 0.45  0.75
v  2.00 0.70  0.75
v  1.60 0.70  0.75
v  1.60 0.45 -0.45
v  2.00 0.45 -0.45
v  2.00 0.70 -0.45
v  1.60 0.70 -0.45
v  1.65 0.40 -0.55
v  1.95 0.40 -0.55
v  1.95 0.75 -0.55
v  1.65 0.75 -0.55

# --- FACES: Main Seat Cushion ---
f 1 2 3 4
f 5 6 7 8
f 9 10 11 12
f 13 14 15 16
f 17 18 19 20
f 21 22 23 24
f 1 5 8 4
f 2 6 7 3
f 13 9 12 16
f 14 10 11 15
f 5 9 10 6
f 8 12 11 7
f 17 1 2 18
f 20 4 3 19
f 21 13 14 22
f 24 16 15 23

# --- FACES: Backrest ---
f 25 26 27 28
f 29 30 31 32
f 33 34 35 36
f 37 38 39 40
f 41 42 43 44
f 45 46 47 48
f 25 29 32 28
f 26 30 31 27
f 37 27 28 40
f 38 27 26 39
f 41 25 26 42
f 44 28 25 43
f 29 33 34 30
f 32 36 35 31

# --- FACES: Left Armrest ---
f 49 50 51 52
f 53 54 55 56
f 57 58 59 60
f 61 62 63 64
f 49 53 56 52
f 50 54 55 51
f 53 57 58 54
f 56 60 59 55
f 57 61 62 58
f 60 64 63 59

# --- FACES: Right Armrest ---
f 65 66 67 68
f 69 70 71 72
f 73 74 75 76
f 77 78 79 80
f 65 69 72 68
f 66 70 71 67
f 69 73 74 70
f 72 76 75 71
f 73 77 78 74
f 76 80 79 75