# Low-poly dragon
o Dragon
v -3.6000 0.2000 0.0800
v -3.6165 0.2440 0.0647
v -3.6267 0.2712 0.0247
v -3.6267 0.2712 -0.0247
v -3.6165 0.2440 -0.0647
v -3.6000 0.2000 -0.0800
v -3.5835 0.1560 -0.0647
v -3.5733 0.1288 -0.0247
v -3.5733 0.1288 0.0247
v -3.5835 0.1560 0.0647
v -2.8000 0.5000 0.3500
v -2.8601 0.6967 0.2832
v -2.8973 0.8183 0.1082
v -2.8973 0.8183 -0.1082
v -2.8601 0.6967 -0.2832
v -2.8000 0.5000 -0.3500
v -2.7399 0.3033 -0.2832
v -2.7027 0.1817 -0.1082
v -2.7027 0.1817 0.1082
v -2.7399 0.3033 0.2832
v -1.8000 0.7500 0.5500
v -1.8634 1.0670 0.4450
v -1.9026 1.2629 0.1700
v -1.9026 1.2629 -0.1700
v -1.8634 1.0670 -0.4450
v -1.8000 0.7500 -0.5500
v -1.7366 0.4330 -0.4450
v -1.6974 0.2371 -0.1700
v -1.6974 0.2371 0.1700
v -1.7366 0.4330 0.4450
v -0.8000 0.9000 0.6200
v -0.8363 1.2626 0.5016
v -0.8587 1.4867 0.1916
v -0.8587 1.4867 -0.1916
v -0.8363 1.2626 -0.5016
v -0.8000 0.9000 -0.6200
v -0.7637 0.5374 -0.5016
v -0.7413 0.3133 -0.1916
v -0.7413 0.3133 0.1916
v -0.7637 0.5374 0.5016
v 0.2000 0.9500 0.6000
v 0.2088 1.3026 0.4854
v 0.2143 1.5205 0.1854
v 0.2143 1.5205 -0.1854
v 0.2088 1.3026 -0.4854
v 0.2000 0.9500 -0.6000
v 0.1912 0.5974 -0.4854
v 0.1857 0.3795 -0.1854
v 0.1857 0.3795 0.1854
v 0.1912 0.5974 0.4854
v 1.2000 0.8500 0.5000
v 1.2428 1.1408 0.4045
v 1.2692 1.3205 0.1545
v 1.2692 1.3205 -0.1545
v 1.2428 1.1408 -0.4045
v 1.2000 0.8500 -0.5000
v 1.1572 0.5592 -0.4045
v 1.1308 0.3795 -0.1545
v 1.1308 0.3795 0.1545
v 1.1572 0.5592 0.4045
v 1.9000 0.7000 0.3800
v 1.9468 0.9184 0.3074
v 1.9757 1.0534 0.1174
v 1.9757 1.0534 -0.1174
v 1.9468 0.9184 -0.3074
v 1.9000 0.7000 -0.3800
v 1.8532 0.4816 -0.3074
v 1.8243 0.3466 -0.1174
v 1.8243 0.3466 0.1174
v 1.8532 0.4816 0.3074
v -3.9000 0.1500 0.0000
v 1.9000 0.7000 0.3800
v 1.7605 0.8744 0.3074
v 1.6742 0.9822 0.1174
v 1.6742 0.9822 -0.1174
v 1.7605 0.8744 -0.3074
v 1.9000 0.7000 -0.3800
v 2.0395 0.5256 -0.3074
v 2.1258 0.4178 -0.1174
v 2.1258 0.4178 0.1174
v 2.0395 0.5256 0.3074
v 2.4000 1.1000 0.3200
v 2.2594 1.2250 0.2589
v 2.1725 1.3022 0.0989
v 2.1725 1.3022 -0.0989
v 2.2594 1.2250 -0.2589
v 2.4000 1.1000 -0.3200
v 2.5406 0.9750 -0.2589
v 2.6275 0.8978 -0.0989
v 2.6275 0.8978 0.0989
v 2.5406 0.9750 0.2589
v 2.7000 1.6000 0.2700
v 2.5553 1.6651 0.2184
v 2.4658 1.7054 0.0834
v 2.4658 1.7054 -0.0834
v 2.5553 1.6651 -0.2184
v 2.7000 1.6000 -0.2700
v 2.8447 1.5349 -0.2184
v 2.9342 1.4946 -0.0834
v 2.9342 1.4946 0.0834
v 2.8447 1.5349 0.2184
v 2.8500 2.1000 -0.2400
v 2.9880 2.0709 -0.1942
v 3.0734 2.0530 -0.0742
v 3.0734 2.0530 0.0742
v 2.9880 2.0709 0.1942
v 2.8500 2.1000 0.2400
v 2.7120 2.1291 0.1942
v 2.6266 2.1470 0.0742
v 2.6266 2.1470 -0.0742
v 2.7120 2.1291 -0.1942
v 2.9000 2.5500 -0.2200
v 3.0285 2.5357 -0.1780
v 3.1080 2.5269 -0.0680
v 3.1080 2.5269 0.0680
v 3.0285 2.5357 0.1780
v 2.9000 2.5500 0.2200
v 2.7715 2.5643 0.1780
v 2.6920 2.5731 0.0680
v 2.6920 2.5731 -0.0680
v 2.7715 2.5643 -0.1780
v 2.9000 2.5500 0.2600
v 2.7529 2.6603 0.1838
v 2.6920 2.7060 0.0000
v 2.7529 2.6603 -0.1838
v 2.9000 2.5500 -0.2600
v 3.0471 2.4397 -0.1838
v 3.1080 2.3940 -0.0000
v 3.0471 2.4397 0.1838
v 3.0500 2.7500 0.3400
v 2.9166 2.9500 0.2404
v 2.8614 3.0329 0.0000
v 2.9166 2.9500 -0.2404
v 3.0500 2.7500 -0.3400
v 3.1834 2.5500 -0.2404
v 3.2386 2.4671 -0.0000
v 3.1834 2.5500 0.2404
v 3.3500 2.8500 0.3200
v 3.3359 3.0758 0.2263
v 3.3300 3.1694 0.0000
v 3.3359 3.0758 -0.2263
v 3.3500 2.8500 -0.3200
v 3.3641 2.6242 -0.2263
v 3.3700 2.5306 -0.0000
v 3.3641 2.6242 0.2263
v 3.8500 2.8000 0.2000
v 3.8710 2.9399 0.1414
v 3.8797 2.9978 0.0000
v 3.8710 2.9399 -0.1414
v 3.8500 2.8000 -0.2000
v 3.8290 2.6601 -0.1414
v 3.8203 2.6022 -0.0000
v 3.8290 2.6601 0.1414
v 4.3500 2.7000 0.0600
v 4.3583 2.7416 0.0424
v 4.3618 2.7588 0.0000
v 4.3583 2.7416 -0.0424
v 4.3500 2.7000 -0.0600
v 4.3417 2.6584 -0.0424
v 4.3382 2.6412 -0.0000
v 4.3417 2.6584 0.0424
v 3.1000 2.5500 0.1600
v 3.1172 2.6875 0.0800
v 3.1172 2.6875 -0.0800
v 3.1000 2.5500 -0.1600
v 3.0828 2.4125 -0.0800
v 3.0828 2.4125 0.0800
v 3.5000 2.5000 0.1400
v 3.5038 2.6212 0.0700
v 3.5038 2.6212 -0.0700
v 3.5000 2.5000 -0.1400
v 3.4962 2.3788 -0.0700
v 3.4962 2.3788 0.0700
v 4.0500 2.5200 0.0800
v 4.0431 2.5889 0.0400
v 4.0431 2.5889 -0.0400
v 4.0500 2.5200 -0.0800
v 4.0569 2.4511 -0.0400
v 4.0569 2.4511 0.0400
v 4.3000 2.5800 0.0400
v 4.2919 2.6137 0.0200
v 4.2919 2.6137 -0.0200
v 4.3000 2.5800 -0.0400
v 4.3081 2.5463 -0.0200
v 4.3081 2.5463 0.0200
v 2.9500 2.8379 -0.2190
v 3.0089 2.8297 -0.1820
v 3.0089 2.8418 -0.1130
v 2.9500 2.8621 -0.0810
v 2.8911 2.8703 -0.1180
v 2.8911 2.8582 -0.1870
v 3.0500 3.2423 -0.2643
v 3.0886 3.2412 -0.2413
v 3.0886 3.2488 -0.1970
v 3.0500 3.2577 -0.1757
v 3.0114 3.2588 -0.1987
v 3.0114 3.2512 -0.2430
v 3.0500 3.5983 -0.2899
v 3.0587 3.5992 -0.2849
v 3.0587 3.6008 -0.2751
v 3.0500 3.6017 -0.2701
v 3.0413 3.6008 -0.2751
v 3.0413 3.5992 -0.2849
v 2.9500 2.8621 0.0810
v 3.0089 2.8418 0.1130
v 3.0089 2.8297 0.1820
v 2.9500 2.8379 0.2190
v 2.8911 2.8582 0.1870
v 2.8911 2.8703 0.1180
v 3.0500 3.2577 0.1757
v 3.0886 3.2488 0.1970
v 3.0886 3.2412 0.2413
v 3.0500 3.2423 0.2643
v 3.0114 3.2512 0.2430
v 3.0114 3.2588 0.1987
v 3.0500 3.6017 0.2701
v 3.0587 3.6008 0.2751
v 3.0587 3.5992 0.2849
v 3.0500 3.5983 0.2899
v 3.0413 3.5992 0.2849
v 3.0413 3.6008 0.2751
v 1.7000 0.5500 -0.1200
v 1.8972 0.5679 -0.2020
v 1.9789 0.5754 -0.4000
v 1.8972 0.5679 -0.5980
v 1.7000 0.5500 -0.6800
v 1.5028 0.5321 -0.5980
v 1.4211 0.5246 -0.4000
v 1.5028 0.5321 -0.2020
v 1.7500 0.0000 -0.1800
v 1.9048 0.0155 -0.2444
v 1.9689 0.0219 -0.4000
v 1.9048 0.0155 -0.5556
v 1.7500 0.0000 -0.6200
v 1.5952 -0.0155 -0.5556
v 1.5311 -0.0219 -0.4000
v 1.5952 -0.0155 -0.2444
v 1.8000 -0.4500 -0.2600
v 1.8984 -0.4391 -0.3010
v 1.9391 -0.4345 -0.4000
v 1.8984 -0.4391 -0.4990
v 1.8000 -0.4500 -0.5400
v 1.7016 -0.4609 -0.4990
v 1.6609 -0.4655 -0.4000
v 1.7016 -0.4609 -0.3010
v 1.8000 -0.4500 -0.2700
v 1.8151 -0.3593 -0.3081
v 1.8214 -0.3218 -0.4000
v 1.8151 -0.3593 -0.4919
v 1.8000 -0.4500 -0.5300
v 1.7849 -0.5407 -0.4919
v 1.7786 -0.5782 -0.4000
v 1.7849 -0.5407 -0.3081
v 2.1000 -0.5000 -0.3100
v 2.1105 -0.4372 -0.3364
v 2.1148 -0.4112 -0.4000
v 2.1105 -0.4372 -0.4636
v 2.1000 -0.5000 -0.4900
v 2.0895 -0.5628 -0.4636
v 2.0852 -0.5888 -0.4000
v 2.0895 -0.5628 -0.3364
v -1.6000 0.5500 -0.1700
v -1.4028 0.5679 -0.2520
v -1.3211 0.5754 -0.4500
v -1.4028 0.5679 -0.6480
v -1.6000 0.5500 -0.7300
v -1.7972 0.5321 -0.6480
v -1.8789 0.5246 -0.4500
v -1.7972 0.5321 -0.2520
v -1.5500 0.0000 -0.2300
v -1.3952 0.0155 -0.2944
v -1.3311 0.0219 -0.4500
v -1.3952 0.0155 -0.6056
v -1.5500 0.0000 -0.6700
v -1.7048 -0.0155 -0.6056
v -1.7689 -0.0219 -0.4500
v -1.7048 -0.0155 -0.2944
v -1.5000 -0.4500 -0.3100
v -1.4016 -0.4391 -0.3510
v -1.3609 -0.4345 -0.4500
v -1.4016 -0.4391 -0.5490
v -1.5000 -0.4500 -0.5900
v -1.5984 -0.4609 -0.5490
v -1.6391 -0.4655 -0.4500
v -1.5984 -0.4609 -0.3510
v -1.5000 -0.4500 -0.5800
v -1.5411 -0.3678 -0.5419
v -1.5581 -0.3337 -0.4500
v -1.5411 -0.3678 -0.3581
v -1.5000 -0.4500 -0.3200
v -1.4589 -0.5322 -0.3581
v -1.4419 -0.5663 -0.4500
v -1.4589 -0.5322 -0.5419
v -1.6000 -0.5000 -0.5400
v -1.6285 -0.4431 -0.5136
v -1.6402 -0.4195 -0.4500
v -1.6285 -0.4431 -0.3864
v -1.6000 -0.5000 -0.3600
v -1.5715 -0.5569 -0.3864
v -1.5598 -0.5805 -0.4500
v -1.5715 -0.5569 -0.5136
v 1.7000 0.5500 0.6800
v 1.8972 0.5679 0.5980
v 1.9789 0.5754 0.4000
v 1.8972 0.5679 0.2020
v 1.7000 0.5500 0.1200
v 1.5028 0.5321 0.2020
v 1.4211 0.5246 0.4000
v 1.5028 0.5321 0.5980
v 1.7500 0.0000 0.6200
v 1.9048 0.0155 0.5556
v 1.9689 0.0219 0.4000
v 1.9048 0.0155 0.2444
v 1.7500 0.0000 0.1800
v 1.5952 -0.0155 0.2444
v 1.5311 -0.0219 0.4000
v 1.5952 -0.0155 0.5556
v 1.8000 -0.4500 0.5400
v 1.8984 -0.4391 0.4990
v 1.9391 -0.4345 0.4000
v 1.8984 -0.4391 0.3010
v 1.8000 -0.4500 0.2600
v 1.7016 -0.4609 0.3010
v 1.6609 -0.4655 0.4000
v 1.7016 -0.4609 0.4990
v 1.8000 -0.4500 0.5300
v 1.8151 -0.3593 0.4919
v 1.8214 -0.3218 0.4000
v 1.8151 -0.3593 0.3081
v 1.8000 -0.4500 0.2700
v 1.7849 -0.5407 0.3081
v 1.7786 -0.5782 0.4000
v 1.7849 -0.5407 0.4919
v 2.1000 -0.5000 0.4900
v 2.1105 -0.4372 0.4636
v 2.1148 -0.4112 0.4000
v 2.1105 -0.4372 0.3364
v 2.1000 -0.5000 0.3100
v 2.0895 -0.5628 0.3364
v 2.0852 -0.5888 0.4000
v 2.0895 -0.5628 0.4636
v -1.6000 0.5500 0.7300
v -1.4028 0.5679 0.6480
v -1.3211 0.5754 0.4500
v -1.4028 0.5679 0.2520
v -1.6000 0.5500 0.1700
v -1.7972 0.5321 0.2520
v -1.8789 0.5246 0.4500
v -1.7972 0.5321 0.6480
v -1.5500 0.0000 0.6700
v -1.3952 0.0155 0.6056
v -1.3311 0.0219 0.4500
v -1.3952 0.0155 0.2944
v -1.5500 0.0000 0.2300
v -1.7048 -0.0155 0.2944
v -1.7689 -0.0219 0.4500
v -1.7048 -0.0155 0.6056
v -1.5000 -0.4500 0.5900
v -1.4016 -0.4391 0.5490
v -1.3609 -0.4345 0.4500
v -1.4016 -0.4391 0.3510
v -1.5000 -0.4500 0.3100
v -1.5984 -0.4609 0.3510
v -1.6391 -0.4655 0.4500
v -1.5984 -0.4609 0.5490
v -1.5000 -0.4500 0.3200
v -1.5411 -0.3678 0.3581
v -1.5581 -0.3337 0.4500
v -1.5411 -0.3678 0.5419
v -1.5000 -0.4500 0.5800
v -1.4589 -0.5322 0.5419
v -1.4419 -0.5663 0.4500
v -1.4589 -0.5322 0.3581
v -1.6000 -0.5000 0.3600
v -1.6285 -0.4431 0.3864
v -1.6402 -0.4195 0.4500
v -1.6285 -0.4431 0.5136
v -1.6000 -0.5000 0.5400
v -1.5715 -0.5569 0.5136
v -1.5598 -0.5805 0.4500
v -1.5715 -0.5569 0.3864
v 1.3000 1.0000 -0.3500
v 1.0000 2.3000 -1.3000
v -0.3000 3.6000 -2.6000
v 1.3000 1.0000 -0.3500
v -0.3000 3.6000 -2.6000
v 1.1000 3.9000 -3.1000
v 1.3000 1.0000 -0.3500
v 1.1000 3.9000 -3.1000
v 2.4000 3.3000 -3.0000
v 1.3000 1.0000 -0.3500
v 2.4000 3.3000 -3.0000
v 3.0000 2.1000 -2.0000
v 1.3000 1.0000 -0.3500
v 3.0000 2.1000 -2.0000
v 2.2000 1.2000 -0.6000
v 1.3858 1.0000 -0.3771
v 1.3615 1.0474 -0.3046
v 1.2757 1.0474 -0.2775
v 1.2142 1.0000 -0.3229
v 1.2385 0.9526 -0.3954
v 1.3243 0.9526 -0.4225
v 1.0477 2.3000 -1.3151
v 1.0342 2.3263 -1.2748
v 0.9865 2.3263 -1.2597
v 0.9523 2.3000 -1.2849
v 0.9658 2.2737 -1.3252
v 1.0135 2.2737 -1.3403
v 1.0499 2.3000 -1.2972
v 1.0137 2.3356 -1.2676
v 0.9585 2.3220 -1.2828
v 0.9607 2.2780 -1.3217
v 1.0172 2.2644 -1.3307
v 1.1200 3.9000 -3.0989
v 1.1055 3.9142 -3.0871
v 1.0834 3.9088 -3.0931
v 1.0843 3.8912 -3.1087
v 1.1069 3.8858 -3.1123
v 1.3000 1.0000 0.3500
v 1.0000 2.3000 1.3000
v -0.3000 3.6000 2.6000
v 1.3000 1.0000 0.3500
v -0.3000 3.6000 2.6000
v 1.1000 3.9000 3.1000
v 1.3000 1.0000 0.3500
v 1.1000 3.9000 3.1000
v 2.4000 3.3000 3.0000
v 1.3000 1.0000 0.3500
v 2.4000 3.3000 3.0000
v 3.0000 2.1000 2.0000
v 1.3000 1.0000 0.3500
v 3.0000 2.1000 2.0000
v 2.2000 1.2000 0.6000
v 1.2142 1.0000 0.3229
v 1.2757 1.0474 0.2775
v 1.3615 1.0474 0.3046
v 1.3858 1.0000 0.3771
v 1.3243 0.9526 0.4225
v 1.2385 0.9526 0.3954
v 0.9523 2.3000 1.2849
v 0.9865 2.3263 1.2597
v 1.0342 2.3263 1.2748
v 1.0477 2.3000 1.3151
v 1.0135 2.2737 1.3403
v 0.9658 2.2737 1.3252
v 0.9501 2.3000 1.3028
v 0.9828 2.3356 1.2693
v 1.0393 2.3220 1.2783
v 1.0415 2.2780 1.3172
v 0.9863 2.2644 1.3324
v 1.0800 3.9000 3.1011
v 1.0931 3.9142 3.0877
v 1.1157 3.9088 3.0913
v 1.1166 3.8912 3.1069
v 1.0945 3.8858 3.1129
v -2.7200 0.7500 -0.1000
v -2.7200 0.7500 0.1000
v -2.6000 0.9300 0.0000
v -2.7200 0.7500 0.1000
v -2.4800 0.7500 0.0000
v -2.6000 0.9300 0.0000
v -2.4800 0.7500 0.0000
v -2.7200 0.7500 -0.1000
v -2.6000 0.9300 0.0000
v -1.8200 1.0500 -0.1000
v -1.8200 1.0500 0.1000
v -1.7000 1.2700 0.0000
v -1.8200 1.0500 0.1000
v -1.5800 1.0500 0.0000
v -1.7000 1.2700 0.0000
v -1.5800 1.0500 0.0000
v -1.8200 1.0500 -0.1000
v -1.7000 1.2700 0.0000
v -0.8200 1.2500 -0.1000
v -0.8200 1.2500 0.1000
v -0.7000 1.5100 0.0000
v -0.8200 1.2500 0.1000
v -0.5800 1.2500 0.0000
v -0.7000 1.5100 0.0000
v -0.5800 1.2500 0.0000
v -0.8200 1.2500 -0.1000
v -0.7000 1.5100 0.0000
v 0.1800 1.3000 -0.1000
v 0.1800 1.3000 0.1000
v 0.3000 1.5800 0.0000
v 0.1800 1.3000 0.1000
v 0.4200 1.3000 0.0000
v 0.3000 1.5800 0.0000
v 0.4200 1.3000 0.0000
v 0.1800 1.3000 -0.1000
v 0.3000 1.5800 0.0000
v 1.0800 1.1500 -0.1000
v 1.0800 1.1500 0.1000
v 1.2000 1.3700 0.0000
v 1.0800 1.1500 0.1000
v 1.3200 1.1500 0.0000
v 1.2000 1.3700 0.0000
v 1.3200 1.1500 0.0000
v 1.0800 1.1500 -0.1000
v 1.2000 1.3700 0.0000
v 1.7800 0.9500 -0.1000
v 1.7800 0.9500 0.1000
v 1.9000 1.1100 0.0000
v 1.7800 0.9500 0.1000
v 2.0200 0.9500 0.0000
v 1.9000 1.1100 0.0000
v 2.0200 0.9500 0.0000
v 1.7800 0.9500 -0.1000
v 1.9000 1.1100 0.0000
v 2.3800 1.9000 -0.1000
v 2.3800 1.9000 0.1000
v 2.5000 2.0200 0.0000
v 2.3800 1.9000 0.1000
v 2.6200 1.9000 0.0000
v 2.5000 2.0200 0.0000
v 2.6200 1.9000 0.0000
v 2.3800 1.9000 -0.1000
v 2.5000 2.0200 0.0000
f 1 2 12 11
f 2 3 13 12
f 3 4 14 13
f 4 5 15 14
f 5 6 16 15
f 6 7 17 16
f 7 8 18 17
f 8 9 19 18
f 9 10 20 19
f 10 1 11 20
f 11 12 22 21
f 12 13 23 22
f 13 14 24 23
f 14 15 25 24
f 15 16 26 25
f 16 17 27 26
f 17 18 28 27
f 18 19 29 28
f 19 20 30 29
f 20 11 21 30
f 21 22 32 31
f 22 23 33 32
f 23 24 34 33
f 24 25 35 34
f 25 26 36 35
f 26 27 37 36
f 27 28 38 37
f 28 29 39 38
f 29 30 40 39
f 30 21 31 40
f 31 32 42 41
f 32 33 43 42
f 33 34 44 43
f 34 35 45 44
f 35 36 46 45
f 36 37 47 46
f 37 38 48 47
f 38 39 49 48
f 39 40 50 49
f 40 31 41 50
f 41 42 52 51
f 42 43 53 52
f 43 44 54 53
f 44 45 55 54
f 45 46 56 55
f 46 47 57 56
f 47 48 58 57
f 48 49 59 58
f 49 50 60 59
f 50 41 51 60
f 51 52 62 61
f 52 53 63 62
f 53 54 64 63
f 54 55 65 64
f 55 56 66 65
f 56 57 67 66
f 57 58 68 67
f 58 59 69 68
f 59 60 70 69
f 60 51 61 70
f 71 2 1
f 71 3 2
f 71 4 3
f 71 5 4
f 71 6 5
f 71 7 6
f 71 8 7
f 71 9 8
f 71 10 9
f 71 1 10
f 72 73 83 82
f 73 74 84 83
f 74 75 85 84
f 75 76 86 85
f 76 77 87 86
f 77 78 88 87
f 78 79 89 88
f 79 80 90 89
f 80 81 91 90
f 81 72 82 91
f 82 83 93 92
f 83 84 94 93
f 84 85 95 94
f 85 86 96 95
f 86 87 97 96
f 87 88 98 97
f 88 89 99 98
f 89 90 100 99
f 90 91 101 100
f 91 82 92 101
f 92 93 103 102
f 93 94 104 103
f 94 95 105 104
f 95 96 106 105
f 96 97 107 106
f 97 98 108 107
f 98 99 109 108
f 99 100 110 109
f 100 101 111 110
f 101 92 102 111
f 102 103 113 112
f 103 104 114 113
f 104 105 115 114
f 105 106 116 115
f 106 107 117 116
f 107 108 118 117
f 108 109 119 118
f 109 110 120 119
f 110 111 121 120
f 111 102 112 121
f 122 123 131 130
f 123 124 132 131
f 124 125 133 132
f 125 126 134 133
f 126 127 135 134
f 127 128 136 135
f 128 129 137 136
f 129 122 130 137
f 130 131 139 138
f 131 132 140 139
f 132 133 141 140
f 133 134 142 141
f 134 135 143 142
f 135 136 144 143
f 136 137 145 144
f 137 130 138 145
f 138 139 147 146
f 139 140 148 147
f 140 141 149 148
f 141 142 150 149
f 142 143 151 150
f 143 144 152 151
f 144 145 153 152
f 145 138 146 153
f 146 147 155 154
f 147 148 156 155
f 148 149 157 156
f 149 150 158 157
f 150 151 159 158
f 151 152 160 159
f 152 153 161 160
f 153 146 154 161
f 154 155 156 157 158 159 160 161
f 162 163 169 168
f 163 164 170 169
f 164 165 171 170
f 165 166 172 171
f 166 167 173 172
f 167 162 168 173
f 168 169 175 174
f 169 170 176 175
f 170 171 177 176
f 171 172 178 177
f 172 173 179 178
f 173 168 174 179
f 174 175 181 180
f 175 176 182 181
f 176 177 183 182
f 177 178 184 183
f 178 179 185 184
f 179 174 180 185
f 167 166 165 164 163 162
f 180 181 182 183 184 185
f 186 187 193 192
f 187 188 194 193
f 188 189 195 194
f 189 190 196 195
f 190 191 197 196
f 191 186 192 197
f 192 193 199 198
f 193 194 200 199
f 194 195 201 200
f 195 196 202 201
f 196 197 203 202
f 197 192 198 203
f 191 190 189 188 187 186
f 204 205 211 210
f 205 206 212 211
f 206 207 213 212
f 207 208 214 213
f 208 209 215 214
f 209 204 210 215
f 210 211 217 216
f 211 212 218 217
f 212 213 219 218
f 213 214 220 219
f 214 215 221 220
f 215 210 216 221
f 209 208 207 206 205 204
f 222 223 231 230
f 223 224 232 231
f 224 225 233 232
f 225 226 234 233
f 226 227 235 234
f 227 228 236 235
f 228 229 237 236
f 229 222 230 237
f 230 231 239 238
f 231 232 240 239
f 232 233 241 240
f 233 234 242 241
f 234 235 243 242
f 235 236 244 243
f 236 237 245 244
f 237 230 238 245
f 229 228 227 226 225 224 223 222
f 246 247 255 254
f 247 248 256 255
f 248 249 257 256
f 249 250 258 257
f 250 251 259 258
f 251 252 260 259
f 252 253 261 260
f 253 246 254 261
f 254 255 256 257 258 259 260 261
f 262 263 271 270
f 263 264 272 271
f 264 265 273 272
f 265 266 274 273
f 266 267 275 274
f 267 268 276 275
f 268 269 277 276
f 269 262 270 277
f 270 271 279 278
f 271 272 280 279
f 272 273 281 280
f 273 274 282 281
f 274 275 283 282
f 275 276 284 283
f 276 277 285 284
f 277 270 278 285
f 269 268 267 266 265 264 263 262
f 286 287 295 294
f 287 288 296 295
f 288 289 297 296
f 289 290 298 297
f 290 291 299 298
f 291 292 300 299
f 292 293 301 300
f 293 286 294 301
f 294 295 296 297 298 299 300 301
f 302 303 311 310
f 303 304 312 311
f 304 305 313 312
f 305 306 314 313
f 306 307 315 314
f 307 308 316 315
f 308 309 317 316
f 309 302 310 317
f 310 311 319 318
f 311 312 320 319
f 312 313 321 320
f 313 314 322 321
f 314 315 323 322
f 315 316 324 323
f 316 317 325 324
f 317 310 318 325
f 309 308 307 306 305 304 303 302
f 326 327 335 334
f 327 328 336 335
f 328 329 337 336
f 329 330 338 337
f 330 331 339 338
f 331 332 340 339
f 332 333 341 340
f 333 326 334 341
f 334 335 336 337 338 339 340 341
f 342 343 351 350
f 343 344 352 351
f 344 345 353 352
f 345 346 354 353
f 346 347 355 354
f 347 348 356 355
f 348 349 357 356
f 349 342 350 357
f 350 351 359 358
f 351 352 360 359
f 352 353 361 360
f 353 354 362 361
f 354 355 363 362
f 355 356 364 363
f 356 357 365 364
f 357 350 358 365
f 349 348 347 346 345 344 343 342
f 366 367 375 374
f 367 368 376 375
f 368 369 377 376
f 369 370 378 377
f 370 371 379 378
f 371 372 380 379
f 372 373 381 380
f 373 366 374 381
f 374 375 376 377 378 379 380 381
f 382 383 384
f 384 383 382
f 385 386 387
f 387 386 385
f 388 389 390
f 390 389 388
f 391 392 393
f 393 392 391
f 394 395 396
f 396 395 394
f 397 398 404 403
f 398 399 405 404
f 399 400 406 405
f 400 401 407 406
f 401 402 408 407
f 402 397 403 408
f 402 401 400 399 398 397
f 403 404 405 406 407 408
f 409 410 415 414
f 410 411 416 415
f 411 412 417 416
f 412 413 418 417
f 413 409 414 418
f 414 415 416 417 418
f 419 420 421
f 421 420 419
f 422 423 424
f 424 423 422
f 425 426 427
f 427 426 425
f 428 429 430
f 430 429 428
f 431 432 433
f 433 432 431
f 434 435 441 440
f 435 436 442 441
f 436 437 443 442
f 437 438 444 443
f 438 439 445 444
f 439 434 440 445
f 439 438 437 436 435 434
f 440 441 442 443 444 445
f 446 447 452 451
f 447 448 453 452
f 448 449 454 453
f 449 450 455 454
f 450 446 451 455
f 451 452 453 454 455
f 456 457 458
f 458 457 456
f 459 460 461
f 461 460 459
f 462 463 464
f 464 463 462
f 465 466 467
f 467 466 465
f 468 469 470
f 470 469 468
f 471 472 473
f 473 472 471
f 474 475 476
f 476 475 474
f 477 478 479
f 479 478 477
f 480 481 482
f 482 481 480
f 483 484 485
f 485 484 483
f 486 487 488
f 488 487 486
f 489 490 491
f 491 490 489
f 492 493 494
f 494 493 492
f 495 496 497
f 497 496 495
f 498 499 500
f 500 499 498
f 501 502 503
f 503 502 501
f 504 505 506
f 506 505 504
f 507 508 509
f 509 508 507
f 510 511 512
f 512 511 510
f 513 514 515
f 515 514 513
f 516 517 518
f 518 517 516
