# Procedural loudspeaker
o Speaker
v -0.50000 0.90000 0.45000
v 0.50000 0.90000 0.45000
v -0.50000 -0.90000 0.45000
v 0.50000 -0.90000 0.45000
v -0.50000 0.90000 -0.45000
v 0.50000 0.90000 -0.45000
v -0.50000 -0.90000 -0.45000
v 0.50000 -0.90000 -0.45000
v 0.36000 -0.28000 0.45100
v 0.35557 -0.22368 0.45100
v 0.34238 -0.16875 0.45100
v 0.32076 -0.11656 0.45100
v 0.29125 -0.06840 0.45100
v 0.25456 -0.02544 0.45100
v 0.21160 0.01125 0.45100
v 0.16344 0.04076 0.45100
v 0.11125 0.06238 0.45100
v 0.05632 0.07557 0.45100
v 0.00000 0.08000 0.45100
v -0.05632 0.07557 0.45100
v -0.11125 0.06238 0.45100
v -0.16344 0.04076 0.45100
v -0.21160 0.01125 0.45100
v -0.25456 -0.02544 0.45100
v -0.29125 -0.06840 0.45100
v -0.32076 -0.11656 0.45100
v -0.34238 -0.16875 0.45100
v -0.35557 -0.22368 0.45100
v -0.36000 -0.28000 0.45100
v -0.35557 -0.33632 0.45100
v -0.34238 -0.39125 0.45100
v -0.32076 -0.44344 0.45100
v -0.29125 -0.49160 0.45100
v -0.25456 -0.53456 0.45100
v -0.21160 -0.57125 0.45100
v -0.16344 -0.60076 0.45100
v -0.11125 -0.62238 0.45100
v -0.05632 -0.63557 0.45100
v -0.00000 -0.64000 0.45100
v 0.05632 -0.63557 0.45100
v 0.11125 -0.62238 0.45100
v 0.16344 -0.60076 0.45100
v 0.21160 -0.57125 0.45100
v 0.25456 -0.53456 0.45100
v 0.29125 -0.49160 0.45100
v 0.32076 -0.44344 0.45100
v 0.34238 -0.39125 0.45100
v 0.35557 -0.33632 0.45100
v 0.29520 -0.28000 0.37800
v 0.29157 -0.23382 0.37800
v 0.28075 -0.18878 0.37800
v 0.26303 -0.14598 0.37800
v 0.23882 -0.10649 0.37800
v 0.20874 -0.07126 0.37800
v 0.17351 -0.04118 0.37800
v 0.13402 -0.01697 0.37800
v 0.09122 0.00075 0.37800
v 0.04618 0.01157 0.37800
v 0.00000 0.01520 0.37800
v -0.04618 0.01157 0.37800
v -0.09122 0.00075 0.37800
v -0.13402 -0.01697 0.37800
v -0.17351 -0.04118 0.37800
v -0.20874 -0.07126 0.37800
v -0.23882 -0.10649 0.37800
v -0.26303 -0.14598 0.37800
v -0.28075 -0.18878 0.37800
v -0.29157 -0.23382 0.37800
v -0.29520 -0.28000 0.37800
v -0.29157 -0.32618 0.37800
v -0.28075 -0.37122 0.37800
v -0.26303 -0.41402 0.37800
v -0.23882 -0.45351 0.37800
v -0.20874 -0.48874 0.37800
v -0.17351 -0.51882 0.37800
v -0.13402 -0.54303 0.37800
v -0.09122 -0.56075 0.37800
v -0.04618 -0.57157 0.37800
v -0.00000 -0.57520 0.37800
v 0.04618 -0.57157 0.37800
v 0.09122 -0.56075 0.37800
v 0.13402 -0.54303 0.37800
v 0.17351 -0.51882 0.37800
v 0.20874 -0.48874 0.37800
v 0.23882 -0.45351 0.37800
v 0.26303 -0.41402 0.37800
v 0.28075 -0.37122 0.37800
v 0.29157 -0.32618 0.37800
v 0.18000 -0.28000 0.27000
v 0.17778 -0.25184 0.27000
v 0.17119 -0.22438 0.27000
v 0.16038 -0.19828 0.27000
v 0.14562 -0.17420 0.27000
v 0.12728 -0.15272 0.27000
v 0.10580 -0.13438 0.27000
v 0.08172 -0.11962 0.27000
v 0.05562 -0.10881 0.27000
v 0.02816 -0.10222 0.27000
v 0.00000 -0.10000 0.27000
v -0.02816 -0.10222 0.27000
v -0.05562 -0.10881 0.27000
v -0.08172 -0.11962 0.27000
v -0.10580 -0.13438 0.27000
v -0.12728 -0.15272 0.27000
v -0.14562 -0.17420 0.27000
v -0.16038 -0.19828 0.27000
v -0.17119 -0.22438 0.27000
v -0.17778 -0.25184 0.27000
v -0.18000 -0.28000 0.27000
v -0.17778 -0.30816 0.27000
v -0.17119 -0.33562 0.27000
v -0.16038 -0.36172 0.27000
v -0.14562 -0.38580 0.27000
v -0.12728 -0.40728 0.27000
v -0.10580 -0.42562 0.27000
v -0.08172 -0.44038 0.27000
v -0.05562 -0.45119 0.27000
v -0.02816 -0.45778 0.27000
v -0.00000 -0.46000 0.27000
v 0.02816 -0.45778 0.27000
v 0.05562 -0.45119 0.27000
v 0.08172 -0.44038 0.27000
v 0.10580 -0.42562 0.27000
v 0.12728 -0.40728 0.27000
v 0.14562 -0.38580 0.27000
v 0.16038 -0.36172 0.27000
v 0.17119 -0.33562 0.27000
v 0.17778 -0.30816 0.27000
v 0.00000 -0.28000 0.48000
v 0.20000 0.30000 0.45100
v 0.19616 0.33902 0.45100
v 0.18478 0.37654 0.45100
v 0.16629 0.41111 0.45100
v 0.14142 0.44142 0.45100
v 0.11111 0.46629 0.45100
v 0.07654 0.48478 0.45100
v 0.03902 0.49616 0.45100
v 0.00000 0.50000 0.45100
v -0.03902 0.49616 0.45100
v -0.07654 0.48478 0.45100
v -0.11111 0.46629 0.45100
v -0.14142 0.44142 0.45100
v -0.16629 0.41111 0.45100
v -0.18478 0.37654 0.45100
v -0.19616 0.33902 0.45100
v -0.20000 0.30000 0.45100
v -0.19616 0.26098 0.45100
v -0.18478 0.22346 0.45100
v -0.16629 0.18889 0.45100
v -0.14142 0.15858 0.45100
v -0.11111 0.13371 0.45100
v -0.07654 0.11522 0.45100
v -0.03902 0.10384 0.45100
v -0.00000 0.10000 0.45100
v 0.03902 0.10384 0.45100
v 0.07654 0.11522 0.45100
v 0.11111 0.13371 0.45100
v 0.14142 0.15858 0.45100
v 0.16629 0.18889 0.45100
v 0.18478 0.22346 0.45100
v 0.19616 0.26098 0.45100
v 0.16400 0.30000 0.40600
v 0.16085 0.33199 0.40600
v 0.15152 0.36276 0.40600
v 0.13636 0.39111 0.40600
v 0.11597 0.41597 0.40600
v 0.09111 0.43636 0.40600
v 0.06276 0.45152 0.40600
v 0.03199 0.46085 0.40600
v 0.00000 0.46400 0.40600
v -0.03199 0.46085 0.40600
v -0.06276 0.45152 0.40600
v -0.09111 0.43636 0.40600
v -0.11597 0.41597 0.40600
v -0.13636 0.39111 0.40600
v -0.15152 0.36276 0.40600
v -0.16085 0.33199 0.40600
v -0.16400 0.30000 0.40600
v -0.16085 0.26801 0.40600
v -0.15152 0.23724 0.40600
v -0.13636 0.20889 0.40600
v -0.11597 0.18403 0.40600
v -0.09111 0.16364 0.40600
v -0.06276 0.14848 0.40600
v -0.03199 0.13915 0.40600
v -0.00000 0.13600 0.40600
v 0.03199 0.13915 0.40600
v 0.06276 0.14848 0.40600
v 0.09111 0.16364 0.40600
v 0.11597 0.18403 0.40600
v 0.13636 0.20889 0.40600
v 0.15152 0.23724 0.40600
v 0.16085 0.26801 0.40600
v 0.10000 0.30000 0.34000
v 0.09808 0.31951 0.34000
v 0.09239 0.33827 0.34000
v 0.08315 0.35556 0.34000
v 0.07071 0.37071 0.34000
v 0.05556 0.38315 0.34000
v 0.03827 0.39239 0.34000
v 0.01951 0.39808 0.34000
v 0.00000 0.40000 0.34000
v -0.01951 0.39808 0.34000
v -0.03827 0.39239 0.34000
v -0.05556 0.38315 0.34000
v -0.07071 0.37071 0.34000
v -0.08315 0.35556 0.34000
v -0.09239 0.33827 0.34000
v -0.09808 0.31951 0.34000
v -0.10000 0.30000 0.34000
v -0.09808 0.28049 0.34000
v -0.09239 0.26173 0.34000
v -0.08315 0.24444 0.34000
v -0.07071 0.22929 0.34000
v -0.05556 0.21685 0.34000
v -0.03827 0.20761 0.34000
v -0.01951 0.20192 0.34000
v -0.00000 0.20000 0.34000
v 0.01951 0.20192 0.34000
v 0.03827 0.20761 0.34000
v 0.05556 0.21685 0.34000
v 0.07071 0.22929 0.34000
v 0.08315 0.24444 0.34000
v 0.09239 0.26173 0.34000
v 0.09808 0.28049 0.34000
v 0.00000 0.30000 0.47100
v 0.10000 0.62000 0.45100
v 0.09659 0.64588 0.45100
v 0.08660 0.67000 0.45100
v 0.07071 0.69071 0.45100
v 0.05000 0.70660 0.45100
v 0.02588 0.71659 0.45100
v 0.00000 0.72000 0.45100
v -0.02588 0.71659 0.45100
v -0.05000 0.70660 0.45100
v -0.07071 0.69071 0.45100
v -0.08660 0.67000 0.45100
v -0.09659 0.64588 0.45100
v -0.10000 0.62000 0.45100
v -0.09659 0.59412 0.45100
v -0.08660 0.57000 0.45100
v -0.07071 0.54929 0.45100
v -0.05000 0.53340 0.45100
v -0.02588 0.52341 0.45100
v -0.00000 0.52000 0.45100
v 0.02588 0.52341 0.45100
v 0.05000 0.53340 0.45100
v 0.07071 0.54929 0.45100
v 0.08660 0.57000 0.45100
v 0.09659 0.59412 0.45100
v 0.08200 0.62000 0.43000
v 0.07921 0.64122 0.43000
v 0.07101 0.66100 0.43000
v 0.05798 0.67798 0.43000
v 0.04100 0.69101 0.43000
v 0.02122 0.69921 0.43000
v 0.00000 0.70200 0.43000
v -0.02122 0.69921 0.43000
v -0.04100 0.69101 0.43000
v -0.05798 0.67798 0.43000
v -0.07101 0.66100 0.43000
v -0.07921 0.64122 0.43000
v -0.08200 0.62000 0.43000
v -0.07921 0.59878 0.43000
v -0.07101 0.57900 0.43000
v -0.05798 0.56202 0.43000
v -0.04100 0.54899 0.43000
v -0.02122 0.54079 0.43000
v -0.00000 0.53800 0.43000
v 0.02122 0.54079 0.43000
v 0.04100 0.54899 0.43000
v 0.05798 0.56202 0.43000
v 0.07101 0.57900 0.43000
v 0.07921 0.59878 0.43000
v 0.05000 0.62000 0.40000
v 0.04830 0.63294 0.40000
v 0.04330 0.64500 0.40000
v 0.03536 0.65536 0.40000
v 0.02500 0.66330 0.40000
v 0.01294 0.66830 0.40000
v 0.00000 0.67000 0.40000
v -0.01294 0.66830 0.40000
v -0.02500 0.66330 0.40000
v -0.03536 0.65536 0.40000
v -0.04330 0.64500 0.40000
v -0.04830 0.63294 0.40000
v -0.05000 0.62000 0.40000
v -0.04830 0.60706 0.40000
v -0.04330 0.59500 0.40000
v -0.03536 0.58464 0.40000
v -0.02500 0.57670 0.40000
v -0.01294 0.57170 0.40000
v -0.00000 0.57000 0.40000
v 0.01294 0.57170 0.40000
v 0.02500 0.57670 0.40000
v 0.03536 0.58464 0.40000
v 0.04330 0.59500 0.40000
v 0.04830 0.60706 0.40000
v 0.00000 0.62000 0.45900
v 0.12000 -0.70000 0.45100
v 0.11591 -0.66894 0.45100
v 0.10392 -0.64000 0.45100
v 0.08485 -0.61515 0.45100
v 0.06000 -0.59608 0.45100
v 0.03106 -0.58409 0.45100
v 0.00000 -0.58000 0.45100
v -0.03106 -0.58409 0.45100
v -0.06000 -0.59608 0.45100
v -0.08485 -0.61515 0.45100
v -0.10392 -0.64000 0.45100
v -0.11591 -0.66894 0.45100
v -0.12000 -0.70000 0.45100
v -0.11591 -0.73106 0.45100
v -0.10392 -0.76000 0.45100
v -0.08485 -0.78485 0.45100
v -0.06000 -0.80392 0.45100
v -0.03106 -0.81591 0.45100
v -0.00000 -0.82000 0.45100
v 0.03106 -0.81591 0.45100
v 0.06000 -0.80392 0.45100
v 0.08485 -0.78485 0.45100
v 0.10392 -0.76000 0.45100
v 0.11591 -0.73106 0.45100
v 0.10800 -0.70000 0.20000
v 0.10432 -0.67205 0.20000
v 0.09353 -0.64600 0.20000
v 0.07637 -0.62363 0.20000
v 0.05400 -0.60647 0.20000
v 0.02795 -0.59568 0.20000
v 0.00000 -0.59200 0.20000
v -0.02795 -0.59568 0.20000
v -0.05400 -0.60647 0.20000
v -0.07637 -0.62363 0.20000
v -0.09353 -0.64600 0.20000
v -0.10432 -0.67205 0.20000
v -0.10800 -0.70000 0.20000
v -0.10432 -0.72795 0.20000
v -0.09353 -0.75400 0.20000
v -0.07637 -0.77637 0.20000
v -0.05400 -0.79353 0.20000
v -0.02795 -0.80432 0.20000
v -0.00000 -0.80800 0.20000
v 0.02795 -0.80432 0.20000
v 0.05400 -0.79353 0.20000
v 0.07637 -0.77637 0.20000
v 0.09353 -0.75400 0.20000
v 0.10432 -0.72795 0.20000
v 0.00000 -0.70000 0.20000
f 5 6 8 7
f 1 5 7 3
f 6 2 4 8
f 1 2 6 5
f 3 7 8 4
f 1 2 4 3
f 9 10 50 49
f 10 11 51 50
f 11 12 52 51
f 12 13 53 52
f 13 14 54 53
f 14 15 55 54
f 15 16 56 55
f 16 17 57 56
f 17 18 58 57
f 18 19 59 58
f 19 20 60 59
f 20 21 61 60
f 21 22 62 61
f 22 23 63 62
f 23 24 64 63
f 24 25 65 64
f 25 26 66 65
f 26 27 67 66
f 27 28 68 67
f 28 29 69 68
f 29 30 70 69
f 30 31 71 70
f 31 32 72 71
f 32 33 73 72
f 33 34 74 73
f 34 35 75 74
f 35 36 76 75
f 36 37 77 76
f 37 38 78 77
f 38 39 79 78
f 39 40 80 79
f 40 41 81 80
f 41 42 82 81
f 42 43 83 82
f 43 44 84 83
f 44 45 85 84
f 45 46 86 85
f 46 47 87 86
f 47 48 88 87
f 48 9 49 88
f 49 50 90 89
f 50 51 91 90
f 51 52 92 91
f 52 53 93 92
f 53 54 94 93
f 54 55 95 94
f 55 56 96 95
f 56 57 97 96
f 57 58 98 97
f 58 59 99 98
f 59 60 100 99
f 60 61 101 100
f 61 62 102 101
f 62 63 103 102
f 63 64 104 103
f 64 65 105 104
f 65 66 106 105
f 66 67 107 106
f 67 68 108 107
f 68 69 109 108
f 69 70 110 109
f 70 71 111 110
f 71 72 112 111
f 72 73 113 112
f 73 74 114 113
f 74 75 115 114
f 75 76 116 115
f 76 77 117 116
f 77 78 118 117
f 78 79 119 118
f 79 80 120 119
f 80 81 121 120
f 81 82 122 121
f 82 83 123 122
f 83 84 124 123
f 84 85 125 124
f 85 86 126 125
f 86 87 127 126
f 87 88 128 127
f 88 49 89 128
f 89 90 129
f 90 91 129
f 91 92 129
f 92 93 129
f 93 94 129
f 94 95 129
f 95 96 129
f 96 97 129
f 97 98 129
f 98 99 129
f 99 100 129
f 100 101 129
f 101 102 129
f 102 103 129
f 103 104 129
f 104 105 129
f 105 106 129
f 106 107 129
f 107 108 129
f 108 109 129
f 109 110 129
f 110 111 129
f 111 112 129
f 112 113 129
f 113 114 129
f 114 115 129
f 115 116 129
f 116 117 129
f 117 118 129
f 118 119 129
f 119 120 129
f 120 121 129
f 121 122 129
f 122 123 129
f 123 124 129
f 124 125 129
f 125 126 129
f 126 127 129
f 127 128 129
f 128 89 129
f 130 131 163 162
f 131 132 164 163
f 132 133 165 164
f 133 134 166 165
f 134 135 167 166
f 135 136 168 167
f 136 137 169 168
f 137 138 170 169
f 138 139 171 170
f 139 140 172 171
f 140 141 173 172
f 141 142 174 173
f 142 143 175 174
f 143 144 176 175
f 144 145 177 176
f 145 146 178 177
f 146 147 179 178
f 147 148 180 179
f 148 149 181 180
f 149 150 182 181
f 150 151 183 182
f 151 152 184 183
f 152 153 185 184
f 153 154 186 185
f 154 155 187 186
f 155 156 188 187
f 156 157 189 188
f 157 158 190 189
f 158 159 191 190
f 159 160 192 191
f 160 161 193 192
f 161 130 162 193
f 162 163 195 194
f 163 164 196 195
f 164 165 197 196
f 165 166 198 197
f 166 167 199 198
f 167 168 200 199
f 168 169 201 200
f 169 170 202 201
f 170 171 203 202
f 171 172 204 203
f 172 173 205 204
f 173 174 206 205
f 174 175 207 206
f 175 176 208 207
f 176 177 209 208
f 177 178 210 209
f 178 179 211 210
f 179 180 212 211
f 180 181 213 212
f 181 182 214 213
f 182 183 215 214
f 183 184 216 215
f 184 185 217 216
f 185 186 218 217
f 186 187 219 218
f 187 188 220 219
f 188 189 221 220
f 189 190 222 221
f 190 191 223 222
f 191 192 224 223
f 192 193 225 224
f 193 162 194 225
f 194 195 226
f 195 196 226
f 196 197 226
f 197 198 226
f 198 199 226
f 199 200 226
f 200 201 226
f 201 202 226
f 202 203 226
f 203 204 226
f 204 205 226
f 205 206 226
f 206 207 226
f 207 208 226
f 208 209 226
f 209 210 226
f 210 211 226
f 211 212 226
f 212 213 226
f 213 214 226
f 214 215 226
f 215 216 226
f 216 217 226
f 217 218 226
f 218 219 226
f 219 220 226
f 220 221 226
f 221 222 226
f 222 223 226
f 223 224 226
f 224 225 226
f 225 194 226
f 227 228 252 251
f 228 229 253 252
f 229 230 254 253
f 230 231 255 254
f 231 232 256 255
f 232 233 257 256
f 233 234 258 257
f 234 235 259 258
f 235 236 260 259
f 236 237 261 260
f 237 238 262 261
f 238 239 263 262
f 239 240 264 263
f 240 241 265 264
f 241 242 266 265
f 242 243 267 266
f 243 244 268 267
f 244 245 269 268
f 245 246 270 269
f 246 247 271 270
f 247 248 272 271
f 248 249 273 272
f 249 250 274 273
f 250 227 251 274
f 251 252 276 275
f 252 253 277 276
f 253 254 278 277
f 254 255 279 278
f 255 256 280 279
f 256 257 281 280
f 257 258 282 281
f 258 259 283 282
f 259 260 284 283
f 260 261 285 284
f 261 262 286 285
f 262 263 287 286
f 263 264 288 287
f 264 265 289 288
f 265 266 290 289
f 266 267 291 290
f 267 268 292 291
f 268 269 293 292
f 269 270 294 293
f 270 271 295 294
f 271 272 296 295
f 272 273 297 296
f 273 274 298 297
f 274 251 275 298
f 275 276 299
f 276 277 299
f 277 278 299
f 278 279 299
f 279 280 299
f 280 281 299
f 281 282 299
f 282 283 299
f 283 284 299
f 284 285 299
f 285 286 299
f 286 287 299
f 287 288 299
f 288 289 299
f 289 290 299
f 290 291 299
f 291 292 299
f 292 293 299
f 293 294 299
f 294 295 299
f 295 296 299
f 296 297 299
f 297 298 299
f 298 275 299
f 300 301 325 324
f 301 302 326 325
f 302 303 327 326
f 303 304 328 327
f 304 305 329 328
f 305 306 330 329
f 306 307 331 330
f 307 308 332 331
f 308 309 333 332
f 309 310 334 333
f 310 311 335 334
f 311 312 336 335
f 312 313 337 336
f 313 314 338 337
f 314 315 339 338
f 315 316 340 339
f 316 317 341 340
f 317 318 342 341
f 318 319 343 342
f 319 320 344 343
f 320 321 345 344
f 321 322 346 345
f 322 323 347 346
f 323 300 324 347
f 324 325 348
f 325 326 348
f 326 327 348
f 327 328 348
f 328 329 348
f 329 330 348
f 330 331 348
f 331 332 348
f 332 333 348
f 333 334 348
f 334 335 348
f 335 336 348
f 336 337 348
f 337 338 348
f 338 339 348
f 339 340 348
f 340 341 348
f 341 342 348
f 342 343 348
f 343 344 348
f 344 345 348
f 345 346 348
f 346 347 348
f 347 324 348
