# Procedural treasure chest
mtllib treasure_chest.mtl
o TreasureChest
v -1.0000 0.0000 -0.6000
v 1.0000 0.0000 -0.6000
v 1.0000 0.8000 -0.6000
v -1.0000 0.8000 -0.6000
v -1.0000 0.0000 0.6000
v 1.0000 0.0000 0.6000
v 1.0000 0.8000 0.6000
v -1.0000 0.8000 0.6000
v 1.0000 0.8000 0.6000
v -1.0000 0.8000 0.6000
v 1.0000 0.8783 0.5949
v -1.0000 0.8783 0.5949
v 1.0000 0.9553 0.5796
v -1.0000 0.9553 0.5796
v 1.0000 1.0296 0.5543
v -1.0000 1.0296 0.5543
v 1.0000 1.1000 0.5196
v -1.0000 1.1000 0.5196
v 1.0000 1.1653 0.4760
v -1.0000 1.1653 0.4760
v 1.0000 1.2243 0.4243
v -1.0000 1.2243 0.4243
v 1.0000 1.2760 0.3653
v -1.0000 1.2760 0.3653
v 1.0000 1.3196 0.3000
v -1.0000 1.3196 0.3000
v 1.0000 1.3543 0.2296
v -1.0000 1.3543 0.2296
v 1.0000 1.3796 0.1553
v -1.0000 1.3796 0.1553
v 1.0000 1.3949 0.0783
v -1.0000 1.3949 0.0783
v 1.0000 1.4000 0.0000
v -1.0000 1.4000 0.0000
v 1.0000 1.3949 -0.0783
v -1.0000 1.3949 -0.0783
v 1.0000 1.3796 -0.1553
v -1.0000 1.3796 -0.1553
v 1.0000 1.3543 -0.2296
v -1.0000 1.3543 -0.2296
v 1.0000 1.3196 -0.3000
v -1.0000 1.3196 -0.3000
v 1.0000 1.2760 -0.3653
v -1.0000 1.2760 -0.3653
v 1.0000 1.2243 -0.4243
v -1.0000 1.2243 -0.4243
v 1.0000 1.1653 -0.4760
v -1.0000 1.1653 -0.4760
v 1.0000 1.1000 -0.5196
v -1.0000 1.1000 -0.5196
v 1.0000 1.0296 -0.5543
v -1.0000 1.0296 -0.5543
v 1.0000 0.9553 -0.5796
v -1.0000 0.9553 -0.5796
v 1.0000 0.8783 -0.5949
v -1.0000 0.8783 -0.5949
v 1.0000 0.8000 -0.6000
v -1.0000 0.8000 -0.6000
v 1.0000 0.8000 0.0000
v -1.0000 0.8000 0.0000
v -1.0200 0.7400 -0.6200
v 1.0200 0.7400 -0.6200
v 1.0200 0.8400 -0.6200
v -1.0200 0.8400 -0.6200
v -1.0200 0.7400 0.6200
v 1.0200 0.7400 0.6200
v 1.0200 0.8400 0.6200
v -1.0200 0.8400 0.6200
v -0.6400 0.0000 0.6000
v -0.4600 0.0000 0.6000
v -0.4600 0.7500 0.6000
v -0.6400 0.7500 0.6000
v -0.6400 0.0000 0.6250
v -0.4600 0.0000 0.6250
v -0.4600 0.7500 0.6250
v -0.6400 0.7500 0.6250
v -0.6400 0.0000 -0.6250
v -0.4600 0.0000 -0.6250
v -0.4600 0.7500 -0.6250
v -0.6400 0.7500 -0.6250
v -0.6400 0.0000 -0.6000
v -0.4600 0.0000 -0.6000
v -0.4600 0.7500 -0.6000
v -0.6400 0.7500 -0.6000
v -0.4600 0.8000 0.6250
v -0.6400 0.8000 0.6250
v -0.4600 0.8816 0.6197
v -0.6400 0.8816 0.6197
v -0.4600 0.9618 0.6037
v -0.6400 0.9618 0.6037
v -0.4600 1.0392 0.5774
v -0.6400 1.0392 0.5774
v -0.4600 1.1125 0.5413
v -0.6400 1.1125 0.5413
v -0.4600 1.1805 0.4958
v -0.6400 1.1805 0.4958
v -0.4600 1.2419 0.4419
v -0.6400 1.2419 0.4419
v -0.4600 1.2958 0.3805
v -0.6400 1.2958 0.3805
v -0.4600 1.3413 0.3125
v -0.6400 1.3413 0.3125
v -0.4600 1.3774 0.2392
v -0.6400 1.3774 0.2392
v -0.4600 1.4037 0.1618
v -0.6400 1.4037 0.1618
v -0.4600 1.4197 0.0816
v -0.6400 1.4197 0.0816
v -0.4600 1.4250 0.0000
v -0.6400 1.4250 0.0000
v -0.4600 1.4197 -0.0816
v -0.6400 1.4197 -0.0816
v -0.4600 1.4037 -0.1618
v -0.6400 1.4037 -0.1618
v -0.4600 1.3774 -0.2392
v -0.6400 1.3774 -0.2392
v -0.4600 1.3413 -0.3125
v -0.6400 1.3413 -0.3125
v -0.4600 1.2958 -0.3805
v -0.6400 1.2958 -0.3805
v -0.4600 1.2419 -0.4419
v -0.6400 1.2419 -0.4419
v -0.4600 1.1805 -0.4958
v -0.6400 1.1805 -0.4958
v -0.4600 1.1125 -0.5413
v -0.6400 1.1125 -0.5413
v -0.4600 1.0392 -0.5774
v -0.6400 1.0392 -0.5774
v -0.4600 0.9618 -0.6037
v -0.6400 0.9618 -0.6037
v -0.4600 0.8816 -0.6197
v -0.6400 0.8816 -0.6197
v -0.4600 0.8000 -0.6250
v -0.6400 0.8000 -0.6250
v 0.4600 0.0000 0.6000
v 0.6400 0.0000 0.6000
v 0.6400 0.7500 0.6000
v 0.4600 0.7500 0.6000
v 0.4600 0.0000 0.6250
v 0.6400 0.0000 0.6250
v 0.6400 0.7500 0.6250
v 0.4600 0.7500 0.6250
v 0.4600 0.0000 -0.6250
v 0.6400 0.0000 -0.6250
v 0.6400 0.7500 -0.6250
v 0.4600 0.7500 -0.6250
v 0.4600 0.0000 -0.6000
v 0.6400 0.0000 -0.6000
v 0.6400 0.7500 -0.6000
v 0.4600 0.7500 -0.6000
v 0.6400 0.8000 0.6250
v 0.4600 0.8000 0.6250
v 0.6400 0.8816 0.6197
v 0.4600 0.8816 0.6197
v 0.6400 0.9618 0.6037
v 0.4600 0.9618 0.6037
v 0.6400 1.0392 0.5774
v 0.4600 1.0392 0.5774
v 0.6400 1.1125 0.5413
v 0.4600 1.1125 0.5413
v 0.6400 1.1805 0.4958
v 0.4600 1.1805 0.4958
v 0.6400 1.2419 0.4419
v 0.4600 1.2419 0.4419
v 0.6400 1.2958 0.3805
v 0.4600 1.2958 0.3805
v 0.6400 1.3413 0.3125
v 0.4600 1.3413 0.3125
v 0.6400 1.3774 0.2392
v 0.4600 1.3774 0.2392
v 0.6400 1.4037 0.1618
v 0.4600 1.4037 0.1618
v 0.6400 1.4197 0.0816
v 0.4600 1.4197 0.0816
v 0.6400 1.4250 0.0000
v 0.4600 1.4250 0.0000
v 0.6400 1.4197 -0.0816
v 0.4600 1.4197 -0.0816
v 0.6400 1.4037 -0.1618
v 0.4600 1.4037 -0.1618
v 0.6400 1.3774 -0.2392
v 0.4600 1.3774 -0.2392
v 0.6400 1.3413 -0.3125
v 0.4600 1.3413 -0.3125
v 0.6400 1.2958 -0.3805
v 0.4600 1.2958 -0.3805
v 0.6400 1.2419 -0.4419
v 0.4600 1.2419 -0.4419
v 0.6400 1.1805 -0.4958
v 0.4600 1.1805 -0.4958
v 0.6400 1.1125 -0.5413
v 0.4600 1.1125 -0.5413
v 0.6400 1.0392 -0.5774
v 0.4600 1.0392 -0.5774
v 0.6400 0.9618 -0.6037
v 0.4600 0.9618 -0.6037
v 0.6400 0.8816 -0.6197
v 0.4600 0.8816 -0.6197
v 0.6400 0.8000 -0.6250
v 0.4600 0.8000 -0.6250
v -0.1800 0.5000 0.6000
v 0.1800 0.5000 0.6000
v 0.1800 0.8200 0.6000
v -0.1800 0.8200 0.6000
v -0.1800 0.5000 0.6500
v 0.1800 0.5000 0.6500
v 0.1800 0.8200 0.6500
v -0.1800 0.8200 0.6500
v -0.0500 0.6000 0.6500
v 0.0500 0.6000 0.6500
v 0.0500 0.7000 0.6500
v -0.0500 0.7000 0.6500
v -0.0500 0.6000 0.6900
v 0.0500 0.6000 0.6900
v 0.0500 0.7000 0.6900
v -0.0500 0.7000 0.6900
v -0.1200 0.7800 0.6200
v 0.1200 0.7800 0.6200
v 0.1200 0.9000 0.6200
v -0.1200 0.9000 0.6200
v -0.1200 0.7800 0.6700
v 0.1200 0.7800 0.6700
v 0.1200 0.9000 0.6700
v -0.1200 0.9000 0.6700
usemtl wood
f 5 6 7 8
f 2 1 4 3
f 1 5 8 4
f 6 2 3 7
f 4 8 7 3
f 1 2 6 5
f 9 11 12 10
f 11 13 14 12
f 13 15 16 14
f 15 17 18 16
f 17 19 20 18
f 19 21 22 20
f 21 23 24 22
f 23 25 26 24
f 25 27 28 26
f 27 29 30 28
f 29 31 32 30
f 31 33 34 32
f 33 35 36 34
f 35 37 38 36
f 37 39 40 38
f 39 41 42 40
f 41 43 44 42
f 43 45 46 44
f 45 47 48 46
f 47 49 50 48
f 49 51 52 50
f 51 53 54 52
f 53 55 56 54
f 55 57 58 56
f 59 11 9
f 60 10 12
f 59 13 11
f 60 12 14
f 59 15 13
f 60 14 16
f 59 17 15
f 60 16 18
f 59 19 17
f 60 18 20
f 59 21 19
f 60 20 22
f 59 23 21
f 60 22 24
f 59 25 23
f 60 24 26
f 59 27 25
f 60 26 28
f 59 29 27
f 60 28 30
f 59 31 29
f 60 30 32
f 59 33 31
f 60 32 34
f 59 35 33
f 60 34 36
f 59 37 35
f 60 36 38
f 59 39 37
f 60 38 40
f 59 41 39
f 60 40 42
f 59 43 41
f 60 42 44
f 59 45 43
f 60 44 46
f 59 47 45
f 60 46 48
f 59 49 47
f 60 48 50
f 59 51 49
f 60 50 52
f 59 53 51
f 60 52 54
f 59 55 53
f 60 54 56
f 59 57 55
f 60 56 58
usemtl iron
f 65 66 67 68
f 62 61 64 63
f 61 65 68 64
f 66 62 63 67
f 64 68 67 63
f 61 62 66 65
f 73 74 75 76
f 70 69 72 71
f 69 73 76 72
f 74 70 71 75
f 72 76 75 71
f 69 70 74 73
f 81 82 83 84
f 78 77 80 79
f 77 81 84 80
f 82 78 79 83
f 80 84 83 79
f 77 78 82 81
f 86 88 87 85
f 88 90 89 87
f 90 92 91 89
f 92 94 93 91
f 94 96 95 93
f 96 98 97 95
f 98 100 99 97
f 100 102 101 99
f 102 104 103 101
f 104 106 105 103
f 106 108 107 105
f 108 110 109 107
f 110 112 111 109
f 112 114 113 111
f 114 116 115 113
f 116 118 117 115
f 118 120 119 117
f 120 122 121 119
f 122 124 123 121
f 124 126 125 123
f 126 128 127 125
f 128 130 129 127
f 130 132 131 129
f 132 134 133 131
f 139 140 141 142
f 136 135 138 137
f 135 139 142 138
f 140 136 137 141
f 138 142 141 137
f 135 136 140 139
f 147 148 149 150
f 144 143 146 145
f 143 147 150 146
f 148 144 145 149
f 146 150 149 145
f 143 144 148 147
f 152 154 153 151
f 154 156 155 153
f 156 158 157 155
f 158 160 159 157
f 160 162 161 159
f 162 164 163 161
f 164 166 165 163
f 166 168 167 165
f 168 170 169 167
f 170 172 171 169
f 172 174 173 171
f 174 176 175 173
f 176 178 177 175
f 178 180 179 177
f 180 182 181 179
f 182 184 183 181
f 184 186 185 183
f 186 188 187 185
f 188 190 189 187
f 190 192 191 189
f 192 194 193 191
f 194 196 195 193
f 196 198 197 195
f 198 200 199 197
usemtl gold
f 205 206 207 208
f 202 201 204 203
f 201 205 208 204
f 206 202 203 207
f 204 208 207 203
f 201 202 206 205
f 213 214 215 216
f 210 209 212 211
f 209 213 216 212
f 214 210 211 215
f 212 216 215 211
f 209 210 214 213
f 221 222 223 224
f 218 217 220 219
f 217 221 224 220
f 222 218 219 223
f 220 224 223 219
f 217 218 222 221
