# Simplified Warsong Gulch-style Capture the Flag map
# Generated procedurally. Units approximate (1 unit ~ 1 yard).
mtllib warsong_gulch.mtl

v -45.000 -2.000 -140.000
v 45.000 -2.000 -140.000
v 45.000 -2.000 140.000
v -45.000 -2.000 140.000
v -45.000 0.000 -140.000
v 45.000 0.000 -140.000
v 45.000 0.000 140.000
v -45.000 0.000 140.000
v -5.000 -0.900 -90.000
v 5.000 -0.900 -90.000
v 5.000 -0.900 90.000
v -5.000 -0.900 90.000
v -5.000 0.100 -90.000
v 5.000 0.100 -90.000
v 5.000 0.100 90.000
v -5.000 0.100 90.000
v -53.000 0.000 -140.000
v -45.000 0.000 -140.000
v -45.000 0.000 140.000
v -53.000 0.000 140.000
v -53.000 22.000 -140.000
v -45.000 22.000 -140.000
v -45.000 22.000 140.000
v -53.000 22.000 140.000
v 45.000 0.000 -140.000
v 53.000 0.000 -140.000
v 53.000 0.000 140.000
v 45.000 0.000 140.000
v 45.000 22.000 -140.000
v 53.000 22.000 -140.000
v 53.000 22.000 140.000
v 45.000 22.000 140.000
v -47.000 -1.000 -127.000
v -41.000 -1.000 -127.000
v -41.000 -1.000 -113.000
v -47.000 -1.000 -113.000
v -47.000 27.000 -127.000
v -41.000 27.000 -127.000
v -41.000 27.000 -113.000
v -47.000 27.000 -113.000
v 41.000 -1.000 -127.000
v 47.000 -1.000 -127.000
v 47.000 -1.000 -113.000
v 41.000 -1.000 -113.000
v 41.000 27.000 -127.000
v 47.000 27.000 -127.000
v 47.000 27.000 -113.000
v 41.000 27.000 -113.000
v -47.000 -1.000 -97.000
v -41.000 -1.000 -97.000
v -41.000 -1.000 -83.000
v -47.000 -1.000 -83.000
v -47.000 27.000 -97.000
v -41.000 27.000 -97.000
v -41.000 27.000 -83.000
v -47.000 27.000 -83.000
v 41.000 -1.000 -97.000
v 47.000 -1.000 -97.000
v 47.000 -1.000 -83.000
v 41.000 -1.000 -83.000
v 41.000 27.000 -97.000
v 47.000 27.000 -97.000
v 47.000 27.000 -83.000
v 41.000 27.000 -83.000
v -47.000 -1.000 -67.000
v -41.000 -1.000 -67.000
v -41.000 -1.000 -53.000
v -47.000 -1.000 -53.000
v -47.000 27.000 -67.000
v -41.000 27.000 -67.000
v -41.000 27.000 -53.000
v -47.000 27.000 -53.000
v 41.000 -1.000 -67.000
v 47.000 -1.000 -67.000
v 47.000 -1.000 -53.000
v 41.000 -1.000 -53.000
v 41.000 27.000 -67.000
v 47.000 27.000 -67.000
v 47.000 27.000 -53.000
v 41.000 27.000 -53.000
v -47.000 -1.000 -37.000
v -41.000 -1.000 -37.000
v -41.000 -1.000 -23.000
v -47.000 -1.000 -23.000
v -47.000 27.000 -37.000
v -41.000 27.000 -37.000
v -41.000 27.000 -23.000
v -47.000 27.000 -23.000
v 41.000 -1.000 -37.000
v 47.000 -1.000 -37.000
v 47.000 -1.000 -23.000
v 41.000 -1.000 -23.000
v 41.000 27.000 -37.000
v 47.000 27.000 -37.000
v 47.000 27.000 -23.000
v 41.000 27.000 -23.000
v -47.000 -1.000 -7.000
v -41.000 -1.000 -7.000
v -41.000 -1.000 7.000
v -47.000 -1.000 7.000
v -47.000 27.000 -7.000
v -41.000 27.000 -7.000
v -41.000 27.000 7.000
v -47.000 27.000 7.000
v 41.000 -1.000 -7.000
v 47.000 -1.000 -7.000
v 47.000 -1.000 7.000
v 41.000 -1.000 7.000
v 41.000 27.000 -7.000
v 47.000 27.000 -7.000
v 47.000 27.000 7.000
v 41.000 27.000 7.000
v -47.000 -1.000 23.000
v -41.000 -1.000 23.000
v -41.000 -1.000 37.000
v -47.000 -1.000 37.000
v -47.000 27.000 23.000
v -41.000 27.000 23.000
v -41.000 27.000 37.000
v -47.000 27.000 37.000
v 41.000 -1.000 23.000
v 47.000 -1.000 23.000
v 47.000 -1.000 37.000
v 41.000 -1.000 37.000
v 41.000 27.000 23.000
v 47.000 27.000 23.000
v 47.000 27.000 37.000
v 41.000 27.000 37.000
v -47.000 -1.000 53.000
v -41.000 -1.000 53.000
v -41.000 -1.000 67.000
v -47.000 -1.000 67.000
v -47.000 27.000 53.000
v -41.000 27.000 53.000
v -41.000 27.000 67.000
v -47.000 27.000 67.000
v 41.000 -1.000 53.000
v 47.000 -1.000 53.000
v 47.000 -1.000 67.000
v 41.000 -1.000 67.000
v 41.000 27.000 53.000
v 47.000 27.000 53.000
v 47.000 27.000 67.000
v 41.000 27.000 67.000
v -47.000 -1.000 83.000
v -41.000 -1.000 83.000
v -41.000 -1.000 97.000
v -47.000 -1.000 97.000
v -47.000 27.000 83.000
v -41.000 27.000 83.000
v -41.000 27.000 97.000
v -47.000 27.000 97.000
v 41.000 -1.000 83.000
v 47.000 -1.000 83.000
v 47.000 -1.000 97.000
v 41.000 -1.000 97.000
v 41.000 27.000 83.000
v 47.000 27.000 83.000
v 47.000 27.000 97.000
v 41.000 27.000 97.000
v -47.000 -1.000 113.000
v -41.000 -1.000 113.000
v -41.000 -1.000 127.000
v -47.000 -1.000 127.000
v -47.000 27.000 113.000
v -41.000 27.000 113.000
v -41.000 27.000 127.000
v -47.000 27.000 127.000
v 41.000 -1.000 113.000
v 47.000 -1.000 113.000
v 47.000 -1.000 127.000
v 41.000 -1.000 127.000
v 41.000 27.000 113.000
v 47.000 27.000 113.000
v 47.000 27.000 127.000
v 41.000 27.000 127.000
v -25.000 0.000 -126.000
v 25.000 0.000 -126.000
v 25.000 0.000 -98.000
v -25.000 0.000 -98.000
v -25.000 6.000 -126.000
v 25.000 6.000 -126.000
v 25.000 6.000 -98.000
v -25.000 6.000 -98.000
v -28.000 6.000 -129.000
v 28.000 6.000 -129.000
v 28.000 6.000 -126.000
v -28.000 6.000 -126.000
v -28.000 22.000 -129.000
v 28.000 22.000 -129.000
v 28.000 22.000 -126.000
v -28.000 22.000 -126.000
v -28.000 6.000 -129.000
v -25.000 6.000 -129.000
v -25.000 6.000 -95.000
v -28.000 6.000 -95.000
v -28.000 22.000 -129.000
v -25.000 22.000 -129.000
v -25.000 22.000 -95.000
v -28.000 22.000 -95.000
v 25.000 6.000 -129.000
v 28.000 6.000 -129.000
v 28.000 6.000 -95.000
v 25.000 6.000 -95.000
v 25.000 22.000 -129.000
v 28.000 22.000 -129.000
v 28.000 22.000 -95.000
v 25.000 22.000 -95.000
v -28.000 6.000 -98.000
v -8.000 6.000 -98.000
v -8.000 6.000 -95.000
v -28.000 6.000 -95.000
v -28.000 22.000 -98.000
v -8.000 22.000 -98.000
v -8.000 22.000 -95.000
v -28.000 22.000 -95.000
v 8.000 6.000 -98.000
v 28.000 6.000 -98.000
v 28.000 6.000 -95.000
v 8.000 6.000 -95.000
v 8.000 22.000 -98.000
v 28.000 22.000 -98.000
v 28.000 22.000 -95.000
v 8.000 22.000 -95.000
v -8.000 18.000 -98.000
v 8.000 18.000 -98.000
v 8.000 18.000 -95.000
v -8.000 18.000 -95.000
v -8.000 22.000 -98.000
v 8.000 22.000 -98.000
v 8.000 22.000 -95.000
v -8.000 22.000 -95.000
v -29.500 6.000 -130.500
v -22.500 6.000 -130.500
v -22.500 6.000 -123.500
v -29.500 6.000 -123.500
v -29.500 30.000 -130.500
v -22.500 30.000 -130.500
v -22.500 30.000 -123.500
v -29.500 30.000 -123.500
v -29.500 6.000 -100.500
v -22.500 6.000 -100.500
v -22.500 6.000 -93.500
v -29.500 6.000 -93.500
v -29.500 30.000 -100.500
v -22.500 30.000 -100.500
v -22.500 30.000 -93.500
v -29.500 30.000 -93.500
v 22.500 6.000 -130.500
v 29.500 6.000 -130.500
v 29.500 6.000 -123.500
v 22.500 6.000 -123.500
v 22.500 30.000 -130.500
v 29.500 30.000 -130.500
v 29.500 30.000 -123.500
v 22.500 30.000 -123.500
v 22.500 6.000 -100.500
v 29.500 6.000 -100.500
v 29.500 6.000 -93.500
v 22.500 6.000 -93.500
v 22.500 30.000 -100.500
v 29.500 30.000 -100.500
v 29.500 30.000 -93.500
v 22.500 30.000 -93.500
v -4.000 6.000 -124.000
v 4.000 6.000 -124.000
v 4.000 6.000 -116.000
v -4.000 6.000 -116.000
v -4.000 9.000 -124.000
v 4.000 9.000 -124.000
v 4.000 9.000 -116.000
v -4.000 9.000 -116.000
v 0.350 9.000 -120.000
v 0.350 18.000 -120.000
v 0.247 9.000 -119.753
v 0.247 18.000 -119.753
v 0.000 9.000 -119.650
v 0.000 18.000 -119.650
v -0.247 9.000 -119.753
v -0.247 18.000 -119.753
v -0.350 9.000 -120.000
v -0.350 18.000 -120.000
v -0.247 9.000 -120.247
v -0.247 18.000 -120.247
v -0.000 9.000 -120.350
v -0.000 18.000 -120.350
v 0.247 9.000 -120.247
v 0.247 18.000 -120.247
v 0.000 18.000 -120.000
v 0.000 9.000 -120.000
v 0.000 18.000 -120.000
v 5.000 17.200 -120.000
v 5.000 15.000 -120.000
v 0.000 15.500 -120.000
v -9.000 0.000 -73.000
v 9.000 0.000 -73.000
v 9.000 0.000 -95.000
v -9.000 0.000 -95.000
v -9.000 6.000 -95.000
v 9.000 6.000 -95.000
v -9.500 0.000 -144.500
v -6.500 0.000 -144.500
v -6.500 0.000 -141.500
v -9.500 0.000 -141.500
v -9.500 8.000 -144.500
v -6.500 8.000 -144.500
v -6.500 8.000 -141.500
v -9.500 8.000 -141.500
v 6.500 0.000 -144.500
v 9.500 0.000 -144.500
v 9.500 0.000 -141.500
v 6.500 0.000 -141.500
v 6.500 8.000 -144.500
v 9.500 8.000 -144.500
v 9.500 8.000 -141.500
v 6.500 8.000 -141.500
v -7.000 6.000 -144.500
v 7.000 6.000 -144.500
v 7.000 6.000 -141.500
v -7.000 6.000 -141.500
v -7.000 8.000 -144.500
v 7.000 8.000 -144.500
v 7.000 8.000 -141.500
v -7.000 8.000 -141.500
v -25.000 0.000 98.000
v 25.000 0.000 98.000
v 25.000 0.000 126.000
v -25.000 0.000 126.000
v -25.000 6.000 98.000
v 25.000 6.000 98.000
v 25.000 6.000 126.000
v -25.000 6.000 126.000
v -28.000 6.000 126.000
v 28.000 6.000 126.000
v 28.000 6.000 129.000
v -28.000 6.000 129.000
v -28.000 22.000 126.000
v 28.000 22.000 126.000
v 28.000 22.000 129.000
v -28.000 22.000 129.000
v -28.000 6.000 95.000
v -25.000 6.000 95.000
v -25.000 6.000 129.000
v -28.000 6.000 129.000
v -28.000 22.000 95.000
v -25.000 22.000 95.000
v -25.000 22.000 129.000
v -28.000 22.000 129.000
v 25.000 6.000 95.000
v 28.000 6.000 95.000
v 28.000 6.000 129.000
v 25.000 6.000 129.000
v 25.000 22.000 95.000
v 28.000 22.000 95.000
v 28.000 22.000 129.000
v 25.000 22.000 129.000
v -28.000 6.000 95.000
v -8.000 6.000 95.000
v -8.000 6.000 98.000
v -28.000 6.000 98.000
v -28.000 22.000 95.000
v -8.000 22.000 95.000
v -8.000 22.000 98.000
v -28.000 22.000 98.000
v 8.000 6.000 95.000
v 28.000 6.000 95.000
v 28.000 6.000 98.000
v 8.000 6.000 98.000
v 8.000 22.000 95.000
v 28.000 22.000 95.000
v 28.000 22.000 98.000
v 8.000 22.000 98.000
v -8.000 18.000 95.000
v 8.000 18.000 95.000
v 8.000 18.000 98.000
v -8.000 18.000 98.000
v -8.000 22.000 95.000
v 8.000 22.000 95.000
v 8.000 22.000 98.000
v -8.000 22.000 98.000
v -29.500 6.000 93.500
v -22.500 6.000 93.500
v -22.500 6.000 100.500
v -29.500 6.000 100.500
v -29.500 30.000 93.500
v -22.500 30.000 93.500
v -22.500 30.000 100.500
v -29.500 30.000 100.500
v -29.500 6.000 123.500
v -22.500 6.000 123.500
v -22.500 6.000 130.500
v -29.500 6.000 130.500
v -29.500 30.000 123.500
v -22.500 30.000 123.500
v -22.500 30.000 130.500
v -29.500 30.000 130.500
v 22.500 6.000 93.500
v 29.500 6.000 93.500
v 29.500 6.000 100.500
v 22.500 6.000 100.500
v 22.500 30.000 93.500
v 29.500 30.000 93.500
v 29.500 30.000 100.500
v 22.500 30.000 100.500
v 22.500 6.000 123.500
v 29.500 6.000 123.500
v 29.500 6.000 130.500
v 22.500 6.000 130.500
v 22.500 30.000 123.500
v 29.500 30.000 123.500
v 29.500 30.000 130.500
v 22.500 30.000 130.500
v -4.000 6.000 116.000
v 4.000 6.000 116.000
v 4.000 6.000 124.000
v -4.000 6.000 124.000
v -4.000 9.000 116.000
v 4.000 9.000 116.000
v 4.000 9.000 124.000
v -4.000 9.000 124.000
v 0.350 9.000 120.000
v 0.350 18.000 120.000
v 0.247 9.000 120.247
v 0.247 18.000 120.247
v 0.000 9.000 120.350
v 0.000 18.000 120.350
v -0.247 9.000 120.247
v -0.247 18.000 120.247
v -0.350 9.000 120.000
v -0.350 18.000 120.000
v -0.247 9.000 119.753
v -0.247 18.000 119.753
v -0.000 9.000 119.650
v -0.000 18.000 119.650
v 0.247 9.000 119.753
v 0.247 18.000 119.753
v 0.000 18.000 120.000
v 0.000 9.000 120.000
v 0.000 18.000 120.000
v 5.000 17.200 120.000
v 5.000 15.000 120.000
v 0.000 15.500 120.000
v -9.000 0.000 73.000
v 9.000 0.000 73.000
v 9.000 0.000 95.000
v -9.000 0.000 95.000
v -9.000 6.000 95.000
v 9.000 6.000 95.000
v -9.500 0.000 141.500
v -6.500 0.000 141.500
v -6.500 0.000 144.500
v -9.500 0.000 144.500
v -9.500 8.000 141.500
v -6.500 8.000 141.500
v -6.500 8.000 144.500
v -9.500 8.000 144.500
v 6.500 0.000 141.500
v 9.500 0.000 141.500
v 9.500 0.000 144.500
v 6.500 0.000 144.500
v 6.500 8.000 141.500
v 9.500 8.000 141.500
v 9.500 8.000 144.500
v 6.500 8.000 144.500
v -7.000 6.000 141.500
v 7.000 6.000 141.500
v 7.000 6.000 144.500
v -7.000 6.000 144.500
v -7.000 8.000 141.500
v 7.000 8.000 141.500
v 7.000 8.000 144.500
v -7.000 8.000 144.500
v -28.000 0.000 -12.000
v -4.000 0.000 -12.000
v -4.000 0.000 12.000
v -28.000 0.000 12.000
v -28.000 6.000 -12.000
v -4.000 6.000 -12.000
v -4.000 6.000 12.000
v -28.000 6.000 12.000
v -3.400 6.000 0.000
v -7.090 6.000 8.910
v -16.000 6.000 12.600
v -24.910 6.000 8.910
v -28.600 6.000 0.000
v -24.910 6.000 -8.910
v -16.000 6.000 -12.600
v -7.090 6.000 -8.910
v -16.000 9.000 0.000
v 4.000 0.000 -12.000
v 28.000 0.000 -12.000
v 28.000 0.000 12.000
v 4.000 0.000 12.000
v 4.000 6.000 -12.000
v 28.000 6.000 -12.000
v 28.000 6.000 12.000
v 4.000 6.000 12.000
v 28.600 6.000 0.000
v 24.910 6.000 8.910
v 16.000 6.000 12.600
v 7.090 6.000 8.910
v 3.400 6.000 0.000
v 7.090 6.000 -8.910
v 16.000 6.000 -12.600
v 24.910 6.000 -8.910
v 16.000 9.000 0.000
v -29.300 0.000 -60.000
v -29.300 4.000 -60.000
v -29.505 0.000 -59.505
v -29.505 4.000 -59.505
v -30.000 0.000 -59.300
v -30.000 4.000 -59.300
v -30.495 0.000 -59.505
v -30.495 4.000 -59.505
v -30.700 0.000 -60.000
v -30.700 4.000 -60.000
v -30.495 0.000 -60.495
v -30.495 4.000 -60.495
v -30.000 0.000 -60.700
v -30.000 4.000 -60.700
v -29.505 0.000 -60.495
v -29.505 4.000 -60.495
v -30.000 4.000 -60.000
v -30.000 0.000 -60.000
v -26.800 3.000 -60.000
v -27.411 3.000 -58.119
v -29.011 3.000 -56.957
v -30.989 3.000 -56.957
v -32.589 3.000 -58.119
v -33.200 3.000 -60.000
v -32.589 3.000 -61.881
v -30.989 3.000 -63.043
v -29.011 3.000 -63.043
v -27.411 3.000 -61.881
v -30.000 11.000 -60.000
v 30.700 0.000 -60.000
v 30.700 4.000 -60.000
v 30.495 0.000 -59.505
v 30.495 4.000 -59.505
v 30.000 0.000 -59.300
v 30.000 4.000 -59.300
v 29.505 0.000 -59.505
v 29.505 4.000 -59.505
v 29.300 0.000 -60.000
v 29.300 4.000 -60.000
v 29.505 0.000 -60.495
v 29.505 4.000 -60.495
v 30.000 0.000 -60.700
v 30.000 4.000 -60.700
v 30.495 0.000 -60.495
v 30.495 4.000 -60.495
v 30.000 4.000 -60.000
v 30.000 0.000 -60.000
v 33.200 3.000 -60.000
v 32.589 3.000 -58.119
v 30.989 3.000 -56.957
v 29.011 3.000 -56.957
v 27.411 3.000 -58.119
v 26.800 3.000 -60.000
v 27.411 3.000 -61.881
v 29.011 3.000 -63.043
v 30.989 3.000 -63.043
v 32.589 3.000 -61.881
v 30.000 11.000 -60.000
v -33.300 0.000 -20.000
v -33.300 4.000 -20.000
v -33.505 0.000 -19.505
v -33.505 4.000 -19.505
v -34.000 0.000 -19.300
v -34.000 4.000 -19.300
v -34.495 0.000 -19.505
v -34.495 4.000 -19.505
v -34.700 0.000 -20.000
v -34.700 4.000 -20.000
v -34.495 0.000 -20.495
v -34.495 4.000 -20.495
v -34.000 0.000 -20.700
v -34.000 4.000 -20.700
v -33.505 0.000 -20.495
v -33.505 4.000 -20.495
v -34.000 4.000 -20.000
v -34.000 0.000 -20.000
v -30.800 3.000 -20.000
v -31.411 3.000 -18.119
v -33.011 3.000 -16.957
v -34.989 3.000 -16.957
v -36.589 3.000 -18.119
v -37.200 3.000 -20.000
v -36.589 3.000 -21.881
v -34.989 3.000 -23.043
v -33.011 3.000 -23.043
v -31.411 3.000 -21.881
v -34.000 11.000 -20.000
v 34.700 0.000 -20.000
v 34.700 4.000 -20.000
v 34.495 0.000 -19.505
v 34.495 4.000 -19.505
v 34.000 0.000 -19.300
v 34.000 4.000 -19.300
v 33.505 0.000 -19.505
v 33.505 4.000 -19.505
v 33.300 0.000 -20.000
v 33.300 4.000 -20.000
v 33.505 0.000 -20.495
v 33.505 4.000 -20.495
v 34.000 0.000 -20.700
v 34.000 4.000 -20.700
v 34.495 0.000 -20.495
v 34.495 4.000 -20.495
v 34.000 4.000 -20.000
v 34.000 0.000 -20.000
v 37.200 3.000 -20.000
v 36.589 3.000 -18.119
v 34.989 3.000 -16.957
v 33.011 3.000 -16.957
v 31.411 3.000 -18.119
v 30.800 3.000 -20.000
v 31.411 3.000 -21.881
v 33.011 3.000 -23.043
v 34.989 3.000 -23.043
v 36.589 3.000 -21.881
v 34.000 11.000 -20.000
v -21.300 0.000 30.000
v -21.300 4.000 30.000
v -21.505 0.000 30.495
v -21.505 4.000 30.495
v -22.000 0.000 30.700
v -22.000 4.000 30.700
v -22.495 0.000 30.495
v -22.495 4.000 30.495
v -22.700 0.000 30.000
v -22.700 4.000 30.000
v -22.495 0.000 29.505
v -22.495 4.000 29.505
v -22.000 0.000 29.300
v -22.000 4.000 29.300
v -21.505 0.000 29.505
v -21.505 4.000 29.505
v -22.000 4.000 30.000
v -22.000 0.000 30.000
v -18.800 3.000 30.000
v -19.411 3.000 31.881
v -21.011 3.000 33.043
v -22.989 3.000 33.043
v -24.589 3.000 31.881
v -25.200 3.000 30.000
v -24.589 3.000 28.119
v -22.989 3.000 26.957
v -21.011 3.000 26.957
v -19.411 3.000 28.119
v -22.000 11.000 30.000
v 22.700 0.000 30.000
v 22.700 4.000 30.000
v 22.495 0.000 30.495
v 22.495 4.000 30.495
v 22.000 0.000 30.700
v 22.000 4.000 30.700
v 21.505 0.000 30.495
v 21.505 4.000 30.495
v 21.300 0.000 30.000
v 21.300 4.000 30.000
v 21.505 0.000 29.505
v 21.505 4.000 29.505
v 22.000 0.000 29.300
v 22.000 4.000 29.300
v 22.495 0.000 29.505
v 22.495 4.000 29.505
v 22.000 4.000 30.000
v 22.000 0.000 30.000
v 25.200 3.000 30.000
v 24.589 3.000 31.881
v 22.989 3.000 33.043
v 21.011 3.000 33.043
v 19.411 3.000 31.881
v 18.800 3.000 30.000
v 19.411 3.000 28.119
v 21.011 3.000 26.957
v 22.989 3.000 26.957
v 24.589 3.000 28.119
v 22.000 11.000 30.000
v -29.300 0.000 60.000
v -29.300 4.000 60.000
v -29.505 0.000 60.495
v -29.505 4.000 60.495
v -30.000 0.000 60.700
v -30.000 4.000 60.700
v -30.495 0.000 60.495
v -30.495 4.000 60.495
v -30.700 0.000 60.000
v -30.700 4.000 60.000
v -30.495 0.000 59.505
v -30.495 4.000 59.505
v -30.000 0.000 59.300
v -30.000 4.000 59.300
v -29.505 0.000 59.505
v -29.505 4.000 59.505
v -30.000 4.000 60.000
v -30.000 0.000 60.000
v -26.800 3.000 60.000
v -27.411 3.000 61.881
v -29.011 3.000 63.043
v -30.989 3.000 63.043
v -32.589 3.000 61.881
v -33.200 3.000 60.000
v -32.589 3.000 58.119
v -30.989 3.000 56.957
v -29.011 3.000 56.957
v -27.411 3.000 58.119
v -30.000 11.000 60.000
v 30.700 0.000 60.000
v 30.700 4.000 60.000
v 30.495 0.000 60.495
v 30.495 4.000 60.495
v 30.000 0.000 60.700
v 30.000 4.000 60.700
v 29.505 0.000 60.495
v 29.505 4.000 60.495
v 29.300 0.000 60.000
v 29.300 4.000 60.000
v 29.505 0.000 59.505
v 29.505 4.000 59.505
v 30.000 0.000 59.300
v 30.000 4.000 59.300
v 30.495 0.000 59.505
v 30.495 4.000 59.505
v 30.000 4.000 60.000
v 30.000 0.000 60.000
v 33.200 3.000 60.000
v 32.589 3.000 61.881
v 30.989 3.000 63.043
v 29.011 3.000 63.043
v 27.411 3.000 61.881
v 26.800 3.000 60.000
v 27.411 3.000 58.119
v 29.011 3.000 56.957
v 30.989 3.000 56.957
v 32.589 3.000 58.119
v 30.000 11.000 60.000
v -17.440 0.000 0.000
v -17.440 3.200 0.000
v -17.604 0.000 0.396
v -17.604 3.200 0.396
v -18.000 0.000 0.560
v -18.000 3.200 0.560
v -18.396 0.000 0.396
v -18.396 3.200 0.396
v -18.560 0.000 0.000
v -18.560 3.200 0.000
v -18.396 0.000 -0.396
v -18.396 3.200 -0.396
v -18.000 0.000 -0.560
v -18.000 3.200 -0.560
v -17.604 0.000 -0.396
v -17.604 3.200 -0.396
v -18.000 3.200 0.000
v -18.000 0.000 0.000
v -15.440 2.400 0.000
v -15.929 2.400 1.505
v -17.209 2.400 2.435
v -18.791 2.400 2.435
v -20.071 2.400 1.505
v -20.560 2.400 0.000
v -20.071 2.400 -1.505
v -18.791 2.400 -2.435
v -17.209 2.400 -2.435
v -15.929 2.400 -1.505
v -18.000 8.800 0.000
v 18.560 0.000 0.000
v 18.560 3.200 0.000
v 18.396 0.000 0.396
v 18.396 3.200 0.396
v 18.000 0.000 0.560
v 18.000 3.200 0.560
v 17.604 0.000 0.396
v 17.604 3.200 0.396
v 17.440 0.000 0.000
v 17.440 3.200 0.000
v 17.604 0.000 -0.396
v 17.604 3.200 -0.396
v 18.000 0.000 -0.560
v 18.000 3.200 -0.560
v 18.396 0.000 -0.396
v 18.396 3.200 -0.396
v 18.000 3.200 0.000
v 18.000 0.000 0.000
v 20.560 2.400 0.000
v 20.071 2.400 1.505
v 18.791 2.400 2.435
v 17.209 2.400 2.435
v 15.929 2.400 1.505
v 15.440 2.400 0.000
v 15.929 2.400 -1.505
v 17.209 2.400 -2.435
v 18.791 2.400 -2.435
v 20.071 2.400 -1.505
v 18.000 8.800 0.000
v -35.300 0.000 90.000
v -35.300 4.000 90.000
v -35.505 0.000 90.495
v -35.505 4.000 90.495
v -36.000 0.000 90.700
v -36.000 4.000 90.700
v -36.495 0.000 90.495
v -36.495 4.000 90.495
v -36.700 0.000 90.000
v -36.700 4.000 90.000
v -36.495 0.000 89.505
v -36.495 4.000 89.505
v -36.000 0.000 89.300
v -36.000 4.000 89.300
v -35.505 0.000 89.505
v -35.505 4.000 89.505
v -36.000 4.000 90.000
v -36.000 0.000 90.000
v -32.800 3.000 90.000
v -33.411 3.000 91.881
v -35.011 3.000 93.043
v -36.989 3.000 93.043
v -38.589 3.000 91.881
v -39.200 3.000 90.000
v -38.589 3.000 88.119
v -36.989 3.000 86.957
v -35.011 3.000 86.957
v -33.411 3.000 88.119
v -36.000 11.000 90.000
v 36.700 0.000 90.000
v 36.700 4.000 90.000
v 36.495 0.000 90.495
v 36.495 4.000 90.495
v 36.000 0.000 90.700
v 36.000 4.000 90.700
v 35.505 0.000 90.495
v 35.505 4.000 90.495
v 35.300 0.000 90.000
v 35.300 4.000 90.000
v 35.505 0.000 89.505
v 35.505 4.000 89.505
v 36.000 0.000 89.300
v 36.000 4.000 89.300
v 36.495 0.000 89.505
v 36.495 4.000 89.505
v 36.000 4.000 90.000
v 36.000 0.000 90.000
v 39.200 3.000 90.000
v 38.589 3.000 91.881
v 36.989 3.000 93.043
v 35.011 3.000 93.043
v 33.411 3.000 91.881
v 32.800 3.000 90.000
v 33.411 3.000 88.119
v 35.011 3.000 86.957
v 36.989 3.000 86.957
v 38.589 3.000 88.119
v 36.000 11.000 90.000
v -35.300 0.000 -90.000
v -35.300 4.000 -90.000
v -35.505 0.000 -89.505
v -35.505 4.000 -89.505
v -36.000 0.000 -89.300
v -36.000 4.000 -89.300
v -36.495 0.000 -89.505
v -36.495 4.000 -89.505
v -36.700 0.000 -90.000
v -36.700 4.000 -90.000
v -36.495 0.000 -90.495
v -36.495 4.000 -90.495
v -36.000 0.000 -90.700
v -36.000 4.000 -90.700
v -35.505 0.000 -90.495
v -35.505 4.000 -90.495
v -36.000 4.000 -90.000
v -36.000 0.000 -90.000
v -32.800 3.000 -90.000
v -33.411 3.000 -88.119
v -35.011 3.000 -86.957
v -36.989 3.000 -86.957
v -38.589 3.000 -88.119
v -39.200 3.000 -90.000
v -38.589 3.000 -91.881
v -36.989 3.000 -93.043
v -35.011 3.000 -93.043
v -33.411 3.000 -91.881
v -36.000 11.000 -90.000
v 36.700 0.000 -90.000
v 36.700 4.000 -90.000
v 36.495 0.000 -89.505
v 36.495 4.000 -89.505
v 36.000 0.000 -89.300
v 36.000 4.000 -89.300
v 35.505 0.000 -89.505
v 35.505 4.000 -89.505
v 35.300 0.000 -90.000
v 35.300 4.000 -90.000
v 35.505 0.000 -90.495
v 35.505 4.000 -90.495
v 36.000 0.000 -90.700
v 36.000 4.000 -90.700
v 36.495 0.000 -90.495
v 36.495 4.000 -90.495
v 36.000 4.000 -90.000
v 36.000 0.000 -90.000
v 39.200 3.000 -90.000
v 38.589 3.000 -88.119
v 36.989 3.000 -86.957
v 35.011 3.000 -86.957
v 33.411 3.000 -88.119
v 32.800 3.000 -90.000
v 33.411 3.000 -91.881
v 35.011 3.000 -93.043
v 36.989 3.000 -93.043
v 38.589 3.000 -91.881
v 36.000 11.000 -90.000
v -12.000 4.750 -4.000
v 12.000 4.750 -4.000
v 12.000 4.750 4.000
v -12.000 4.750 4.000
v -12.000 6.250 -4.000
v 12.000 6.250 -4.000
v 12.000 6.250 4.000
v -12.000 6.250 4.000
v -10.750 0.000 -3.750
v -9.250 0.000 -3.750
v -9.250 0.000 -2.250
v -10.750 0.000 -2.250
v -10.750 5.000 -3.750
v -9.250 5.000 -3.750
v -9.250 5.000 -2.250
v -10.750 5.000 -2.250
v -10.750 0.000 2.250
v -9.250 0.000 2.250
v -9.250 0.000 3.750
v -10.750 0.000 3.750
v -10.750 5.000 2.250
v -9.250 5.000 2.250
v -9.250 5.000 3.750
v -10.750 5.000 3.750
v 9.250 0.000 -3.750
v 10.750 0.000 -3.750
v 10.750 0.000 -2.250
v 9.250 0.000 -2.250
v 9.250 5.000 -3.750
v 10.750 5.000 -3.750
v 10.750 5.000 -2.250
v 9.250 5.000 -2.250
v 9.250 0.000 2.250
v 10.750 0.000 2.250
v 10.750 0.000 3.750
v 9.250 0.000 3.750
v 9.250 5.000 2.250
v 10.750 5.000 2.250
v 10.750 5.000 3.750
v 9.250 5.000 3.750

usemtl ground
f 5 6 7 8
f 1 4 3 2
f 1 2 6 5
f 2 3 7 6
f 3 4 8 7
f 4 1 5 8
f 477 478 479 480
f 473 476 475 474
f 473 474 478 477
f 474 475 479 478
f 475 476 480 479
f 476 473 477 480
f 481 482 489
f 482 483 489
f 483 484 489
f 484 485 489
f 485 486 489
f 486 487 489
f 487 488 489
f 488 481 489
f 494 495 496 497
f 490 493 492 491
f 490 491 495 494
f 491 492 496 495
f 492 493 497 496
f 493 490 494 497
f 498 499 506
f 499 500 506
f 500 501 506
f 501 502 506
f 502 503 506
f 503 504 506
f 504 505 506
f 505 498 506

usemtl water
f 13 14 15 16
f 9 12 11 10
f 9 10 14 13
f 10 11 15 14
f 11 12 16 15
f 12 9 13 16

usemtl cliff
f 21 22 23 24
f 17 20 19 18
f 17 18 22 21
f 18 19 23 22
f 19 20 24 23
f 20 17 21 24
f 29 30 31 32
f 25 28 27 26
f 25 26 30 29
f 26 27 31 30
f 27 28 32 31
f 28 25 29 32
f 37 38 39 40
f 33 36 35 34
f 33 34 38 37
f 34 35 39 38
f 35 36 40 39
f 36 33 37 40
f 45 46 47 48
f 41 44 43 42
f 41 42 46 45
f 42 43 47 46
f 43 44 48 47
f 44 41 45 48
f 53 54 55 56
f 49 52 51 50
f 49 50 54 53
f 50 51 55 54
f 51 52 56 55
f 52 49 53 56
f 61 62 63 64
f 57 60 59 58
f 57 58 62 61
f 58 59 63 62
f 59 60 64 63
f 60 57 61 64
f 69 70 71 72
f 65 68 67 66
f 65 66 70 69
f 66 67 71 70
f 67 68 72 71
f 68 65 69 72
f 77 78 79 80
f 73 76 75 74
f 73 74 78 77
f 74 75 79 78
f 75 76 80 79
f 76 73 77 80
f 85 86 87 88
f 81 84 83 82
f 81 82 86 85
f 82 83 87 86
f 83 84 88 87
f 84 81 85 88
f 93 94 95 96
f 89 92 91 90
f 89 90 94 93
f 90 91 95 94
f 91 92 96 95
f 92 89 93 96
f 101 102 103 104
f 97 100 99 98
f 97 98 102 101
f 98 99 103 102
f 99 100 104 103
f 100 97 101 104
f 109 110 111 112
f 105 108 107 106
f 105 106 110 109
f 106 107 111 110
f 107 108 112 111
f 108 105 109 112
f 117 118 119 120
f 113 116 115 114
f 113 114 118 117
f 114 115 119 118
f 115 116 120 119
f 116 113 117 120
f 125 126 127 128
f 121 124 123 122
f 121 122 126 125
f 122 123 127 126
f 123 124 128 127
f 124 121 125 128
f 133 134 135 136
f 129 132 131 130
f 129 130 134 133
f 130 131 135 134
f 131 132 136 135
f 132 129 133 136
f 141 142 143 144
f 137 140 139 138
f 137 138 142 141
f 138 139 143 142
f 139 140 144 143
f 140 137 141 144
f 149 150 151 152
f 145 148 147 146
f 145 146 150 149
f 146 147 151 150
f 147 148 152 151
f 148 145 149 152
f 157 158 159 160
f 153 156 155 154
f 153 154 158 157
f 154 155 159 158
f 155 156 160 159
f 156 153 157 160
f 165 166 167 168
f 161 164 163 162
f 161 162 166 165
f 162 163 167 166
f 163 164 168 167
f 164 161 165 168
f 173 174 175 176
f 169 172 171 170
f 169 170 174 173
f 170 171 175 174
f 171 172 176 175
f 172 169 173 176

usemtl keep_blue
f 181 182 183 184
f 177 180 179 178
f 177 178 182 181
f 178 179 183 182
f 179 180 184 183
f 180 177 181 184
f 189 190 191 192
f 185 188 187 186
f 185 186 190 189
f 186 187 191 190
f 187 188 192 191
f 188 185 189 192
f 197 198 199 200
f 193 196 195 194
f 193 194 198 197
f 194 195 199 198
f 195 196 200 199
f 196 193 197 200
f 205 206 207 208
f 201 204 203 202
f 201 202 206 205
f 202 203 207 206
f 203 204 208 207
f 204 201 205 208
f 213 214 215 216
f 209 212 211 210
f 209 210 214 213
f 210 211 215 214
f 211 212 216 215
f 212 209 213 216
f 221 222 223 224
f 217 220 219 218
f 217 218 222 221
f 218 219 223 222
f 219 220 224 223
f 220 217 221 224
f 229 230 231 232
f 225 228 227 226
f 225 226 230 229
f 226 227 231 230
f 227 228 232 231
f 228 225 229 232
f 237 238 239 240
f 233 236 235 234
f 233 234 238 237
f 234 235 239 238
f 235 236 240 239
f 236 233 237 240
f 245 246 247 248
f 241 244 243 242
f 241 242 246 245
f 242 243 247 246
f 243 244 248 247
f 244 241 245 248
f 253 254 255 256
f 249 252 251 250
f 249 250 254 253
f 250 251 255 254
f 251 252 256 255
f 252 249 253 256
f 261 262 263 264
f 257 260 259 258
f 257 258 262 261
f 258 259 263 262
f 259 260 264 263
f 260 257 261 264

usemtl metal
f 269 270 271 272
f 265 268 267 266
f 265 266 270 269
f 266 267 271 270
f 267 268 272 271
f 268 265 269 272
f 273 275 276 274
f 275 277 278 276
f 277 279 280 278
f 279 281 282 280
f 281 283 284 282
f 283 285 286 284
f 285 287 288 286
f 287 273 274 288
f 274 276 289
f 275 273 290
f 276 278 289
f 277 275 290
f 278 280 289
f 279 277 290
f 280 282 289
f 281 279 290
f 282 284 289
f 283 281 290
f 284 286 289
f 285 283 290
f 286 288 289
f 287 285 290
f 288 274 289
f 273 287 290
f 417 418 419 420
f 413 416 415 414
f 413 414 418 417
f 414 415 419 418
f 415 416 420 419
f 416 413 417 420
f 421 423 424 422
f 423 425 426 424
f 425 427 428 426
f 427 429 430 428
f 429 431 432 430
f 431 433 434 432
f 433 435 436 434
f 435 421 422 436
f 422 424 437
f 423 421 438
f 424 426 437
f 425 423 438
f 426 428 437
f 427 425 438
f 428 430 437
f 429 427 438
f 430 432 437
f 431 429 438
f 432 434 437
f 433 431 438
f 434 436 437
f 435 433 438
f 436 422 437
f 421 435 438

usemtl flag_blue
f 291 292 293 294
f 294 293 292 291

usemtl stone
f 295 296 297 298
f 298 297 300 299
f 295 298 299
f 296 300 297
f 296 297 300
f 295 299 300 296
f 305 306 307 308
f 301 304 303 302
f 301 302 306 305
f 302 303 307 306
f 303 304 308 307
f 304 301 305 308
f 313 314 315 316
f 309 312 311 310
f 309 310 314 313
f 310 311 315 314
f 311 312 316 315
f 312 309 313 316
f 321 322 323 324
f 317 320 319 318
f 317 318 322 321
f 318 319 323 322
f 319 320 324 323
f 320 317 321 324
f 443 444 445 446
f 446 445 448 447
f 443 446 447
f 444 448 445
f 444 445 448
f 443 447 448 444
f 453 454 455 456
f 449 452 451 450
f 449 450 454 453
f 450 451 455 454
f 451 452 456 455
f 452 449 453 456
f 461 462 463 464
f 457 460 459 458
f 457 458 462 461
f 458 459 463 462
f 459 460 464 463
f 460 457 461 464
f 469 470 471 472
f 465 468 467 466
f 465 466 470 469
f 466 467 471 470
f 467 468 472 471
f 468 465 469 472

usemtl keep_red
f 329 330 331 332
f 325 328 327 326
f 325 326 330 329
f 326 327 331 330
f 327 328 332 331
f 328 325 329 332
f 337 338 339 340
f 333 336 335 334
f 333 334 338 337
f 334 335 339 338
f 335 336 340 339
f 336 333 337 340
f 345 346 347 348
f 341 344 343 342
f 341 342 346 345
f 342 343 347 346
f 343 344 348 347
f 344 341 345 348
f 353 354 355 356
f 349 352 351 350
f 349 350 354 353
f 350 351 355 354
f 351 352 356 355
f 352 349 353 356
f 361 362 363 364
f 357 360 359 358
f 357 358 362 361
f 358 359 363 362
f 359 360 364 363
f 360 357 361 364
f 369 370 371 372
f 365 368 367 366
f 365 366 370 369
f 366 367 371 370
f 367 368 372 371
f 368 365 369 372
f 377 378 379 380
f 373 376 375 374
f 373 374 378 377
f 374 375 379 378
f 375 376 380 379
f 376 373 377 380
f 385 386 387 388
f 381 384 383 382
f 381 382 386 385
f 382 383 387 386
f 383 384 388 387
f 384 381 385 388
f 393 394 395 396
f 389 392 391 390
f 389 390 394 393
f 390 391 395 394
f 391 392 396 395
f 392 389 393 396
f 401 402 403 404
f 397 400 399 398
f 397 398 402 401
f 398 399 403 402
f 399 400 404 403
f 400 397 401 404
f 409 410 411 412
f 405 408 407 406
f 405 406 410 409
f 406 407 411 410
f 407 408 412 411
f 408 405 409 412

usemtl flag_red
f 439 440 441 442
f 442 441 440 439

usemtl wood
f 507 509 510 508
f 509 511 512 510
f 511 513 514 512
f 513 515 516 514
f 515 517 518 516
f 517 519 520 518
f 519 521 522 520
f 521 507 508 522
f 508 510 523
f 509 507 524
f 510 512 523
f 511 509 524
f 512 514 523
f 513 511 524
f 514 516 523
f 515 513 524
f 516 518 523
f 517 515 524
f 518 520 523
f 519 517 524
f 520 522 523
f 521 519 524
f 522 508 523
f 507 521 524
f 536 538 539 537
f 538 540 541 539
f 540 542 543 541
f 542 544 545 543
f 544 546 547 545
f 546 548 549 547
f 548 550 551 549
f 550 536 537 551
f 537 539 552
f 538 536 553
f 539 541 552
f 540 538 553
f 541 543 552
f 542 540 553
f 543 545 552
f 544 542 553
f 545 547 552
f 546 544 553
f 547 549 552
f 548 546 553
f 549 551 552
f 550 548 553
f 551 537 552
f 536 550 553
f 565 567 568 566
f 567 569 570 568
f 569 571 572 570
f 571 573 574 572
f 573 575 576 574
f 575 577 578 576
f 577 579 580 578
f 579 565 566 580
f 566 568 581
f 567 565 582
f 568 570 581
f 569 567 582
f 570 572 581
f 571 569 582
f 572 574 581
f 573 571 582
f 574 576 581
f 575 573 582
f 576 578 581
f 577 575 582
f 578 580 581
f 579 577 582
f 580 566 581
f 565 579 582
f 594 596 597 595
f 596 598 599 597
f 598 600 601 599
f 600 602 603 601
f 602 604 605 603
f 604 606 607 605
f 606 608 609 607
f 608 594 595 609
f 595 597 610
f 596 594 611
f 597 599 610
f 598 596 611
f 599 601 610
f 600 598 611
f 601 603 610
f 602 600 611
f 603 605 610
f 604 602 611
f 605 607 610
f 606 604 611
f 607 609 610
f 608 606 611
f 609 595 610
f 594 608 611
f 623 625 626 624
f 625 627 628 626
f 627 629 630 628
f 629 631 632 630
f 631 633 634 632
f 633 635 636 634
f 635 637 638 636
f 637 623 624 638
f 624 626 639
f 625 623 640
f 626 628 639
f 627 625 640
f 628 630 639
f 629 627 640
f 630 632 639
f 631 629 640
f 632 634 639
f 633 631 640
f 634 636 639
f 635 633 640
f 636 638 639
f 637 635 640
f 638 624 639
f 623 637 640
f 652 654 655 653
f 654 656 657 655
f 656 658 659 657
f 658 660 661 659
f 660 662 663 661
f 662 664 665 663
f 664 666 667 665
f 666 652 653 667
f 653 655 668
f 654 652 669
f 655 657 668
f 656 654 669
f 657 659 668
f 658 656 669
f 659 661 668
f 660 658 669
f 661 663 668
f 662 660 669
f 663 665 668
f 664 662 669
f 665 667 668
f 666 664 669
f 667 653 668
f 652 666 669
f 681 683 684 682
f 683 685 686 684
f 685 687 688 686
f 687 689 690 688
f 689 691 692 690
f 691 693 694 692
f 693 695 696 694
f 695 681 682 696
f 682 684 697
f 683 681 698
f 684 686 697
f 685 683 698
f 686 688 697
f 687 685 698
f 688 690 697
f 689 687 698
f 690 692 697
f 691 689 698
f 692 694 697
f 693 691 698
f 694 696 697
f 695 693 698
f 696 682 697
f 681 695 698
f 710 712 713 711
f 712 714 715 713
f 714 716 717 715
f 716 718 719 717
f 718 720 721 719
f 720 722 723 721
f 722 724 725 723
f 724 710 711 725
f 711 713 726
f 712 710 727
f 713 715 726
f 714 712 727
f 715 717 726
f 716 714 727
f 717 719 726
f 718 716 727
f 719 721 726
f 720 718 727
f 721 723 726
f 722 720 727
f 723 725 726
f 724 722 727
f 725 711 726
f 710 724 727
f 739 741 742 740
f 741 743 744 742
f 743 745 746 744
f 745 747 748 746
f 747 749 750 748
f 749 751 752 750
f 751 753 754 752
f 753 739 740 754
f 740 742 755
f 741 739 756
f 742 744 755
f 743 741 756
f 744 746 755
f 745 743 756
f 746 748 755
f 747 745 756
f 748 750 755
f 749 747 756
f 750 752 755
f 751 749 756
f 752 754 755
f 753 751 756
f 754 740 755
f 739 753 756
f 768 770 771 769
f 770 772 773 771
f 772 774 775 773
f 774 776 777 775
f 776 778 779 777
f 778 780 781 779
f 780 782 783 781
f 782 768 769 783
f 769 771 784
f 770 768 785
f 771 773 784
f 772 770 785
f 773 775 784
f 774 772 785
f 775 777 784
f 776 774 785
f 777 779 784
f 778 776 785
f 779 781 784
f 780 778 785
f 781 783 784
f 782 780 785
f 783 769 784
f 768 782 785
f 797 799 800 798
f 799 801 802 800
f 801 803 804 802
f 803 805 806 804
f 805 807 808 806
f 807 809 810 808
f 809 811 812 810
f 811 797 798 812
f 798 800 813
f 799 797 814
f 800 802 813
f 801 799 814
f 802 804 813
f 803 801 814
f 804 806 813
f 805 803 814
f 806 808 813
f 807 805 814
f 808 810 813
f 809 807 814
f 810 812 813
f 811 809 814
f 812 798 813
f 797 811 814
f 826 828 829 827
f 828 830 831 829
f 830 832 833 831
f 832 834 835 833
f 834 836 837 835
f 836 838 839 837
f 838 840 841 839
f 840 826 827 841
f 827 829 842
f 828 826 843
f 829 831 842
f 830 828 843
f 831 833 842
f 832 830 843
f 833 835 842
f 834 832 843
f 835 837 842
f 836 834 843
f 837 839 842
f 838 836 843
f 839 841 842
f 840 838 843
f 841 827 842
f 826 840 843
f 855 857 858 856
f 857 859 860 858
f 859 861 862 860
f 861 863 864 862
f 863 865 866 864
f 865 867 868 866
f 867 869 870 868
f 869 855 856 870
f 856 858 871
f 857 855 872
f 858 860 871
f 859 857 872
f 860 862 871
f 861 859 872
f 862 864 871
f 863 861 872
f 864 866 871
f 865 863 872
f 866 868 871
f 867 865 872
f 868 870 871
f 869 867 872
f 870 856 871
f 855 869 872
f 884 886 887 885
f 886 888 889 887
f 888 890 891 889
f 890 892 893 891
f 892 894 895 893
f 894 896 897 895
f 896 898 899 897
f 898 884 885 899
f 885 887 900
f 886 884 901
f 887 889 900
f 888 886 901
f 889 891 900
f 890 888 901
f 891 893 900
f 892 890 901
f 893 895 900
f 894 892 901
f 895 897 900
f 896 894 901
f 897 899 900
f 898 896 901
f 899 885 900
f 884 898 901
f 917 918 919 920
f 913 916 915 914
f 913 914 918 917
f 914 915 919 918
f 915 916 920 919
f 916 913 917 920
f 925 926 927 928
f 921 924 923 922
f 921 922 926 925
f 922 923 927 926
f 923 924 928 927
f 924 921 925 928
f 933 934 935 936
f 929 932 931 930
f 929 930 934 933
f 930 931 935 934
f 931 932 936 935
f 932 929 933 936
f 941 942 943 944
f 937 940 939 938
f 937 938 942 941
f 938 939 943 942
f 939 940 944 943
f 940 937 941 944
f 949 950 951 952
f 945 948 947 946
f 945 946 950 949
f 946 947 951 950
f 947 948 952 951
f 948 945 949 952

usemtl leaves
f 525 526 535
f 526 527 535
f 527 528 535
f 528 529 535
f 529 530 535
f 530 531 535
f 531 532 535
f 532 533 535
f 533 534 535
f 534 525 535
f 554 555 564
f 555 556 564
f 556 557 564
f 557 558 564
f 558 559 564
f 559 560 564
f 560 561 564
f 561 562 564
f 562 563 564
f 563 554 564
f 583 584 593
f 584 585 593
f 585 586 593
f 586 587 593
f 587 588 593
f 588 589 593
f 589 590 593
f 590 591 593
f 591 592 593
f 592 583 593
f 612 613 622
f 613 614 622
f 614 615 622
f 615 616 622
f 616 617 622
f 617 618 622
f 618 619 622
f 619 620 622
f 620 621 622
f 621 612 622
f 641 642 651
f 642 643 651
f 643 644 651
f 644 645 651
f 645 646 651
f 646 647 651
f 647 648 651
f 648 649 651
f 649 650 651
f 650 641 651
f 670 671 680
f 671 672 680
f 672 673 680
f 673 674 680
f 674 675 680
f 675 676 680
f 676 677 680
f 677 678 680
f 678 679 680
f 679 670 680
f 699 700 709
f 700 701 709
f 701 702 709
f 702 703 709
f 703 704 709
f 704 705 709
f 705 706 709
f 706 707 709
f 707 708 709
f 708 699 709
f 728 729 738
f 729 730 738
f 730 731 738
f 731 732 738
f 732 733 738
f 733 734 738
f 734 735 738
f 735 736 738
f 736 737 738
f 737 728 738
f 757 758 767
f 758 759 767
f 759 760 767
f 760 761 767
f 761 762 767
f 762 763 767
f 763 764 767
f 764 765 767
f 765 766 767
f 766 757 767
f 786 787 796
f 787 788 796
f 788 789 796
f 789 790 796
f 790 791 796
f 791 792 796
f 792 793 796
f 793 794 796
f 794 795 796
f 795 786 796
f 815 816 825
f 816 817 825
f 817 818 825
f 818 819 825
f 819 820 825
f 820 821 825
f 821 822 825
f 822 823 825
f 823 824 825
f 824 815 825
f 844 845 854
f 845 846 854
f 846 847 854
f 847 848 854
f 848 849 854
f 849 850 854
f 850 851 854
f 851 852 854
f 852 853 854
f 853 844 854
f 873 874 883
f 874 875 883
f 875 876 883
f 876 877 883
f 877 878 883
f 878 879 883
f 879 880 883
f 880 881 883
f 881 882 883
f 882 873 883
f 902 903 912
f 903 904 912
f 904 905 912
f 905 906 912
f 906 907 912
f 907 908 912
f 908 909 912
f 909 910 912
f 910 911 912
f 911 902 912

