# Procedural cat
o Cat
v 0.00000 0.10000 0.00000
v 0.00000 0.10000 0.00000
v 0.00000 0.10000 0.00000
v 0.00000 0.10000 0.00000
v 0.00000 0.10000 0.00000
v -0.00000 0.10000 0.00000
v -0.00000 0.10000 0.00000
v -0.00000 0.10000 0.00000
v -0.00000 0.10000 0.00000
v -0.00000 0.10000 0.00000
v -0.00000 0.10000 -0.00000
v -0.00000 0.10000 -0.00000
v -0.00000 0.10000 -0.00000
v -0.00000 0.10000 -0.00000
v 0.00000 0.10000 -0.00000
v 0.00000 0.10000 -0.00000
v 0.00000 0.10000 -0.00000
v 0.00000 0.10000 -0.00000
v 0.12239 0.11128 0.00000
v 0.11501 0.11128 0.06850
v 0.09375 0.11128 0.12873
v 0.06119 0.11128 0.17344
v 0.02125 0.11128 0.19723
v -0.02125 0.11128 0.19723
v -0.06119 0.11128 0.17344
v -0.09375 0.11128 0.12873
v -0.11501 0.11128 0.06850
v -0.12239 0.11128 0.00000
v -0.11501 0.11128 -0.06850
v -0.09375 0.11128 -0.12873
v -0.06119 0.11128 -0.17344
v -0.02125 0.11128 -0.19723
v 0.02125 0.11128 -0.19723
v 0.06119 0.11128 -0.17344
v 0.09375 0.11128 -0.12873
v 0.11501 0.11128 -0.06850
v 0.23864 0.14456 0.00000
v 0.22424 0.14456 0.13356
v 0.18281 0.14456 0.25101
v 0.11932 0.14456 0.33818
v 0.04144 0.14456 0.38456
v -0.04144 0.14456 0.38456
v -0.11932 0.14456 0.33818
v -0.18281 0.14456 0.25101
v -0.22424 0.14456 0.13356
v -0.23864 0.14456 0.00000
v -0.22424 0.14456 -0.13356
v -0.18281 0.14456 -0.25101
v -0.11932 0.14456 -0.33818
v -0.04144 0.14456 -0.38456
v 0.04144 0.14456 -0.38456
v 0.11932 0.14456 -0.33818
v 0.18281 0.14456 -0.25101
v 0.22424 0.14456 -0.13356
v 0.34292 0.19818 0.00000
v 0.32224 0.19818 0.19192
v 0.26269 0.19818 0.36069
v 0.17146 0.19818 0.48596
v 0.05955 0.19818 0.55262
v -0.05955 0.19818 0.55262
v -0.17146 0.19818 0.48596
v -0.26269 0.19818 0.36069
v -0.32224 0.19818 0.19192
v -0.34292 0.19818 0.00000
v -0.32224 0.19818 -0.19192
v -0.26269 0.19818 -0.36069
v -0.17146 0.19818 -0.48596
v -0.05955 0.19818 -0.55262
v 0.05955 0.19818 -0.55262
v 0.17146 0.19818 -0.48596
v 0.26269 0.19818 -0.36069
v 0.32224 0.19818 -0.19192
v 0.43001 0.26943 0.00000
v 0.40407 0.26943 0.24066
v 0.32940 0.26943 0.45230
v 0.21500 0.26943 0.60938
v 0.07467 0.26943 0.69296
v -0.07467 0.26943 0.69296
v -0.21500 0.26943 0.60938
v -0.32940 0.26943 0.45230
v -0.40407 0.26943 0.24066
v -0.43001 0.26943 0.00000
v -0.40407 0.26943 -0.24066
v -0.32940 0.26943 -0.45230
v -0.21500 0.26943 -0.60938
v -0.07467 0.26943 -0.69296
v 0.07467 0.26943 -0.69296
v 0.21500 0.26943 -0.60938
v 0.32940 0.26943 -0.45230
v 0.40407 0.26943 -0.24066
v 0.49553 0.35475 0.00000
v 0.46565 0.35475 0.27733
v 0.37960 0.35475 0.52122
v 0.24777 0.35475 0.70224
v 0.08605 0.35475 0.79855
v -0.08605 0.35475 0.79855
v -0.24777 0.35475 0.70224
v -0.37960 0.35475 0.52122
v -0.46565 0.35475 0.27733
v -0.49553 0.35475 0.00000
v -0.46565 0.35475 -0.27733
v -0.37960 0.35475 -0.52122
v -0.24777 0.35475 -0.70224
v -0.08605 0.35475 -0.79855
v 0.08605 0.35475 -0.79855
v 0.24777 0.35475 -0.70224
v 0.37960 0.35475 -0.52122
v 0.46565 0.35475 -0.27733
v 0.53621 0.44987 0.00000
v 0.50387 0.44987 0.30010
v 0.41076 0.44987 0.56400
v 0.26811 0.44987 0.75988
v 0.09311 0.44987 0.86410
v -0.09311 0.44987 0.86410
v -0.26811 0.44987 0.75988
v -0.41076 0.44987 0.56400
v -0.50387 0.44987 0.30010
v -0.53621 0.44987 0.00000
v -0.50387 0.44987 -0.30010
v -0.41076 0.44987 -0.56400
v -0.26811 0.44987 -0.75988
v -0.09311 0.44987 -0.86410
v 0.09311 0.44987 -0.86410
v 0.26811 0.44987 -0.75988
v 0.41076 0.44987 -0.56400
v 0.50387 0.44987 -0.30010
v 0.55000 0.55000 0.00000
v 0.51683 0.55000 0.30782
v 0.42132 0.55000 0.57851
v 0.27500 0.55000 0.77942
v 0.09551 0.55000 0.88633
v -0.09551 0.55000 0.88633
v -0.27500 0.55000 0.77942
v -0.42132 0.55000 0.57851
v -0.51683 0.55000 0.30782
v -0.55000 0.55000 0.00000
v -0.51683 0.55000 -0.30782
v -0.42132 0.55000 -0.57851
v -0.27500 0.55000 -0.77942
v -0.09551 0.55000 -0.88633
v 0.09551 0.55000 -0.88633
v 0.27500 0.55000 -0.77942
v 0.42132 0.55000 -0.57851
v 0.51683 0.55000 -0.30782
v 0.53621 0.65013 0.00000
v 0.50387 0.65013 0.30010
v 0.41076 0.65013 0.56400
v 0.26811 0.65013 0.75988
v 0.09311 0.65013 0.86410
v -0.09311 0.65013 0.86410
v -0.26811 0.65013 0.75988
v -0.41076 0.65013 0.56400
v -0.50387 0.65013 0.30010
v -0.53621 0.65013 0.00000
v -0.50387 0.65013 -0.30010
v -0.41076 0.65013 -0.56400
v -0.26811 0.65013 -0.75988
v -0.09311 0.65013 -0.86410
v 0.09311 0.65013 -0.86410
v 0.26811 0.65013 -0.75988
v 0.41076 0.65013 -0.56400
v 0.50387 0.65013 -0.30010
v 0.49553 0.74525 0.00000
v 0.46565 0.74525 0.27733
v 0.37960 0.74525 0.52122
v 0.24777 0.74525 0.70224
v 0.08605 0.74525 0.79855
v -0.08605 0.74525 0.79855
v -0.24777 0.74525 0.70224
v -0.37960 0.74525 0.52122
v -0.46565 0.74525 0.27733
v -0.49553 0.74525 0.00000
v -0.46565 0.74525 -0.27733
v -0.37960 0.74525 -0.52122
v -0.24777 0.74525 -0.70224
v -0.08605 0.74525 -0.79855
v 0.08605 0.74525 -0.79855
v 0.24777 0.74525 -0.70224
v 0.37960 0.74525 -0.52122
v 0.46565 0.74525 -0.27733
v 0.43001 0.83057 0.00000
v 0.40407 0.83057 0.24066
v 0.32940 0.83057 0.45230
v 0.21500 0.83057 0.60938
v 0.07467 0.83057 0.69296
v -0.07467 0.83057 0.69296
v -0.21500 0.83057 0.60938
v -0.32940 0.83057 0.45230
v -0.40407 0.83057 0.24066
v -0.43001 0.83057 0.00000
v -0.40407 0.83057 -0.24066
v -0.32940 0.83057 -0.45230
v -0.21500 0.83057 -0.60938
v -0.07467 0.83057 -0.69296
v 0.07467 0.83057 -0.69296
v 0.21500 0.83057 -0.60938
v 0.32940 0.83057 -0.45230
v 0.40407 0.83057 -0.24066
v 0.34292 0.90182 0.00000
v 0.32224 0.90182 0.19192
v 0.26269 0.90182 0.36069
v 0.17146 0.90182 0.48596
v 0.05955 0.90182 0.55262
v -0.05955 0.90182 0.55262
v -0.17146 0.90182 0.48596
v -0.26269 0.90182 0.36069
v -0.32224 0.90182 0.19192
v -0.34292 0.90182 0.00000
v -0.32224 0.90182 -0.19192
v -0.26269 0.90182 -0.36069
v -0.17146 0.90182 -0.48596
v -0.05955 0.90182 -0.55262
v 0.05955 0.90182 -0.55262
v 0.17146 0.90182 -0.48596
v 0.26269 0.90182 -0.36069
v 0.32224 0.90182 -0.19192
v 0.23864 0.95544 0.00000
v 0.22424 0.95544 0.13356
v 0.18281 0.95544 0.25101
v 0.11932 0.95544 0.33818
v 0.04144 0.95544 0.38456
v -0.04144 0.95544 0.38456
v -0.11932 0.95544 0.33818
v -0.18281 0.95544 0.25101
v -0.22424 0.95544 0.13356
v -0.23864 0.95544 0.00000
v -0.22424 0.95544 -0.13356
v -0.18281 0.95544 -0.25101
v -0.11932 0.95544 -0.33818
v -0.04144 0.95544 -0.38456
v 0.04144 0.95544 -0.38456
v 0.11932 0.95544 -0.33818
v 0.18281 0.95544 -0.25101
v 0.22424 0.95544 -0.13356
v 0.12239 0.98872 0.00000
v 0.11501 0.98872 0.06850
v 0.09375 0.98872 0.12873
v 0.06119 0.98872 0.17344
v 0.02125 0.98872 0.19723
v -0.02125 0.98872 0.19723
v -0.06119 0.98872 0.17344
v -0.09375 0.98872 0.12873
v -0.11501 0.98872 0.06850
v -0.12239 0.98872 0.00000
v -0.11501 0.98872 -0.06850
v -0.09375 0.98872 -0.12873
v -0.06119 0.98872 -0.17344
v -0.02125 0.98872 -0.19723
v 0.02125 0.98872 -0.19723
v 0.06119 0.98872 -0.17344
v 0.09375 0.98872 -0.12873
v 0.11501 0.98872 -0.06850
v 0.00000 1.00000 0.00000
v 0.00000 1.00000 0.00000
v 0.00000 1.00000 0.00000
v 0.00000 1.00000 0.00000
v 0.00000 1.00000 0.00000
v -0.00000 1.00000 0.00000
v -0.00000 1.00000 0.00000
v -0.00000 1.00000 0.00000
v -0.00000 1.00000 0.00000
v -0.00000 1.00000 0.00000
v -0.00000 1.00000 -0.00000
v -0.00000 1.00000 -0.00000
v -0.00000 1.00000 -0.00000
v -0.00000 1.00000 -0.00000
v 0.00000 1.00000 -0.00000
v 0.00000 1.00000 -0.00000
v 0.00000 1.00000 -0.00000
v 0.00000 1.00000 -0.00000
v 0.00000 0.28000 0.78000
v 0.00000 0.28000 0.78000
v 0.00000 0.28000 0.78000
v 0.00000 0.28000 0.78000
v 0.00000 0.28000 0.78000
v -0.00000 0.28000 0.78000
v -0.00000 0.28000 0.78000
v -0.00000 0.28000 0.78000
v -0.00000 0.28000 0.78000
v -0.00000 0.28000 0.78000
v -0.00000 0.28000 0.78000
v -0.00000 0.28000 0.78000
v -0.00000 0.28000 0.78000
v 0.00000 0.28000 0.78000
v 0.00000 0.28000 0.78000
v 0.00000 0.28000 0.78000
v 0.10353 0.29431 0.78000
v 0.09565 0.29431 0.81962
v 0.07321 0.29431 0.85321
v 0.03962 0.29431 0.87565
v 0.00000 0.29431 0.88353
v -0.03962 0.29431 0.87565
v -0.07321 0.29431 0.85321
v -0.09565 0.29431 0.81962
v -0.10353 0.29431 0.78000
v -0.09565 0.29431 0.74038
v -0.07321 0.29431 0.70679
v -0.03962 0.29431 0.68435
v -0.00000 0.29431 0.67647
v 0.03962 0.29431 0.68435
v 0.07321 0.29431 0.70679
v 0.09565 0.29431 0.74038
v 0.20000 0.33627 0.78000
v 0.18478 0.33627 0.85654
v 0.14142 0.33627 0.92142
v 0.07654 0.33627 0.96478
v 0.00000 0.33627 0.98000
v -0.07654 0.33627 0.96478
v -0.14142 0.33627 0.92142
v -0.18478 0.33627 0.85654
v -0.20000 0.33627 0.78000
v -0.18478 0.33627 0.70346
v -0.14142 0.33627 0.63858
v -0.07654 0.33627 0.59522
v -0.00000 0.33627 0.58000
v 0.07654 0.33627 0.59522
v 0.14142 0.33627 0.63858
v 0.18478 0.33627 0.70346
v 0.28284 0.40302 0.78000
v 0.26131 0.40302 0.88824
v 0.20000 0.40302 0.98000
v 0.10824 0.40302 1.04131
v 0.00000 0.40302 1.06284
v -0.10824 0.40302 1.04131
v -0.20000 0.40302 0.98000
v -0.26131 0.40302 0.88824
v -0.28284 0.40302 0.78000
v -0.26131 0.40302 0.67176
v -0.20000 0.40302 0.58000
v -0.10824 0.40302 0.51869
v -0.00000 0.40302 0.49716
v 0.10824 0.40302 0.51869
v 0.20000 0.40302 0.58000
v 0.26131 0.40302 0.67176
v 0.34641 0.49000 0.78000
v 0.32004 0.49000 0.91257
v 0.24495 0.49000 1.02495
v 0.13257 0.49000 1.10004
v 0.00000 0.49000 1.12641
v -0.13257 0.49000 1.10004
v -0.24495 0.49000 1.02495
v -0.32004 0.49000 0.91257
v -0.34641 0.49000 0.78000
v -0.32004 0.49000 0.64743
v -0.24495 0.49000 0.53505
v -0.13257 0.49000 0.45996
v -0.00000 0.49000 0.43359
v 0.13257 0.49000 0.45996
v 0.24495 0.49000 0.53505
v 0.32004 0.49000 0.64743
v 0.38637 0.59130 0.78000
v 0.35696 0.59130 0.92786
v 0.27321 0.59130 1.05321
v 0.14786 0.59130 1.13696
v 0.00000 0.59130 1.16637
v -0.14786 0.59130 1.13696
v -0.27321 0.59130 1.05321
v -0.35696 0.59130 0.92786
v -0.38637 0.59130 0.78000
v -0.35696 0.59130 0.63214
v -0.27321 0.59130 0.50679
v -0.14786 0.59130 0.42304
v -0.00000 0.59130 0.39363
v 0.14786 0.59130 0.42304
v 0.27321 0.59130 0.50679
v 0.35696 0.59130 0.63214
v 0.40000 0.70000 0.78000
v 0.36955 0.70000 0.93307
v 0.28284 0.70000 1.06284
v 0.15307 0.70000 1.14955
v 0.00000 0.70000 1.18000
v -0.15307 0.70000 1.14955
v -0.28284 0.70000 1.06284
v -0.36955 0.70000 0.93307
v -0.40000 0.70000 0.78000
v -0.36955 0.70000 0.62693
v -0.28284 0.70000 0.49716
v -0.15307 0.70000 0.41045
v -0.00000 0.70000 0.38000
v 0.15307 0.70000 0.41045
v 0.28284 0.70000 0.49716
v 0.36955 0.70000 0.62693
v 0.38637 0.80870 0.78000
v 0.35696 0.80870 0.92786
v 0.27321 0.80870 1.05321
v 0.14786 0.80870 1.13696
v 0.00000 0.80870 1.16637
v -0.14786 0.80870 1.13696
v -0.27321 0.80870 1.05321
v -0.35696 0.80870 0.92786
v -0.38637 0.80870 0.78000
v -0.35696 0.80870 0.63214
v -0.27321 0.80870 0.50679
v -0.14786 0.80870 0.42304
v -0.00000 0.80870 0.39363
v 0.14786 0.80870 0.42304
v 0.27321 0.80870 0.50679
v 0.35696 0.80870 0.63214
v 0.34641 0.91000 0.78000
v 0.32004 0.91000 0.91257
v 0.24495 0.91000 1.02495
v 0.13257 0.91000 1.10004
v 0.00000 0.91000 1.12641
v -0.13257 0.91000 1.10004
v -0.24495 0.91000 1.02495
v -0.32004 0.91000 0.91257
v -0.34641 0.91000 0.78000
v -0.32004 0.91000 0.64743
v -0.24495 0.91000 0.53505
v -0.13257 0.91000 0.45996
v -0.00000 0.91000 0.43359
v 0.13257 0.91000 0.45996
v 0.24495 0.91000 0.53505
v 0.32004 0.91000 0.64743
v 0.28284 0.99698 0.78000
v 0.26131 0.99698 0.88824
v 0.20000 0.99698 0.98000
v 0.10824 0.99698 1.04131
v 0.00000 0.99698 1.06284
v -0.10824 0.99698 1.04131
v -0.20000 0.99698 0.98000
v -0.26131 0.99698 0.88824
v -0.28284 0.99698 0.78000
v -0.26131 0.99698 0.67176
v -0.20000 0.99698 0.58000
v -0.10824 0.99698 0.51869
v -0.00000 0.99698 0.49716
v 0.10824 0.99698 0.51869
v 0.20000 0.99698 0.58000
v 0.26131 0.99698 0.67176
v 0.20000 1.06373 0.78000
v 0.18478 1.06373 0.85654
v 0.14142 1.06373 0.92142
v 0.07654 1.06373 0.96478
v 0.00000 1.06373 0.98000
v -0.07654 1.06373 0.96478
v -0.14142 1.06373 0.92142
v -0.18478 1.06373 0.85654
v -0.20000 1.06373 0.78000
v -0.18478 1.06373 0.70346
v -0.14142 1.06373 0.63858
v -0.07654 1.06373 0.59522
v -0.00000 1.06373 0.58000
v 0.07654 1.06373 0.59522
v 0.14142 1.06373 0.63858
v 0.18478 1.06373 0.70346
v 0.10353 1.10569 0.78000
v 0.09565 1.10569 0.81962
v 0.07321 1.10569 0.85321
v 0.03962 1.10569 0.87565
v 0.00000 1.10569 0.88353
v -0.03962 1.10569 0.87565
v -0.07321 1.10569 0.85321
v -0.09565 1.10569 0.81962
v -0.10353 1.10569 0.78000
v -0.09565 1.10569 0.74038
v -0.07321 1.10569 0.70679
v -0.03962 1.10569 0.68435
v -0.00000 1.10569 0.67647
v 0.03962 1.10569 0.68435
v 0.07321 1.10569 0.70679
v 0.09565 1.10569 0.74038
v 0.00000 1.12000 0.78000
v 0.00000 1.12000 0.78000
v 0.00000 1.12000 0.78000
v 0.00000 1.12000 0.78000
v 0.00000 1.12000 0.78000
v -0.00000 1.12000 0.78000
v -0.00000 1.12000 0.78000
v -0.00000 1.12000 0.78000
v -0.00000 1.12000 0.78000
v -0.00000 1.12000 0.78000
v -0.00000 1.12000 0.78000
v -0.00000 1.12000 0.78000
v -0.00000 1.12000 0.78000
v 0.00000 1.12000 0.78000
v 0.00000 1.12000 0.78000
v 0.00000 1.12000 0.78000
v 0.00000 0.75000 1.05000
v 0.00000 0.75000 1.05000
v 0.00000 0.75000 1.05000
v 0.00000 0.75000 1.05000
v 0.00000 0.75000 1.05000
v -0.00000 0.75000 1.05000
v -0.00000 0.75000 1.05000
v -0.00000 0.75000 1.05000
v -0.00000 0.75000 1.05000
v -0.00000 0.75000 1.05000
v -0.00000 0.75000 1.05000
v -0.00000 0.75000 1.05000
v -0.00000 0.75000 1.05000
v -0.00000 0.75000 1.05000
v 0.00000 0.75000 1.05000
v 0.00000 0.75000 1.05000
v 0.00000 0.75000 1.05000
v 0.00000 0.75000 1.05000
v 0.09346 0.76003 1.05000
v 0.08782 0.76003 1.08044
v 0.07159 0.76003 1.10721
v 0.04673 0.76003 1.12708
v 0.01623 0.76003 1.13766
v -0.01623 0.76003 1.13766
v -0.04673 0.76003 1.12708
v -0.07159 0.76003 1.10721
v -0.08782 0.76003 1.08044
v -0.09346 0.76003 1.05000
v -0.08782 0.76003 1.01956
v -0.07159 0.76003 0.99279
v -0.04673 0.76003 0.97292
v -0.01623 0.76003 0.96234
v 0.01623 0.76003 0.96234
v 0.04673 0.76003 0.97292
v 0.07159 0.76003 0.99279
v 0.08782 0.76003 1.01956
v 0.18223 0.78961 1.05000
v 0.17124 0.78961 1.10936
v 0.13960 0.78961 1.16156
v 0.09112 0.78961 1.20030
v 0.03164 0.78961 1.22092
v -0.03164 0.78961 1.22092
v -0.09112 0.78961 1.20030
v -0.13960 0.78961 1.16156
v -0.17124 0.78961 1.10936
v -0.18223 0.78961 1.05000
v -0.17124 0.78961 0.99064
v -0.13960 0.78961 0.93844
v -0.09112 0.78961 0.89970
v -0.03164 0.78961 0.87908
v 0.03164 0.78961 0.87908
v 0.09112 0.78961 0.89970
v 0.13960 0.78961 0.93844
v 0.17124 0.78961 0.99064
v 0.26187 0.83727 1.05000
v 0.24607 0.83727 1.13530
v 0.20060 0.83727 1.21031
v 0.13093 0.83727 1.26598
v 0.04547 0.83727 1.29561
v -0.04547 0.83727 1.29561
v -0.13093 0.83727 1.26598
v -0.20060 0.83727 1.21031
v -0.24607 0.83727 1.13530
v -0.26187 0.83727 1.05000
v -0.24607 0.83727 0.96470
v -0.20060 0.83727 0.88969
v -0.13093 0.83727 0.83402
v -0.04547 0.83727 0.80439
v 0.04547 0.83727 0.80439
v 0.13093 0.83727 0.83402
v 0.20060 0.83727 0.88969
v 0.24607 0.83727 0.96470
v 0.32837 0.90060 1.05000
v 0.30857 0.90060 1.15696
v 0.25155 0.90060 1.25102
v 0.16418 0.90060 1.32083
v 0.05702 0.90060 1.35798
v -0.05702 0.90060 1.35798
v -0.16418 0.90060 1.32083
v -0.25155 0.90060 1.25102
v -0.30857 0.90060 1.15696
v -0.32837 0.90060 1.05000
v -0.30857 0.90060 0.94304
v -0.25155 0.90060 0.84898
v -0.16418 0.90060 0.77917
v -0.05702 0.90060 0.74202
v 0.05702 0.90060 0.74202
v 0.16418 0.90060 0.77917
v 0.25155 0.90060 0.84898
v 0.30857 0.90060 0.94304
v 0.37841 0.97645 1.05000
v 0.35559 0.97645 1.17326
v 0.28988 0.97645 1.28165
v 0.18920 0.97645 1.36210
v 0.06571 0.97645 1.40491
v -0.06571 0.97645 1.40491
v -0.18920 0.97645 1.36210
v -0.28988 0.97645 1.28165
v -0.35559 0.97645 1.17326
v -0.37841 0.97645 1.05000
v -0.35559 0.97645 0.92674
v -0.28988 0.97645 0.81835
v -0.18920 0.97645 0.73790
v -0.06571 0.97645 0.69509
v 0.06571 0.97645 0.69509
v 0.18920 0.97645 0.73790
v 0.28988 0.97645 0.81835
v 0.35559 0.97645 0.92674
v 0.40947 1.06099 1.05000
v 0.38478 1.06099 1.18338
v 0.31367 1.06099 1.30067
v 0.20473 1.06099 1.38772
v 0.07110 1.06099 1.43405
v -0.07110 1.06099 1.43405
v -0.20473 1.06099 1.38772
v -0.31367 1.06099 1.30067
v -0.38478 1.06099 1.18338
v -0.40947 1.06099 1.05000
v -0.38478 1.06099 0.91662
v -0.31367 1.06099 0.79933
v -0.20473 1.06099 0.71228
v -0.07110 1.06099 0.66595
v 0.07110 1.06099 0.66595
v 0.20473 1.06099 0.71228
v 0.31367 1.06099 0.79933
v 0.38478 1.06099 0.91662
v 0.42000 1.15000 1.05000
v 0.39467 1.15000 1.18681
v 0.32174 1.15000 1.30712
v 0.21000 1.15000 1.39641
v 0.07293 1.15000 1.44392
v -0.07293 1.15000 1.44392
v -0.21000 1.15000 1.39641
v -0.32174 1.15000 1.30712
v -0.39467 1.15000 1.18681
v -0.42000 1.15000 1.05000
v -0.39467 1.15000 0.91319
v -0.32174 1.15000 0.79288
v -0.21000 1.15000 0.70359
v -0.07293 1.15000 0.65608
v 0.07293 1.15000 0.65608
v 0.21000 1.15000 0.70359
v 0.32174 1.15000 0.79288
v 0.39467 1.15000 0.91319
v 0.40947 1.23901 1.05000
v 0.38478 1.23901 1.18338
v 0.31367 1.23901 1.30067
v 0.20473 1.23901 1.38772
v 0.07110 1.23901 1.43405
v -0.07110 1.23901 1.43405
v -0.20473 1.23901 1.38772
v -0.31367 1.23901 1.30067
v -0.38478 1.23901 1.18338
v -0.40947 1.23901 1.05000
v -0.38478 1.23901 0.91662
v -0.31367 1.23901 0.79933
v -0.20473 1.23901 0.71228
v -0.07110 1.23901 0.66595
v 0.07110 1.23901 0.66595
v 0.20473 1.23901 0.71228
v 0.31367 1.23901 0.79933
v 0.38478 1.23901 0.91662
v 0.37841 1.32355 1.05000
v 0.35559 1.32355 1.17326
v 0.28988 1.32355 1.28165
v 0.18920 1.32355 1.36210
v 0.06571 1.32355 1.40491
v -0.06571 1.32355 1.40491
v -0.18920 1.32355 1.36210
v -0.28988 1.32355 1.28165
v -0.35559 1.32355 1.17326
v -0.37841 1.32355 1.05000
v -0.35559 1.32355 0.92674
v -0.28988 1.32355 0.81835
v -0.18920 1.32355 0.73790
v -0.06571 1.32355 0.69509
v 0.06571 1.32355 0.69509
v 0.18920 1.32355 0.73790
v 0.28988 1.32355 0.81835
v 0.35559 1.32355 0.92674
v 0.32837 1.39940 1.05000
v 0.30857 1.39940 1.15696
v 0.25155 1.39940 1.25102
v 0.16418 1.39940 1.32083
v 0.05702 1.39940 1.35798
v -0.05702 1.39940 1.35798
v -0.16418 1.39940 1.32083
v -0.25155 1.39940 1.25102
v -0.30857 1.39940 1.15696
v -0.32837 1.39940 1.05000
v -0.30857 1.39940 0.94304
v -0.25155 1.39940 0.84898
v -0.16418 1.39940 0.77917
v -0.05702 1.39940 0.74202
v 0.05702 1.39940 0.74202
v 0.16418 1.39940 0.77917
v 0.25155 1.39940 0.84898
v 0.30857 1.39940 0.94304
v 0.26187 1.46273 1.05000
v 0.24607 1.46273 1.13530
v 0.20060 1.46273 1.21031
v 0.13093 1.46273 1.26598
v 0.04547 1.46273 1.29561
v -0.04547 1.46273 1.29561
v -0.13093 1.46273 1.26598
v -0.20060 1.46273 1.21031
v -0.24607 1.46273 1.13530
v -0.26187 1.46273 1.05000
v -0.24607 1.46273 0.96470
v -0.20060 1.46273 0.88969
v -0.13093 1.46273 0.83402
v -0.04547 1.46273 0.80439
v 0.04547 1.46273 0.80439
v 0.13093 1.46273 0.83402
v 0.20060 1.46273 0.88969
v 0.24607 1.46273 0.96470
v 0.18223 1.51039 1.05000
v 0.17124 1.51039 1.10936
v 0.13960 1.51039 1.16156
v 0.09112 1.51039 1.20030
v 0.03164 1.51039 1.22092
v -0.03164 1.51039 1.22092
v -0.09112 1.51039 1.20030
v -0.13960 1.51039 1.16156
v -0.17124 1.51039 1.10936
v -0.18223 1.51039 1.05000
v -0.17124 1.51039 0.99064
v -0.13960 1.51039 0.93844
v -0.09112 1.51039 0.89970
v -0.03164 1.51039 0.87908
v 0.03164 1.51039 0.87908
v 0.09112 1.51039 0.89970
v 0.13960 1.51039 0.93844
v 0.17124 1.51039 0.99064
v 0.09346 1.53997 1.05000
v 0.08782 1.53997 1.08044
v 0.07159 1.53997 1.10721
v 0.04673 1.53997 1.12708
v 0.01623 1.53997 1.13766
v -0.01623 1.53997 1.13766
v -0.04673 1.53997 1.12708
v -0.07159 1.53997 1.10721
v -0.08782 1.53997 1.08044
v -0.09346 1.53997 1.05000
v -0.08782 1.53997 1.01956
v -0.07159 1.53997 0.99279
v -0.04673 1.53997 0.97292
v -0.01623 1.53997 0.96234
v 0.01623 1.53997 0.96234
v 0.04673 1.53997 0.97292
v 0.07159 1.53997 0.99279
v 0.08782 1.53997 1.01956
v 0.00000 1.55000 1.05000
v 0.00000 1.55000 1.05000
v 0.00000 1.55000 1.05000
v 0.00000 1.55000 1.05000
v 0.00000 1.55000 1.05000
v -0.00000 1.55000 1.05000
v -0.00000 1.55000 1.05000
v -0.00000 1.55000 1.05000
v -0.00000 1.55000 1.05000
v -0.00000 1.55000 1.05000
v -0.00000 1.55000 1.05000
v -0.00000 1.55000 1.05000
v -0.00000 1.55000 1.05000
v -0.00000 1.55000 1.05000
v 0.00000 1.55000 1.05000
v 0.00000 1.55000 1.05000
v 0.00000 1.55000 1.05000
v 0.00000 1.55000 1.05000
v 0.00000 0.84000 1.42000
v 0.00000 0.84000 1.42000
v 0.00000 0.84000 1.42000
v 0.00000 0.84000 1.42000
v -0.00000 0.84000 1.42000
v -0.00000 0.84000 1.42000
v -0.00000 0.84000 1.42000
v -0.00000 0.84000 1.42000
v -0.00000 0.84000 1.42000
v -0.00000 0.84000 1.42000
v 0.00000 0.84000 1.42000
v 0.00000 0.84000 1.42000
v 0.06180 0.84783 1.42000
v 0.05352 0.84783 1.44781
v 0.03090 0.84783 1.46817
v 0.00000 0.84783 1.47562
v -0.03090 0.84783 1.46817
v -0.05352 0.84783 1.44781
v -0.06180 0.84783 1.42000
v -0.05352 0.84783 1.39219
v -0.03090 0.84783 1.37183
v -0.00000 0.84783 1.36438
v 0.03090 0.84783 1.37183
v 0.05352 0.84783 1.39219
v 0.11756 0.87056 1.42000
v 0.10181 0.87056 1.47290
v 0.05878 0.87056 1.51163
v 0.00000 0.87056 1.52580
v -0.05878 0.87056 1.51163
v -0.10181 0.87056 1.47290
v -0.11756 0.87056 1.42000
v -0.10181 0.87056 1.36710
v -0.05878 0.87056 1.32837
v -0.00000 0.87056 1.31420
v 0.05878 0.87056 1.32837
v 0.10181 0.87056 1.36710
v 0.16180 0.90595 1.42000
v 0.14013 0.90595 1.49281
v 0.08090 0.90595 1.54611
v 0.00000 0.90595 1.56562
v -0.08090 0.90595 1.54611
v -0.14013 0.90595 1.49281
v -0.16180 0.90595 1.42000
v -0.14013 0.90595 1.34719
v -0.08090 0.90595 1.29389
v -0.00000 0.90595 1.27438
v 0.08090 0.90595 1.29389
v 0.14013 0.90595 1.34719
v 0.19021 0.95056 1.42000
v 0.16473 0.95056 1.50560
v 0.09511 0.95056 1.56826
v 0.00000 0.95056 1.59119
v -0.09511 0.95056 1.56826
v -0.16473 0.95056 1.50560
v -0.19021 0.95056 1.42000
v -0.16473 0.95056 1.33440
v -0.09511 0.95056 1.27174
v -0.00000 0.95056 1.24881
v 0.09511 0.95056 1.27174
v 0.16473 0.95056 1.33440
v 0.20000 1.00000 1.42000
v 0.17321 1.00000 1.51000
v 0.10000 1.00000 1.57588
v 0.00000 1.00000 1.60000
v -0.10000 1.00000 1.57588
v -0.17321 1.00000 1.51000
v -0.20000 1.00000 1.42000
v -0.17321 1.00000 1.33000
v -0.10000 1.00000 1.26412
v -0.00000 1.00000 1.24000
v 0.10000 1.00000 1.26412
v 0.17321 1.00000 1.33000
v 0.19021 1.04944 1.42000
v 0.16473 1.04944 1.50560
v 0.09511 1.04944 1.56826
v 0.00000 1.04944 1.59119
v -0.09511 1.04944 1.56826
v -0.16473 1.04944 1.50560
v -0.19021 1.04944 1.42000
v -0.16473 1.04944 1.33440
v -0.09511 1.04944 1.27174
v -0.00000 1.04944 1.24881
v 0.09511 1.04944 1.27174
v 0.16473 1.04944 1.33440
v 0.16180 1.09405 1.42000
v 0.14013 1.09405 1.49281
v 0.08090 1.09405 1.54611
v 0.00000 1.09405 1.56562
v -0.08090 1.09405 1.54611
v -0.14013 1.09405 1.49281
v -0.16180 1.09405 1.42000
v -0.14013 1.09405 1.34719
v -0.08090 1.09405 1.29389
v -0.00000 1.09405 1.27438
v 0.08090 1.09405 1.29389
v 0.14013 1.09405 1.34719
v 0.11756 1.12944 1.42000
v 0.10181 1.12944 1.47290
v 0.05878 1.12944 1.51163
v 0.00000 1.12944 1.52580
v -0.05878 1.12944 1.51163
v -0.10181 1.12944 1.47290
v -0.11756 1.12944 1.42000
v -0.10181 1.12944 1.36710
v -0.05878 1.12944 1.32837
v -0.00000 1.12944 1.31420
v 0.05878 1.12944 1.32837
v 0.10181 1.12944 1.36710
v 0.06180 1.15217 1.42000
v 0.05352 1.15217 1.44781
v 0.03090 1.15217 1.46817
v 0.00000 1.15217 1.47562
v -0.03090 1.15217 1.46817
v -0.05352 1.15217 1.44781
v -0.06180 1.15217 1.42000
v -0.05352 1.15217 1.39219
v -0.03090 1.15217 1.37183
v -0.00000 1.15217 1.36438
v 0.03090 1.15217 1.37183
v 0.05352 1.15217 1.39219
v 0.00000 1.16000 1.42000
v 0.00000 1.16000 1.42000
v 0.00000 1.16000 1.42000
v 0.00000 1.16000 1.42000
v -0.00000 1.16000 1.42000
v -0.00000 1.16000 1.42000
v -0.00000 1.16000 1.42000
v -0.00000 1.16000 1.42000
v -0.00000 1.16000 1.42000
v -0.00000 1.16000 1.42000
v 0.00000 1.16000 1.42000
v 0.00000 1.16000 1.42000
v -0.22000 1.42767 0.77139
v -0.34199 1.39818 0.82821
v -0.39252 1.39904 0.95637
v -0.34199 1.42975 1.08080
v -0.22000 1.47233 1.12861
v -0.09801 1.50182 1.07179
v -0.04748 1.50096 0.94363
v -0.09801 1.47025 0.81920
v -0.34000 1.84988 0.89901
v -0.34068 1.84971 0.89932
v -0.34096 1.84972 0.90004
v -0.34068 1.84989 0.90073
v -0.34000 1.85012 0.90099
v -0.33932 1.85029 0.90068
v -0.33904 1.85028 0.89996
v -0.33932 1.85011 0.89927
v 0.22000 1.42767 0.77139
v 0.09801 1.47025 0.81920
v 0.04748 1.50096 0.94363
v 0.09801 1.50182 1.07179
v 0.22000 1.47233 1.12861
v 0.34199 1.42975 1.08080
v 0.39252 1.39904 0.95637
v 0.34199 1.39818 0.82821
v 0.34000 1.84988 0.89901
v 0.33932 1.85011 0.89927
v 0.33904 1.85028 0.89996
v 0.33932 1.85029 0.90068
v 0.34000 1.85012 0.90099
v 0.34068 1.84989 0.90073
v 0.34096 1.84972 0.90004
v 0.34068 1.84971 0.89932
v -0.28000 0.51294 1.07935
v -0.35641 0.51047 1.05465
v -0.40364 0.50400 0.98997
v -0.40364 0.49600 0.91003
v -0.35641 0.48953 0.84535
v -0.28000 0.48706 0.82065
v -0.20359 0.48953 0.84535
v -0.15636 0.49600 0.91003
v -0.15636 0.50400 0.98997
v -0.20359 0.51047 1.05465
v -0.28000 0.01393 1.13931
v -0.36229 0.01127 1.11270
v -0.41315 0.00430 1.04305
v -0.41315 -0.00430 0.95695
v -0.36229 -0.01127 0.88730
v -0.28000 -0.01393 0.86069
v -0.19771 -0.01127 0.88730
v -0.14685 -0.00430 0.95695
v -0.14685 0.00430 1.04305
v -0.19771 0.01127 1.11270
v 0.28000 0.51294 1.07935
v 0.20359 0.51047 1.05465
v 0.15636 0.50400 0.98997
v 0.15636 0.49600 0.91003
v 0.20359 0.48953 0.84535
v 0.28000 0.48706 0.82065
v 0.35641 0.48953 0.84535
v 0.40364 0.49600 0.91003
v 0.40364 0.50400 0.98997
v 0.35641 0.51047 1.05465
v 0.28000 0.01393 1.13931
v 0.19771 0.01127 1.11270
v 0.14685 0.00430 1.04305
v 0.14685 -0.00430 0.95695
v 0.19771 -0.01127 0.88730
v 0.28000 -0.01393 0.86069
v 0.36229 -0.01127 0.88730
v 0.41315 -0.00430 0.95695
v 0.41315 0.00430 1.04305
v 0.36229 0.01127 1.11270
v -0.32000 0.55942 -0.40144
v -0.41398 0.54483 -0.42852
v -0.47206 0.51312 -0.50200
v -0.47206 0.47639 -0.59381
v -0.41398 0.44869 -0.66889
v -0.32000 0.44058 -0.69856
v -0.22602 0.45517 -0.67148
v -0.16794 0.48688 -0.59800
v -0.16794 0.52361 -0.50619
v -0.22602 0.55131 -0.43111
v -0.30000 0.05942 -0.20144
v -0.39398 0.04483 -0.22852
v -0.45206 0.01312 -0.30200
v -0.45206 -0.02361 -0.39381
v -0.39398 -0.05131 -0.46889
v -0.30000 -0.05942 -0.49856
v -0.20602 -0.04483 -0.47148
v -0.14794 -0.01312 -0.39800
v -0.14794 0.02361 -0.30619
v -0.20602 0.05131 -0.23111
v 0.32000 0.55942 -0.40144
v 0.22602 0.55131 -0.43111
v 0.16794 0.52361 -0.50619
v 0.16794 0.48688 -0.59800
v 0.22602 0.45517 -0.67148
v 0.32000 0.44058 -0.69856
v 0.41398 0.44869 -0.66889
v 0.47206 0.47639 -0.59381
v 0.47206 0.51312 -0.50200
v 0.41398 0.54483 -0.42852
v 0.30000 0.05942 -0.20144
v 0.20602 0.05131 -0.23111
v 0.14794 0.02361 -0.30619
v 0.14794 -0.01312 -0.39800
v 0.20602 -0.04483 -0.47148
v 0.30000 -0.05942 -0.49856
v 0.39398 -0.05131 -0.46889
v 0.45206 -0.02361 -0.39381
v 0.45206 0.01312 -0.30200
v 0.39398 0.04483 -0.22852
v -0.28000 -0.01000 1.05000
v -0.28000 -0.01000 1.05000
v -0.28000 -0.01000 1.05000
v -0.28000 -0.01000 1.05000
v -0.28000 -0.01000 1.05000
v -0.28000 -0.01000 1.05000
v -0.28000 -0.01000 1.05000
v -0.28000 -0.01000 1.05000
v -0.28000 -0.01000 1.05000
v -0.28000 -0.01000 1.05000
v -0.21877 -0.00467 1.05000
v -0.23046 -0.00467 1.09499
v -0.26108 -0.00467 1.12279
v -0.29892 -0.00467 1.12279
v -0.32954 -0.00467 1.09499
v -0.34123 -0.00467 1.05000
v -0.32954 -0.00467 1.00501
v -0.29892 -0.00467 0.97721
v -0.26108 -0.00467 0.97721
v -0.23046 -0.00467 1.00501
v -0.16686 0.01050 1.05000
v -0.18847 0.01050 1.13313
v -0.24504 0.01050 1.18450
v -0.31496 0.01050 1.18450
v -0.37153 0.01050 1.13313
v -0.39314 0.01050 1.05000
v -0.37153 0.01050 0.96687
v -0.31496 0.01050 0.91550
v -0.24504 0.01050 0.91550
v -0.18847 0.01050 0.96687
v -0.13218 0.03321 1.05000
v -0.16041 0.03321 1.15861
v -0.23432 0.03321 1.22573
v -0.32568 0.03321 1.22573
v -0.39959 0.03321 1.15861
v -0.42782 0.03321 1.05000
v -0.39959 0.03321 0.94139
v -0.32568 0.03321 0.87427
v -0.23432 0.03321 0.87427
v -0.16041 0.03321 0.94139
v -0.12000 0.06000 1.05000
v -0.15056 0.06000 1.16756
v -0.23056 0.06000 1.24021
v -0.32944 0.06000 1.24021
v -0.40944 0.06000 1.16756
v -0.44000 0.06000 1.05000
v -0.40944 0.06000 0.93244
v -0.32944 0.06000 0.85979
v -0.23056 0.06000 0.85979
v -0.15056 0.06000 0.93244
v -0.13218 0.08679 1.05000
v -0.16041 0.08679 1.15861
v -0.23432 0.08679 1.22573
v -0.32568 0.08679 1.22573
v -0.39959 0.08679 1.15861
v -0.42782 0.08679 1.05000
v -0.39959 0.08679 0.94139
v -0.32568 0.08679 0.87427
v -0.23432 0.08679 0.87427
v -0.16041 0.08679 0.94139
v -0.16686 0.10950 1.05000
v -0.18847 0.10950 1.13313
v -0.24504 0.10950 1.18450
v -0.31496 0.10950 1.18450
v -0.37153 0.10950 1.13313
v -0.39314 0.10950 1.05000
v -0.37153 0.10950 0.96687
v -0.31496 0.10950 0.91550
v -0.24504 0.10950 0.91550
v -0.18847 0.10950 0.96687
v -0.21877 0.12467 1.05000
v -0.23046 0.12467 1.09499
v -0.26108 0.12467 1.12279
v -0.29892 0.12467 1.12279
v -0.32954 0.12467 1.09499
v -0.34123 0.12467 1.05000
v -0.32954 0.12467 1.00501
v -0.29892 0.12467 0.97721
v -0.26108 0.12467 0.97721
v -0.23046 0.12467 1.00501
v -0.28000 0.13000 1.05000
v -0.28000 0.13000 1.05000
v -0.28000 0.13000 1.05000
v -0.28000 0.13000 1.05000
v -0.28000 0.13000 1.05000
v -0.28000 0.13000 1.05000
v -0.28000 0.13000 1.05000
v -0.28000 0.13000 1.05000
v -0.28000 0.13000 1.05000
v -0.28000 0.13000 1.05000
v 0.28000 -0.01000 1.05000
v 0.28000 -0.01000 1.05000
v 0.28000 -0.01000 1.05000
v 0.28000 -0.01000 1.05000
v 0.28000 -0.01000 1.05000
v 0.28000 -0.01000 1.05000
v 0.28000 -0.01000 1.05000
v 0.28000 -0.01000 1.05000
v 0.28000 -0.01000 1.05000
v 0.28000 -0.01000 1.05000
v 0.34123 -0.00467 1.05000
v 0.32954 -0.00467 1.09499
v 0.29892 -0.00467 1.12279
v 0.26108 -0.00467 1.12279
v 0.23046 -0.00467 1.09499
v 0.21877 -0.00467 1.05000
v 0.23046 -0.00467 1.00501
v 0.26108 -0.00467 0.97721
v 0.29892 -0.00467 0.97721
v 0.32954 -0.00467 1.00501
v 0.39314 0.01050 1.05000
v 0.37153 0.01050 1.13313
v 0.31496 0.01050 1.18450
v 0.24504 0.01050 1.18450
v 0.18847 0.01050 1.13313
v 0.16686 0.01050 1.05000
v 0.18847 0.01050 0.96687
v 0.24504 0.01050 0.91550
v 0.31496 0.01050 0.91550
v 0.37153 0.01050 0.96687
v 0.42782 0.03321 1.05000
v 0.39959 0.03321 1.15861
v 0.32568 0.03321 1.22573
v 0.23432 0.03321 1.22573
v 0.16041 0.03321 1.15861
v 0.13218 0.03321 1.05000
v 0.16041 0.03321 0.94139
v 0.23432 0.03321 0.87427
v 0.32568 0.03321 0.87427
v 0.39959 0.03321 0.94139
v 0.44000 0.06000 1.05000
v 0.40944 0.06000 1.16756
v 0.32944 0.06000 1.24021
v 0.23056 0.06000 1.24021
v 0.15056 0.06000 1.16756
v 0.12000 0.06000 1.05000
v 0.15056 0.06000 0.93244
v 0.23056 0.06000 0.85979
v 0.32944 0.06000 0.85979
v 0.40944 0.06000 0.93244
v 0.42782 0.08679 1.05000
v 0.39959 0.08679 1.15861
v 0.32568 0.08679 1.22573
v 0.23432 0.08679 1.22573
v 0.16041 0.08679 1.15861
v 0.13218 0.08679 1.05000
v 0.16041 0.08679 0.94139
v 0.23432 0.08679 0.87427
v 0.32568 0.08679 0.87427
v 0.39959 0.08679 0.94139
v 0.39314 0.10950 1.05000
v 0.37153 0.10950 1.13313
v 0.31496 0.10950 1.18450
v 0.24504 0.10950 1.18450
v 0.18847 0.10950 1.13313
v 0.16686 0.10950 1.05000
v 0.18847 0.10950 0.96687
v 0.24504 0.10950 0.91550
v 0.31496 0.10950 0.91550
v 0.37153 0.10950 0.96687
v 0.34123 0.12467 1.05000
v 0.32954 0.12467 1.09499
v 0.29892 0.12467 1.12279
v 0.26108 0.12467 1.12279
v 0.23046 0.12467 1.09499
v 0.21877 0.12467 1.05000
v 0.23046 0.12467 1.00501
v 0.26108 0.12467 0.97721
v 0.29892 0.12467 0.97721
v 0.32954 0.12467 1.00501
v 0.28000 0.13000 1.05000
v 0.28000 0.13000 1.05000
v 0.28000 0.13000 1.05000
v 0.28000 0.13000 1.05000
v 0.28000 0.13000 1.05000
v 0.28000 0.13000 1.05000
v 0.28000 0.13000 1.05000
v 0.28000 0.13000 1.05000
v 0.28000 0.13000 1.05000
v 0.28000 0.13000 1.05000
v -0.30000 -0.01000 -0.30000
v -0.30000 -0.01000 -0.30000
v -0.30000 -0.01000 -0.30000
v -0.30000 -0.01000 -0.30000
v -0.30000 -0.01000 -0.30000
v -0.30000 -0.01000 -0.30000
v -0.30000 -0.01000 -0.30000
v -0.30000 -0.01000 -0.30000
v -0.30000 -0.01000 -0.30000
v -0.30000 -0.01000 -0.30000
v -0.23877 -0.00467 -0.30000
v -0.25046 -0.00467 -0.25501
v -0.28108 -0.00467 -0.22721
v -0.31892 -0.00467 -0.22721
v -0.34954 -0.00467 -0.25501
v -0.36123 -0.00467 -0.30000
v -0.34954 -0.00467 -0.34499
v -0.31892 -0.00467 -0.37279
v -0.28108 -0.00467 -0.37279
v -0.25046 -0.00467 -0.34499
v -0.18686 0.01050 -0.30000
v -0.20847 0.01050 -0.21687
v -0.26504 0.01050 -0.16550
v -0.33496 0.01050 -0.16550
v -0.39153 0.01050 -0.21687
v -0.41314 0.01050 -0.30000
v -0.39153 0.01050 -0.38313
v -0.33496 0.01050 -0.43450
v -0.26504 0.01050 -0.43450
v -0.20847 0.01050 -0.38313
v -0.15218 0.03321 -0.30000
v -0.18041 0.03321 -0.19139
v -0.25432 0.03321 -0.12427
v -0.34568 0.03321 -0.12427
v -0.41959 0.03321 -0.19139
v -0.44782 0.03321 -0.30000
v -0.41959 0.03321 -0.40861
v -0.34568 0.03321 -0.47573
v -0.25432 0.03321 -0.47573
v -0.18041 0.03321 -0.40861
v -0.14000 0.06000 -0.30000
v -0.17056 0.06000 -0.18244
v -0.25056 0.06000 -0.10979
v -0.34944 0.06000 -0.10979
v -0.42944 0.06000 -0.18244
v -0.46000 0.06000 -0.30000
v -0.42944 0.06000 -0.41756
v -0.34944 0.06000 -0.49021
v -0.25056 0.06000 -0.49021
v -0.17056 0.06000 -0.41756
v -0.15218 0.08679 -0.30000
v -0.18041 0.08679 -0.19139
v -0.25432 0.08679 -0.12427
v -0.34568 0.08679 -0.12427
v -0.41959 0.08679 -0.19139
v -0.44782 0.08679 -0.30000
v -0.41959 0.08679 -0.40861
v -0.34568 0.08679 -0.47573
v -0.25432 0.08679 -0.47573
v -0.18041 0.08679 -0.40861
v -0.18686 0.10950 -0.30000
v -0.20847 0.10950 -0.21687
v -0.26504 0.10950 -0.16550
v -0.33496 0.10950 -0.16550
v -0.39153 0.10950 -0.21687
v -0.41314 0.10950 -0.30000
v -0.39153 0.10950 -0.38313
v -0.33496 0.10950 -0.43450
v -0.26504 0.10950 -0.43450
v -0.20847 0.10950 -0.38313
v -0.23877 0.12467 -0.30000
v -0.25046 0.12467 -0.25501
v -0.28108 0.12467 -0.22721
v -0.31892 0.12467 -0.22721
v -0.34954 0.12467 -0.25501
v -0.36123 0.12467 -0.30000
v -0.34954 0.12467 -0.34499
v -0.31892 0.12467 -0.37279
v -0.28108 0.12467 -0.37279
v -0.25046 0.12467 -0.34499
v -0.30000 0.13000 -0.30000
v -0.30000 0.13000 -0.30000
v -0.30000 0.13000 -0.30000
v -0.30000 0.13000 -0.30000
v -0.30000 0.13000 -0.30000
v -0.30000 0.13000 -0.30000
v -0.30000 0.13000 -0.30000
v -0.30000 0.13000 -0.30000
v -0.30000 0.13000 -0.30000
v -0.30000 0.13000 -0.30000
v 0.30000 -0.01000 -0.30000
v 0.30000 -0.01000 -0.30000
v 0.30000 -0.01000 -0.30000
v 0.30000 -0.01000 -0.30000
v 0.30000 -0.01000 -0.30000
v 0.30000 -0.01000 -0.30000
v 0.30000 -0.01000 -0.30000
v 0.30000 -0.01000 -0.30000
v 0.30000 -0.01000 -0.30000
v 0.30000 -0.01000 -0.30000
v 0.36123 -0.00467 -0.30000
v 0.34954 -0.00467 -0.25501
v 0.31892 -0.00467 -0.22721
v 0.28108 -0.00467 -0.22721
v 0.25046 -0.00467 -0.25501
v 0.23877 -0.00467 -0.30000
v 0.25046 -0.00467 -0.34499
v 0.28108 -0.00467 -0.37279
v 0.31892 -0.00467 -0.37279
v 0.34954 -0.00467 -0.34499
v 0.41314 0.01050 -0.30000
v 0.39153 0.01050 -0.21687
v 0.33496 0.01050 -0.16550
v 0.26504 0.01050 -0.16550
v 0.20847 0.01050 -0.21687
v 0.18686 0.01050 -0.30000
v 0.20847 0.01050 -0.38313
v 0.26504 0.01050 -0.43450
v 0.33496 0.01050 -0.43450
v 0.39153 0.01050 -0.38313
v 0.44782 0.03321 -0.30000
v 0.41959 0.03321 -0.19139
v 0.34568 0.03321 -0.12427
v 0.25432 0.03321 -0.12427
v 0.18041 0.03321 -0.19139
v 0.15218 0.03321 -0.30000
v 0.18041 0.03321 -0.40861
v 0.25432 0.03321 -0.47573
v 0.34568 0.03321 -0.47573
v 0.41959 0.03321 -0.40861
v 0.46000 0.06000 -0.30000
v 0.42944 0.06000 -0.18244
v 0.34944 0.06000 -0.10979
v 0.25056 0.06000 -0.10979
v 0.17056 0.06000 -0.18244
v 0.14000 0.06000 -0.30000
v 0.17056 0.06000 -0.41756
v 0.25056 0.06000 -0.49021
v 0.34944 0.06000 -0.49021
v 0.42944 0.06000 -0.41756
v 0.44782 0.08679 -0.30000
v 0.41959 0.08679 -0.19139
v 0.34568 0.08679 -0.12427
v 0.25432 0.08679 -0.12427
v 0.18041 0.08679 -0.19139
v 0.15218 0.08679 -0.30000
v 0.18041 0.08679 -0.40861
v 0.25432 0.08679 -0.47573
v 0.34568 0.08679 -0.47573
v 0.41959 0.08679 -0.40861
v 0.41314 0.10950 -0.30000
v 0.39153 0.10950 -0.21687
v 0.33496 0.10950 -0.16550
v 0.26504 0.10950 -0.16550
v 0.20847 0.10950 -0.21687
v 0.18686 0.10950 -0.30000
v 0.20847 0.10950 -0.38313
v 0.26504 0.10950 -0.43450
v 0.33496 0.10950 -0.43450
v 0.39153 0.10950 -0.38313
v 0.36123 0.12467 -0.30000
v 0.34954 0.12467 -0.25501
v 0.31892 0.12467 -0.22721
v 0.28108 0.12467 -0.22721
v 0.25046 0.12467 -0.25501
v 0.23877 0.12467 -0.30000
v 0.25046 0.12467 -0.34499
v 0.28108 0.12467 -0.37279
v 0.31892 0.12467 -0.37279
v 0.34954 0.12467 -0.34499
v 0.30000 0.13000 -0.30000
v 0.30000 0.13000 -0.30000
v 0.30000 0.13000 -0.30000
v 0.30000 0.13000 -0.30000
v 0.30000 0.13000 -0.30000
v 0.30000 0.13000 -0.30000
v 0.30000 0.13000 -0.30000
v 0.30000 0.13000 -0.30000
v 0.30000 0.13000 -0.30000
v 0.30000 0.13000 -0.30000
v 0.00000 0.34589 -0.91312
v -0.08609 0.37638 -0.89463
v -0.12175 0.45000 -0.85000
v -0.08609 0.52362 -0.80537
v -0.00000 0.55411 -0.78688
v 0.08609 0.52362 -0.80537
v 0.12175 0.45000 -0.85000
v 0.08609 0.37638 -0.89463
v 0.00000 0.67450 -1.41655
v -0.07195 0.69998 -1.40110
v -0.10175 0.76151 -1.36380
v -0.07195 0.82303 -1.32650
v -0.00000 0.84851 -1.31105
v 0.07195 0.82303 -1.32650
v 0.10175 0.76151 -1.36380
v 0.07195 0.69998 -1.40110
v 0.00000 0.76487 -1.47725
v -0.08026 0.76389 -1.44402
v -0.11350 0.76151 -1.36380
v -0.08026 0.75913 -1.28358
v -0.00000 0.75814 -1.25035
v 0.08026 0.75913 -1.28358
v 0.11350 0.76151 -1.36380
v 0.08026 0.76389 -1.44402
v 0.00000 1.03728 -1.44916
v -0.06611 1.03646 -1.42179
v -0.09350 1.03450 -1.35570
v -0.06611 1.03254 -1.28962
v -0.00000 1.03173 -1.26224
v 0.06611 1.03254 -1.28962
v 0.09350 1.03450 -1.35570
v 0.06611 1.03646 -1.42179
v 0.00000 1.04930 -1.45991
v -0.07442 1.04497 -1.42939
v -0.10525 1.03450 -1.35570
v -0.07442 1.02404 -1.28202
v -0.00000 1.01970 -1.25150
v 0.07442 1.02404 -1.28202
v 0.10525 1.03450 -1.35570
v 0.07442 1.04497 -1.42939
v 0.00000 1.24724 -1.41159
v -0.06028 1.24372 -1.38687
v -0.08525 1.23525 -1.32719
v -0.06028 1.22677 -1.26751
v -0.00000 1.22326 -1.24279
v 0.06028 1.22677 -1.26751
v 0.08525 1.23525 -1.32719
v 0.06028 1.24372 -1.38687
v 0.00000 1.27497 -1.41568
v -0.06859 1.26333 -1.38976
v -0.09700 1.23525 -1.32719
v -0.06859 1.20716 -1.26461
v -0.00000 1.19553 -1.23869
v 0.06859 1.20716 -1.26461
v 0.09700 1.23525 -1.32719
v 0.06859 1.26333 -1.38976
v 0.00000 1.37045 -1.35090
v -0.05445 1.36121 -1.33033
v -0.07700 1.33892 -1.28066
v -0.05445 1.31662 -1.23098
v -0.00000 1.30739 -1.21041
v 0.05445 1.31662 -1.23098
v 0.07700 1.33892 -1.28066
v 0.05445 1.36121 -1.33033
v 0.00000 1.42722 -1.27171
v -0.06276 1.40136 -1.27433
v -0.08875 1.33892 -1.28066
v -0.06276 1.27648 -1.28698
v -0.00000 1.25062 -1.28960
v 0.06276 1.27648 -1.28698
v 0.08875 1.33892 -1.28066
v 0.06276 1.40136 -1.27433
v 0.00000 1.40111 -1.21238
v -0.04861 1.38107 -1.21441
v -0.06875 1.33271 -1.21931
v -0.04861 1.28434 -1.22421
v -0.00000 1.26431 -1.22624
v 0.04861 1.28434 -1.22421
v 0.06875 1.33271 -1.21931
v 0.04861 1.38107 -1.21441
v 0.00000 1.37546 -1.15110
v -0.05692 1.36294 -1.17108
v -0.08050 1.33271 -1.21931
v -0.05692 1.30248 -1.26754
v -0.00000 1.28995 -1.28752
v 0.05692 1.30248 -1.26754
v 0.08050 1.33271 -1.21931
v 0.05692 1.36294 -1.17108
v 0.00000 1.24951 -1.09576
v -0.04278 1.24010 -1.11077
v -0.06050 1.21738 -1.14702
v -0.04278 1.19466 -1.18327
v -0.00000 1.18524 -1.19828
v 0.04278 1.19466 -1.18327
v 0.06050 1.21738 -1.14702
v 0.04278 1.24010 -1.11077
v 0.00000 1.24276 -1.07938
v -0.05109 1.23533 -1.09919
v -0.07225 1.21738 -1.14702
v -0.05109 1.19943 -1.19485
v -0.00000 1.19199 -1.21466
v 0.05109 1.19943 -1.19485
v 0.07225 1.21738 -1.14702
v 0.05109 1.23533 -1.09919
v 0.00000 1.02554 -1.01922
v -0.03695 1.02017 -1.03355
v -0.05225 1.00718 -1.06814
v -0.03695 0.99420 -1.10273
v -0.00000 0.98883 -1.11706
v 0.03695 0.99420 -1.10273
v 0.05225 1.00718 -1.06814
v 0.03695 1.02017 -1.03355
v 0.00000 1.02499 -1.00667
v -0.04525 1.01977 -1.02467
v -0.06400 1.00718 -1.06814
v -0.04525 0.99460 -1.11161
v -0.00000 0.98938 -1.12962
v 0.04525 0.99460 -1.11161
v 0.06400 1.00718 -1.06814
v 0.04525 1.01977 -1.02467
v 0.00000 0.74035 -0.94507
v -0.03111 0.73677 -0.95745
v -0.04400 0.72812 -0.98733
v -0.03111 0.71946 -1.01722
v -0.00000 0.71588 -1.02960
v 0.03111 0.71946 -1.01722
v 0.04400 0.72812 -0.98733
v 0.03111 0.73677 -0.95745
v 0.00000 0.98000 1.58000
v 0.00000 0.98000 1.58000
v 0.00000 0.98000 1.58000
v -0.00000 0.98000 1.58000
v -0.00000 0.98000 1.58000
v -0.00000 0.98000 1.58000
v -0.00000 0.98000 1.58000
v 0.00000 0.98000 1.58000
v 0.02500 0.98536 1.58000
v 0.01768 0.98536 1.59414
v 0.00000 0.98536 1.60000
v -0.01768 0.98536 1.59414
v -0.02500 0.98536 1.58000
v -0.01768 0.98536 1.56586
v -0.00000 0.98536 1.56000
v 0.01768 0.98536 1.56586
v 0.04330 1.00000 1.58000
v 0.03062 1.00000 1.60449
v 0.00000 1.00000 1.61464
v -0.03062 1.00000 1.60449
v -0.04330 1.00000 1.58000
v -0.03062 1.00000 1.55551
v -0.00000 1.00000 1.54536
v 0.03062 1.00000 1.55551
v 0.05000 1.02000 1.58000
v 0.03536 1.02000 1.60828
v 0.00000 1.02000 1.62000
v -0.03536 1.02000 1.60828
v -0.05000 1.02000 1.58000
v -0.03536 1.02000 1.55172
v -0.00000 1.02000 1.54000
v 0.03536 1.02000 1.55172
v 0.04330 1.04000 1.58000
v 0.03062 1.04000 1.60449
v 0.00000 1.04000 1.61464
v -0.03062 1.04000 1.60449
v -0.04330 1.04000 1.58000
v -0.03062 1.04000 1.55551
v -0.00000 1.04000 1.54536
v 0.03062 1.04000 1.55551
v 0.02500 1.05464 1.58000
v 0.01768 1.05464 1.59414
v 0.00000 1.05464 1.60000
v -0.01768 1.05464 1.59414
v -0.02500 1.05464 1.58000
v -0.01768 1.05464 1.56586
v -0.00000 1.05464 1.56000
v 0.01768 1.05464 1.56586
v 0.00000 1.06000 1.58000
v 0.00000 1.06000 1.58000
v 0.00000 1.06000 1.58000
v -0.00000 1.06000 1.58000
v -0.00000 1.06000 1.58000
v -0.00000 1.06000 1.58000
v -0.00000 1.06000 1.58000
v 0.00000 1.06000 1.58000
f 1 2 20
f 1 20 19
f 2 3 21
f 2 21 20
f 3 4 22
f 3 22 21
f 4 5 23
f 4 23 22
f 5 6 24
f 5 24 23
f 6 7 25
f 6 25 24
f 7 8 26
f 7 26 25
f 8 9 27
f 8 27 26
f 9 10 28
f 9 28 27
f 10 11 29
f 10 29 28
f 11 12 30
f 11 30 29
f 12 13 31
f 12 31 30
f 13 14 32
f 13 32 31
f 14 15 33
f 14 33 32
f 15 16 34
f 15 34 33
f 16 17 35
f 16 35 34
f 17 18 36
f 17 36 35
f 18 1 19
f 18 19 36
f 19 20 38
f 19 38 37
f 20 21 39
f 20 39 38
f 21 22 40
f 21 40 39
f 22 23 41
f 22 41 40
f 23 24 42
f 23 42 41
f 24 25 43
f 24 43 42
f 25 26 44
f 25 44 43
f 26 27 45
f 26 45 44
f 27 28 46
f 27 46 45
f 28 29 47
f 28 47 46
f 29 30 48
f 29 48 47
f 30 31 49
f 30 49 48
f 31 32 50
f 31 50 49
f 32 33 51
f 32 51 50
f 33 34 52
f 33 52 51
f 34 35 53
f 34 53 52
f 35 36 54
f 35 54 53
f 36 19 37
f 36 37 54
f 37 38 56
f 37 56 55
f 38 39 57
f 38 57 56
f 39 40 58
f 39 58 57
f 40 41 59
f 40 59 58
f 41 42 60
f 41 60 59
f 42 43 61
f 42 61 60
f 43 44 62
f 43 62 61
f 44 45 63
f 44 63 62
f 45 46 64
f 45 64 63
f 46 47 65
f 46 65 64
f 47 48 66
f 47 66 65
f 48 49 67
f 48 67 66
f 49 50 68
f 49 68 67
f 50 51 69
f 50 69 68
f 51 52 70
f 51 70 69
f 52 53 71
f 52 71 70
f 53 54 72
f 53 72 71
f 54 37 55
f 54 55 72
f 55 56 74
f 55 74 73
f 56 57 75
f 56 75 74
f 57 58 76
f 57 76 75
f 58 59 77
f 58 77 76
f 59 60 78
f 59 78 77
f 60 61 79
f 60 79 78
f 61 62 80
f 61 80 79
f 62 63 81
f 62 81 80
f 63 64 82
f 63 82 81
f 64 65 83
f 64 83 82
f 65 66 84
f 65 84 83
f 66 67 85
f 66 85 84
f 67 68 86
f 67 86 85
f 68 69 87
f 68 87 86
f 69 70 88
f 69 88 87
f 70 71 89
f 70 89 88
f 71 72 90
f 71 90 89
f 72 55 73
f 72 73 90
f 73 74 92
f 73 92 91
f 74 75 93
f 74 93 92
f 75 76 94
f 75 94 93
f 76 77 95
f 76 95 94
f 77 78 96
f 77 96 95
f 78 79 97
f 78 97 96
f 79 80 98
f 79 98 97
f 80 81 99
f 80 99 98
f 81 82 100
f 81 100 99
f 82 83 101
f 82 101 100
f 83 84 102
f 83 102 101
f 84 85 103
f 84 103 102
f 85 86 104
f 85 104 103
f 86 87 105
f 86 105 104
f 87 88 106
f 87 106 105
f 88 89 107
f 88 107 106
f 89 90 108
f 89 108 107
f 90 73 91
f 90 91 108
f 91 92 110
f 91 110 109
f 92 93 111
f 92 111 110
f 93 94 112
f 93 112 111
f 94 95 113
f 94 113 112
f 95 96 114
f 95 114 113
f 96 97 115
f 96 115 114
f 97 98 116
f 97 116 115
f 98 99 117
f 98 117 116
f 99 100 118
f 99 118 117
f 100 101 119
f 100 119 118
f 101 102 120
f 101 120 119
f 102 103 121
f 102 121 120
f 103 104 122
f 103 122 121
f 104 105 123
f 104 123 122
f 105 106 124
f 105 124 123
f 106 107 125
f 106 125 124
f 107 108 126
f 107 126 125
f 108 91 109
f 108 109 126
f 109 110 128
f 109 128 127
f 110 111 129
f 110 129 128
f 111 112 130
f 111 130 129
f 112 113 131
f 112 131 130
f 113 114 132
f 113 132 131
f 114 115 133
f 114 133 132
f 115 116 134
f 115 134 133
f 116 117 135
f 116 135 134
f 117 118 136
f 117 136 135
f 118 119 137
f 118 137 136
f 119 120 138
f 119 138 137
f 120 121 139
f 120 139 138
f 121 122 140
f 121 140 139
f 122 123 141
f 122 141 140
f 123 124 142
f 123 142 141
f 124 125 143
f 124 143 142
f 125 126 144
f 125 144 143
f 126 109 127
f 126 127 144
f 127 128 146
f 127 146 145
f 128 129 147
f 128 147 146
f 129 130 148
f 129 148 147
f 130 131 149
f 130 149 148
f 131 132 150
f 131 150 149
f 132 133 151
f 132 151 150
f 133 134 152
f 133 152 151
f 134 135 153
f 134 153 152
f 135 136 154
f 135 154 153
f 136 137 155
f 136 155 154
f 137 138 156
f 137 156 155
f 138 139 157
f 138 157 156
f 139 140 158
f 139 158 157
f 140 141 159
f 140 159 158
f 141 142 160
f 141 160 159
f 142 143 161
f 142 161 160
f 143 144 162
f 143 162 161
f 144 127 145
f 144 145 162
f 145 146 164
f 145 164 163
f 146 147 165
f 146 165 164
f 147 148 166
f 147 166 165
f 148 149 167
f 148 167 166
f 149 150 168
f 149 168 167
f 150 151 169
f 150 169 168
f 151 152 170
f 151 170 169
f 152 153 171
f 152 171 170
f 153 154 172
f 153 172 171
f 154 155 173
f 154 173 172
f 155 156 174
f 155 174 173
f 156 157 175
f 156 175 174
f 157 158 176
f 157 176 175
f 158 159 177
f 158 177 176
f 159 160 178
f 159 178 177
f 160 161 179
f 160 179 178
f 161 162 180
f 161 180 179
f 162 145 163
f 162 163 180
f 163 164 182
f 163 182 181
f 164 165 183
f 164 183 182
f 165 166 184
f 165 184 183
f 166 167 185
f 166 185 184
f 167 168 186
f 167 186 185
f 168 169 187
f 168 187 186
f 169 170 188
f 169 188 187
f 170 171 189
f 170 189 188
f 171 172 190
f 171 190 189
f 172 173 191
f 172 191 190
f 173 174 192
f 173 192 191
f 174 175 193
f 174 193 192
f 175 176 194
f 175 194 193
f 176 177 195
f 176 195 194
f 177 178 196
f 177 196 195
f 178 179 197
f 178 197 196
f 179 180 198
f 179 198 197
f 180 163 181
f 180 181 198
f 181 182 200
f 181 200 199
f 182 183 201
f 182 201 200
f 183 184 202
f 183 202 201
f 184 185 203
f 184 203 202
f 185 186 204
f 185 204 203
f 186 187 205
f 186 205 204
f 187 188 206
f 187 206 205
f 188 189 207
f 188 207 206
f 189 190 208
f 189 208 207
f 190 191 209
f 190 209 208
f 191 192 210
f 191 210 209
f 192 193 211
f 192 211 210
f 193 194 212
f 193 212 211
f 194 195 213
f 194 213 212
f 195 196 214
f 195 214 213
f 196 197 215
f 196 215 214
f 197 198 216
f 197 216 215
f 198 181 199
f 198 199 216
f 199 200 218
f 199 218 217
f 200 201 219
f 200 219 218
f 201 202 220
f 201 220 219
f 202 203 221
f 202 221 220
f 203 204 222
f 203 222 221
f 204 205 223
f 204 223 222
f 205 206 224
f 205 224 223
f 206 207 225
f 206 225 224
f 207 208 226
f 207 226 225
f 208 209 227
f 208 227 226
f 209 210 228
f 209 228 227
f 210 211 229
f 210 229 228
f 211 212 230
f 211 230 229
f 212 213 231
f 212 231 230
f 213 214 232
f 213 232 231
f 214 215 233
f 214 233 232
f 215 216 234
f 215 234 233
f 216 199 217
f 216 217 234
f 217 218 236
f 217 236 235
f 218 219 237
f 218 237 236
f 219 220 238
f 219 238 237
f 220 221 239
f 220 239 238
f 221 222 240
f 221 240 239
f 222 223 241
f 222 241 240
f 223 224 242
f 223 242 241
f 224 225 243
f 224 243 242
f 225 226 244
f 225 244 243
f 226 227 245
f 226 245 244
f 227 228 246
f 227 246 245
f 228 229 247
f 228 247 246
f 229 230 248
f 229 248 247
f 230 231 249
f 230 249 248
f 231 232 250
f 231 250 249
f 232 233 251
f 232 251 250
f 233 234 252
f 233 252 251
f 234 217 235
f 234 235 252
f 235 236 254
f 235 254 253
f 236 237 255
f 236 255 254
f 237 238 256
f 237 256 255
f 238 239 257
f 238 257 256
f 239 240 258
f 239 258 257
f 240 241 259
f 240 259 258
f 241 242 260
f 241 260 259
f 242 243 261
f 242 261 260
f 243 244 262
f 243 262 261
f 244 245 263
f 244 263 262
f 245 246 264
f 245 264 263
f 246 247 265
f 246 265 264
f 247 248 266
f 247 266 265
f 248 249 267
f 248 267 266
f 249 250 268
f 249 268 267
f 250 251 269
f 250 269 268
f 251 252 270
f 251 270 269
f 252 235 253
f 252 253 270
f 271 272 288
f 271 288 287
f 272 273 289
f 272 289 288
f 273 274 290
f 273 290 289
f 274 275 291
f 274 291 290
f 275 276 292
f 275 292 291
f 276 277 293
f 276 293 292
f 277 278 294
f 277 294 293
f 278 279 295
f 278 295 294
f 279 280 296
f 279 296 295
f 280 281 297
f 280 297 296
f 281 282 298
f 281 298 297
f 282 283 299
f 282 299 298
f 283 284 300
f 283 300 299
f 284 285 301
f 284 301 300
f 285 286 302
f 285 302 301
f 286 271 287
f 286 287 302
f 287 288 304
f 287 304 303
f 288 289 305
f 288 305 304
f 289 290 306
f 289 306 305
f 290 291 307
f 290 307 306
f 291 292 308
f 291 308 307
f 292 293 309
f 292 309 308
f 293 294 310
f 293 310 309
f 294 295 311
f 294 311 310
f 295 296 312
f 295 312 311
f 296 297 313
f 296 313 312
f 297 298 314
f 297 314 313
f 298 299 315
f 298 315 314
f 299 300 316
f 299 316 315
f 300 301 317
f 300 317 316
f 301 302 318
f 301 318 317
f 302 287 303
f 302 303 318
f 303 304 320
f 303 320 319
f 304 305 321
f 304 321 320
f 305 306 322
f 305 322 321
f 306 307 323
f 306 323 322
f 307 308 324
f 307 324 323
f 308 309 325
f 308 325 324
f 309 310 326
f 309 326 325
f 310 311 327
f 310 327 326
f 311 312 328
f 311 328 327
f 312 313 329
f 312 329 328
f 313 314 330
f 313 330 329
f 314 315 331
f 314 331 330
f 315 316 332
f 315 332 331
f 316 317 333
f 316 333 332
f 317 318 334
f 317 334 333
f 318 303 319
f 318 319 334
f 319 320 336
f 319 336 335
f 320 321 337
f 320 337 336
f 321 322 338
f 321 338 337
f 322 323 339
f 322 339 338
f 323 324 340
f 323 340 339
f 324 325 341
f 324 341 340
f 325 326 342
f 325 342 341
f 326 327 343
f 326 343 342
f 327 328 344
f 327 344 343
f 328 329 345
f 328 345 344
f 329 330 346
f 329 346 345
f 330 331 347
f 330 347 346
f 331 332 348
f 331 348 347
f 332 333 349
f 332 349 348
f 333 334 350
f 333 350 349
f 334 319 335
f 334 335 350
f 335 336 352
f 335 352 351
f 336 337 353
f 336 353 352
f 337 338 354
f 337 354 353
f 338 339 355
f 338 355 354
f 339 340 356
f 339 356 355
f 340 341 357
f 340 357 356
f 341 342 358
f 341 358 357
f 342 343 359
f 342 359 358
f 343 344 360
f 343 360 359
f 344 345 361
f 344 361 360
f 345 346 362
f 345 362 361
f 346 347 363
f 346 363 362
f 347 348 364
f 347 364 363
f 348 349 365
f 348 365 364
f 349 350 366
f 349 366 365
f 350 335 351
f 350 351 366
f 351 352 368
f 351 368 367
f 352 353 369
f 352 369 368
f 353 354 370
f 353 370 369
f 354 355 371
f 354 371 370
f 355 356 372
f 355 372 371
f 356 357 373
f 356 373 372
f 357 358 374
f 357 374 373
f 358 359 375
f 358 375 374
f 359 360 376
f 359 376 375
f 360 361 377
f 360 377 376
f 361 362 378
f 361 378 377
f 362 363 379
f 362 379 378
f 363 364 380
f 363 380 379
f 364 365 381
f 364 381 380
f 365 366 382
f 365 382 381
f 366 351 367
f 366 367 382
f 367 368 384
f 367 384 383
f 368 369 385
f 368 385 384
f 369 370 386
f 369 386 385
f 370 371 387
f 370 387 386
f 371 372 388
f 371 388 387
f 372 373 389
f 372 389 388
f 373 374 390
f 373 390 389
f 374 375 391
f 374 391 390
f 375 376 392
f 375 392 391
f 376 377 393
f 376 393 392
f 377 378 394
f 377 394 393
f 378 379 395
f 378 395 394
f 379 380 396
f 379 396 395
f 380 381 397
f 380 397 396
f 381 382 398
f 381 398 397
f 382 367 383
f 382 383 398
f 383 384 400
f 383 400 399
f 384 385 401
f 384 401 400
f 385 386 402
f 385 402 401
f 386 387 403
f 386 403 402
f 387 388 404
f 387 404 403
f 388 389 405
f 388 405 404
f 389 390 406
f 389 406 405
f 390 391 407
f 390 407 406
f 391 392 408
f 391 408 407
f 392 393 409
f 392 409 408
f 393 394 410
f 393 410 409
f 394 395 411
f 394 411 410
f 395 396 412
f 395 412 411
f 396 397 413
f 396 413 412
f 397 398 414
f 397 414 413
f 398 383 399
f 398 399 414
f 399 400 416
f 399 416 415
f 400 401 417
f 400 417 416
f 401 402 418
f 401 418 417
f 402 403 419
f 402 419 418
f 403 404 420
f 403 420 419
f 404 405 421
f 404 421 420
f 405 406 422
f 405 422 421
f 406 407 423
f 406 423 422
f 407 408 424
f 407 424 423
f 408 409 425
f 408 425 424
f 409 410 426
f 409 426 425
f 410 411 427
f 410 427 426
f 411 412 428
f 411 428 427
f 412 413 429
f 412 429 428
f 413 414 430
f 413 430 429
f 414 399 415
f 414 415 430
f 415 416 432
f 415 432 431
f 416 417 433
f 416 433 432
f 417 418 434
f 417 434 433
f 418 419 435
f 418 435 434
f 419 420 436
f 419 436 435
f 420 421 437
f 420 437 436
f 421 422 438
f 421 438 437
f 422 423 439
f 422 439 438
f 423 424 440
f 423 440 439
f 424 425 441
f 424 441 440
f 425 426 442
f 425 442 441
f 426 427 443
f 426 443 442
f 427 428 444
f 427 444 443
f 428 429 445
f 428 445 444
f 429 430 446
f 429 446 445
f 430 415 431
f 430 431 446
f 431 432 448
f 431 448 447
f 432 433 449
f 432 449 448
f 433 434 450
f 433 450 449
f 434 435 451
f 434 451 450
f 435 436 452
f 435 452 451
f 436 437 453
f 436 453 452
f 437 438 454
f 437 454 453
f 438 439 455
f 438 455 454
f 439 440 456
f 439 456 455
f 440 441 457
f 440 457 456
f 441 442 458
f 441 458 457
f 442 443 459
f 442 459 458
f 443 444 460
f 443 460 459
f 444 445 461
f 444 461 460
f 445 446 462
f 445 462 461
f 446 431 447
f 446 447 462
f 447 448 464
f 447 464 463
f 448 449 465
f 448 465 464
f 449 450 466
f 449 466 465
f 450 451 467
f 450 467 466
f 451 452 468
f 451 468 467
f 452 453 469
f 452 469 468
f 453 454 470
f 453 470 469
f 454 455 471
f 454 471 470
f 455 456 472
f 455 472 471
f 456 457 473
f 456 473 472
f 457 458 474
f 457 474 473
f 458 459 475
f 458 475 474
f 459 460 476
f 459 476 475
f 460 461 477
f 460 477 476
f 461 462 478
f 461 478 477
f 462 447 463
f 462 463 478
f 479 480 498
f 479 498 497
f 480 481 499
f 480 499 498
f 481 482 500
f 481 500 499
f 482 483 501
f 482 501 500
f 483 484 502
f 483 502 501
f 484 485 503
f 484 503 502
f 485 486 504
f 485 504 503
f 486 487 505
f 486 505 504
f 487 488 506
f 487 506 505
f 488 489 507
f 488 507 506
f 489 490 508
f 489 508 507
f 490 491 509
f 490 509 508
f 491 492 510
f 491 510 509
f 492 493 511
f 492 511 510
f 493 494 512
f 493 512 511
f 494 495 513
f 494 513 512
f 495 496 514
f 495 514 513
f 496 479 497
f 496 497 514
f 497 498 516
f 497 516 515
f 498 499 517
f 498 517 516
f 499 500 518
f 499 518 517
f 500 501 519
f 500 519 518
f 501 502 520
f 501 520 519
f 502 503 521
f 502 521 520
f 503 504 522
f 503 522 521
f 504 505 523
f 504 523 522
f 505 506 524
f 505 524 523
f 506 507 525
f 506 525 524
f 507 508 526
f 507 526 525
f 508 509 527
f 508 527 526
f 509 510 528
f 509 528 527
f 510 511 529
f 510 529 528
f 511 512 530
f 511 530 529
f 512 513 531
f 512 531 530
f 513 514 532
f 513 532 531
f 514 497 515
f 514 515 532
f 515 516 534
f 515 534 533
f 516 517 535
f 516 535 534
f 517 518 536
f 517 536 535
f 518 519 537
f 518 537 536
f 519 520 538
f 519 538 537
f 520 521 539
f 520 539 538
f 521 522 540
f 521 540 539
f 522 523 541
f 522 541 540
f 523 524 542
f 523 542 541
f 524 525 543
f 524 543 542
f 525 526 544
f 525 544 543
f 526 527 545
f 526 545 544
f 527 528 546
f 527 546 545
f 528 529 547
f 528 547 546
f 529 530 548
f 529 548 547
f 530 531 549
f 530 549 548
f 531 532 550
f 531 550 549
f 532 515 533
f 532 533 550
f 533 534 552
f 533 552 551
f 534 535 553
f 534 553 552
f 535 536 554
f 535 554 553
f 536 537 555
f 536 555 554
f 537 538 556
f 537 556 555
f 538 539 557
f 538 557 556
f 539 540 558
f 539 558 557
f 540 541 559
f 540 559 558
f 541 542 560
f 541 560 559
f 542 543 561
f 542 561 560
f 543 544 562
f 543 562 561
f 544 545 563
f 544 563 562
f 545 546 564
f 545 564 563
f 546 547 565
f 546 565 564
f 547 548 566
f 547 566 565
f 548 549 567
f 548 567 566
f 549 550 568
f 549 568 567
f 550 533 551
f 550 551 568
f 551 552 570
f 551 570 569
f 552 553 571
f 552 571 570
f 553 554 572
f 553 572 571
f 554 555 573
f 554 573 572
f 555 556 574
f 555 574 573
f 556 557 575
f 556 575 574
f 557 558 576
f 557 576 575
f 558 559 577
f 558 577 576
f 559 560 578
f 559 578 577
f 560 561 579
f 560 579 578
f 561 562 580
f 561 580 579
f 562 563 581
f 562 581 580
f 563 564 582
f 563 582 581
f 564 565 583
f 564 583 582
f 565 566 584
f 565 584 583
f 566 567 585
f 566 585 584
f 567 568 586
f 567 586 585
f 568 551 569
f 568 569 586
f 569 570 588
f 569 588 587
f 570 571 589
f 570 589 588
f 571 572 590
f 571 590 589
f 572 573 591
f 572 591 590
f 573 574 592
f 573 592 591
f 574 575 593
f 574 593 592
f 575 576 594
f 575 594 593
f 576 577 595
f 576 595 594
f 577 578 596
f 577 596 595
f 578 579 597
f 578 597 596
f 579 580 598
f 579 598 597
f 580 581 599
f 580 599 598
f 581 582 600
f 581 600 599
f 582 583 601
f 582 601 600
f 583 584 602
f 583 602 601
f 584 585 603
f 584 603 602
f 585 586 604
f 585 604 603
f 586 569 587
f 586 587 604
f 587 588 606
f 587 606 605
f 588 589 607
f 588 607 606
f 589 590 608
f 589 608 607
f 590 591 609
f 590 609 608
f 591 592 610
f 591 610 609
f 592 593 611
f 592 611 610
f 593 594 612
f 593 612 611
f 594 595 613
f 594 613 612
f 595 596 614
f 595 614 613
f 596 597 615
f 596 615 614
f 597 598 616
f 597 616 615
f 598 599 617
f 598 617 616
f 599 600 618
f 599 618 617
f 600 601 619
f 600 619 618
f 601 602 620
f 601 620 619
f 602 603 621
f 602 621 620
f 603 604 622
f 603 622 621
f 604 587 605
f 604 605 622
f 605 606 624
f 605 624 623
f 606 607 625
f 606 625 624
f 607 608 626
f 607 626 625
f 608 609 627
f 608 627 626
f 609 610 628
f 609 628 627
f 610 611 629
f 610 629 628
f 611 612 630
f 611 630 629
f 612 613 631
f 612 631 630
f 613 614 632
f 613 632 631
f 614 615 633
f 614 633 632
f 615 616 634
f 615 634 633
f 616 617 635
f 616 635 634
f 617 618 636
f 617 636 635
f 618 619 637
f 618 637 636
f 619 620 638
f 619 638 637
f 620 621 639
f 620 639 638
f 621 622 640
f 621 640 639
f 622 605 623
f 622 623 640
f 623 624 642
f 623 642 641
f 624 625 643
f 624 643 642
f 625 626 644
f 625 644 643
f 626 627 645
f 626 645 644
f 627 628 646
f 627 646 645
f 628 629 647
f 628 647 646
f 629 630 648
f 629 648 647
f 630 631 649
f 630 649 648
f 631 632 650
f 631 650 649
f 632 633 651
f 632 651 650
f 633 634 652
f 633 652 651
f 634 635 653
f 634 653 652
f 635 636 654
f 635 654 653
f 636 637 655
f 636 655 654
f 637 638 656
f 637 656 655
f 638 639 657
f 638 657 656
f 639 640 658
f 639 658 657
f 640 623 641
f 640 641 658
f 641 642 660
f 641 660 659
f 642 643 661
f 642 661 660
f 643 644 662
f 643 662 661
f 644 645 663
f 644 663 662
f 645 646 664
f 645 664 663
f 646 647 665
f 646 665 664
f 647 648 666
f 647 666 665
f 648 649 667
f 648 667 666
f 649 650 668
f 649 668 667
f 650 651 669
f 650 669 668
f 651 652 670
f 651 670 669
f 652 653 671
f 652 671 670
f 653 654 672
f 653 672 671
f 654 655 673
f 654 673 672
f 655 656 674
f 655 674 673
f 656 657 675
f 656 675 674
f 657 658 676
f 657 676 675
f 658 641 659
f 658 659 676
f 659 660 678
f 659 678 677
f 660 661 679
f 660 679 678
f 661 662 680
f 661 680 679
f 662 663 681
f 662 681 680
f 663 664 682
f 663 682 681
f 664 665 683
f 664 683 682
f 665 666 684
f 665 684 683
f 666 667 685
f 666 685 684
f 667 668 686
f 667 686 685
f 668 669 687
f 668 687 686
f 669 670 688
f 669 688 687
f 670 671 689
f 670 689 688
f 671 672 690
f 671 690 689
f 672 673 691
f 672 691 690
f 673 674 692
f 673 692 691
f 674 675 693
f 674 693 692
f 675 676 694
f 675 694 693
f 676 659 677
f 676 677 694
f 677 678 696
f 677 696 695
f 678 679 697
f 678 697 696
f 679 680 698
f 679 698 697
f 680 681 699
f 680 699 698
f 681 682 700
f 681 700 699
f 682 683 701
f 682 701 700
f 683 684 702
f 683 702 701
f 684 685 703
f 684 703 702
f 685 686 704
f 685 704 703
f 686 687 705
f 686 705 704
f 687 688 706
f 687 706 705
f 688 689 707
f 688 707 706
f 689 690 708
f 689 708 707
f 690 691 709
f 690 709 708
f 691 692 710
f 691 710 709
f 692 693 711
f 692 711 710
f 693 694 712
f 693 712 711
f 694 677 695
f 694 695 712
f 695 696 714
f 695 714 713
f 696 697 715
f 696 715 714
f 697 698 716
f 697 716 715
f 698 699 717
f 698 717 716
f 699 700 718
f 699 718 717
f 700 701 719
f 700 719 718
f 701 702 720
f 701 720 719
f 702 703 721
f 702 721 720
f 703 704 722
f 703 722 721
f 704 705 723
f 704 723 722
f 705 706 724
f 705 724 723
f 706 707 725
f 706 725 724
f 707 708 726
f 707 726 725
f 708 709 727
f 708 727 726
f 709 710 728
f 709 728 727
f 710 711 729
f 710 729 728
f 711 712 730
f 711 730 729
f 712 695 713
f 712 713 730
f 713 714 732
f 713 732 731
f 714 715 733
f 714 733 732
f 715 716 734
f 715 734 733
f 716 717 735
f 716 735 734
f 717 718 736
f 717 736 735
f 718 719 737
f 718 737 736
f 719 720 738
f 719 738 737
f 720 721 739
f 720 739 738
f 721 722 740
f 721 740 739
f 722 723 741
f 722 741 740
f 723 724 742
f 723 742 741
f 724 725 743
f 724 743 742
f 725 726 744
f 725 744 743
f 726 727 745
f 726 745 744
f 727 728 746
f 727 746 745
f 728 729 747
f 728 747 746
f 729 730 748
f 729 748 747
f 730 713 731
f 730 731 748
f 749 750 762
f 749 762 761
f 750 751 763
f 750 763 762
f 751 752 764
f 751 764 763
f 752 753 765
f 752 765 764
f 753 754 766
f 753 766 765
f 754 755 767
f 754 767 766
f 755 756 768
f 755 768 767
f 756 757 769
f 756 769 768
f 757 758 770
f 757 770 769
f 758 759 771
f 758 771 770
f 759 760 772
f 759 772 771
f 760 749 761
f 760 761 772
f 761 762 774
f 761 774 773
f 762 763 775
f 762 775 774
f 763 764 776
f 763 776 775
f 764 765 777
f 764 777 776
f 765 766 778
f 765 778 777
f 766 767 779
f 766 779 778
f 767 768 780
f 767 780 779
f 768 769 781
f 768 781 780
f 769 770 782
f 769 782 781
f 770 771 783
f 770 783 782
f 771 772 784
f 771 784 783
f 772 761 773
f 772 773 784
f 773 774 786
f 773 786 785
f 774 775 787
f 774 787 786
f 775 776 788
f 775 788 787
f 776 777 789
f 776 789 788
f 777 778 790
f 777 790 789
f 778 779 791
f 778 791 790
f 779 780 792
f 779 792 791
f 780 781 793
f 780 793 792
f 781 782 794
f 781 794 793
f 782 783 795
f 782 795 794
f 783 784 796
f 783 796 795
f 784 773 785
f 784 785 796
f 785 786 798
f 785 798 797
f 786 787 799
f 786 799 798
f 787 788 800
f 787 800 799
f 788 789 801
f 788 801 800
f 789 790 802
f 789 802 801
f 790 791 803
f 790 803 802
f 791 792 804
f 791 804 803
f 792 793 805
f 792 805 804
f 793 794 806
f 793 806 805
f 794 795 807
f 794 807 806
f 795 796 808
f 795 808 807
f 796 785 797
f 796 797 808
f 797 798 810
f 797 810 809
f 798 799 811
f 798 811 810
f 799 800 812
f 799 812 811
f 800 801 813
f 800 813 812
f 801 802 814
f 801 814 813
f 802 803 815
f 802 815 814
f 803 804 816
f 803 816 815
f 804 805 817
f 804 817 816
f 805 806 818
f 805 818 817
f 806 807 819
f 806 819 818
f 807 808 820
f 807 820 819
f 808 797 809
f 808 809 820
f 809 810 822
f 809 822 821
f 810 811 823
f 810 823 822
f 811 812 824
f 811 824 823
f 812 813 825
f 812 825 824
f 813 814 826
f 813 826 825
f 814 815 827
f 814 827 826
f 815 816 828
f 815 828 827
f 816 817 829
f 816 829 828
f 817 818 830
f 817 830 829
f 818 819 831
f 818 831 830
f 819 820 832
f 819 832 831
f 820 809 821
f 820 821 832
f 821 822 834
f 821 834 833
f 822 823 835
f 822 835 834
f 823 824 836
f 823 836 835
f 824 825 837
f 824 837 836
f 825 826 838
f 825 838 837
f 826 827 839
f 826 839 838
f 827 828 840
f 827 840 839
f 828 829 841
f 828 841 840
f 829 830 842
f 829 842 841
f 830 831 843
f 830 843 842
f 831 832 844
f 831 844 843
f 832 821 833
f 832 833 844
f 833 834 846
f 833 846 845
f 834 835 847
f 834 847 846
f 835 836 848
f 835 848 847
f 836 837 849
f 836 849 848
f 837 838 850
f 837 850 849
f 838 839 851
f 838 851 850
f 839 840 852
f 839 852 851
f 840 841 853
f 840 853 852
f 841 842 854
f 841 854 853
f 842 843 855
f 842 855 854
f 843 844 856
f 843 856 855
f 844 833 845
f 844 845 856
f 845 846 858
f 845 858 857
f 846 847 859
f 846 859 858
f 847 848 860
f 847 860 859
f 848 849 861
f 848 861 860
f 849 850 862
f 849 862 861
f 850 851 863
f 850 863 862
f 851 852 864
f 851 864 863
f 852 853 865
f 852 865 864
f 853 854 866
f 853 866 865
f 854 855 867
f 854 867 866
f 855 856 868
f 855 868 867
f 856 845 857
f 856 857 868
f 857 858 870
f 857 870 869
f 858 859 871
f 858 871 870
f 859 860 872
f 859 872 871
f 860 861 873
f 860 873 872
f 861 862 874
f 861 874 873
f 862 863 875
f 862 875 874
f 863 864 876
f 863 876 875
f 864 865 877
f 864 877 876
f 865 866 878
f 865 878 877
f 866 867 879
f 866 879 878
f 867 868 880
f 867 880 879
f 868 857 869
f 868 869 880
f 881 882 890
f 881 890 889
f 882 883 891
f 882 891 890
f 883 884 892
f 883 892 891
f 884 885 893
f 884 893 892
f 885 886 894
f 885 894 893
f 886 887 895
f 886 895 894
f 887 888 896
f 887 896 895
f 888 881 889
f 888 889 896
f 897 898 906
f 897 906 905
f 898 899 907
f 898 907 906
f 899 900 908
f 899 908 907
f 900 901 909
f 900 909 908
f 901 902 910
f 901 910 909
f 902 903 911
f 902 911 910
f 903 904 912
f 903 912 911
f 904 897 905
f 904 905 912
f 913 914 924
f 913 924 923
f 914 915 925
f 914 925 924
f 915 916 926
f 915 926 925
f 916 917 927
f 916 927 926
f 917 918 928
f 917 928 927
f 918 919 929
f 918 929 928
f 919 920 930
f 919 930 929
f 920 921 931
f 920 931 930
f 921 922 932
f 921 932 931
f 922 913 923
f 922 923 932
f 933 934 944
f 933 944 943
f 934 935 945
f 934 945 944
f 935 936 946
f 935 946 945
f 936 937 947
f 936 947 946
f 937 938 948
f 937 948 947
f 938 939 949
f 938 949 948
f 939 940 950
f 939 950 949
f 940 941 951
f 940 951 950
f 941 942 952
f 941 952 951
f 942 933 943
f 942 943 952
f 953 954 964
f 953 964 963
f 954 955 965
f 954 965 964
f 955 956 966
f 955 966 965
f 956 957 967
f 956 967 966
f 957 958 968
f 957 968 967
f 958 959 969
f 958 969 968
f 959 960 970
f 959 970 969
f 960 961 971
f 960 971 970
f 961 962 972
f 961 972 971
f 962 953 963
f 962 963 972
f 973 974 984
f 973 984 983
f 974 975 985
f 974 985 984
f 975 976 986
f 975 986 985
f 976 977 987
f 976 987 986
f 977 978 988
f 977 988 987
f 978 979 989
f 978 989 988
f 979 980 990
f 979 990 989
f 980 981 991
f 980 991 990
f 981 982 992
f 981 992 991
f 982 973 983
f 982 983 992
f 993 994 1004
f 993 1004 1003
f 994 995 1005
f 994 1005 1004
f 995 996 1006
f 995 1006 1005
f 996 997 1007
f 996 1007 1006
f 997 998 1008
f 997 1008 1007
f 998 999 1009
f 998 1009 1008
f 999 1000 1010
f 999 1010 1009
f 1000 1001 1011
f 1000 1011 1010
f 1001 1002 1012
f 1001 1012 1011
f 1002 993 1003
f 1002 1003 1012
f 1003 1004 1014
f 1003 1014 1013
f 1004 1005 1015
f 1004 1015 1014
f 1005 1006 1016
f 1005 1016 1015
f 1006 1007 1017
f 1006 1017 1016
f 1007 1008 1018
f 1007 1018 1017
f 1008 1009 1019
f 1008 1019 1018
f 1009 1010 1020
f 1009 1020 1019
f 1010 1011 1021
f 1010 1021 1020
f 1011 1012 1022
f 1011 1022 1021
f 1012 1003 1013
f 1012 1013 1022
f 1013 1014 1024
f 1013 1024 1023
f 1014 1015 1025
f 1014 1025 1024
f 1015 1016 1026
f 1015 1026 1025
f 1016 1017 1027
f 1016 1027 1026
f 1017 1018 1028
f 1017 1028 1027
f 1018 1019 1029
f 1018 1029 1028
f 1019 1020 1030
f 1019 1030 1029
f 1020 1021 1031
f 1020 1031 1030
f 1021 1022 1032
f 1021 1032 1031
f 1022 1013 1023
f 1022 1023 1032
f 1023 1024 1034
f 1023 1034 1033
f 1024 1025 1035
f 1024 1035 1034
f 1025 1026 1036
f 1025 1036 1035
f 1026 1027 1037
f 1026 1037 1036
f 1027 1028 1038
f 1027 1038 1037
f 1028 1029 1039
f 1028 1039 1038
f 1029 1030 1040
f 1029 1040 1039
f 1030 1031 1041
f 1030 1041 1040
f 1031 1032 1042
f 1031 1042 1041
f 1032 1023 1033
f 1032 1033 1042
f 1033 1034 1044
f 1033 1044 1043
f 1034 1035 1045
f 1034 1045 1044
f 1035 1036 1046
f 1035 1046 1045
f 1036 1037 1047
f 1036 1047 1046
f 1037 1038 1048
f 1037 1048 1047
f 1038 1039 1049
f 1038 1049 1048
f 1039 1040 1050
f 1039 1050 1049
f 1040 1041 1051
f 1040 1051 1050
f 1041 1042 1052
f 1041 1052 1051
f 1042 1033 1043
f 1042 1043 1052
f 1043 1044 1054
f 1043 1054 1053
f 1044 1045 1055
f 1044 1055 1054
f 1045 1046 1056
f 1045 1056 1055
f 1046 1047 1057
f 1046 1057 1056
f 1047 1048 1058
f 1047 1058 1057
f 1048 1049 1059
f 1048 1059 1058
f 1049 1050 1060
f 1049 1060 1059
f 1050 1051 1061
f 1050 1061 1060
f 1051 1052 1062
f 1051 1062 1061
f 1052 1043 1053
f 1052 1053 1062
f 1053 1054 1064
f 1053 1064 1063
f 1054 1055 1065
f 1054 1065 1064
f 1055 1056 1066
f 1055 1066 1065
f 1056 1057 1067
f 1056 1067 1066
f 1057 1058 1068
f 1057 1068 1067
f 1058 1059 1069
f 1058 1069 1068
f 1059 1060 1070
f 1059 1070 1069
f 1060 1061 1071
f 1060 1071 1070
f 1061 1062 1072
f 1061 1072 1071
f 1062 1053 1063
f 1062 1063 1072
f 1063 1064 1074
f 1063 1074 1073
f 1064 1065 1075
f 1064 1075 1074
f 1065 1066 1076
f 1065 1076 1075
f 1066 1067 1077
f 1066 1077 1076
f 1067 1068 1078
f 1067 1078 1077
f 1068 1069 1079
f 1068 1079 1078
f 1069 1070 1080
f 1069 1080 1079
f 1070 1071 1081
f 1070 1081 1080
f 1071 1072 1082
f 1071 1082 1081
f 1072 1063 1073
f 1072 1073 1082
f 1083 1084 1094
f 1083 1094 1093
f 1084 1085 1095
f 1084 1095 1094
f 1085 1086 1096
f 1085 1096 1095
f 1086 1087 1097
f 1086 1097 1096
f 1087 1088 1098
f 1087 1098 1097
f 1088 1089 1099
f 1088 1099 1098
f 1089 1090 1100
f 1089 1100 1099
f 1090 1091 1101
f 1090 1101 1100
f 1091 1092 1102
f 1091 1102 1101
f 1092 1083 1093
f 1092 1093 1102
f 1093 1094 1104
f 1093 1104 1103
f 1094 1095 1105
f 1094 1105 1104
f 1095 1096 1106
f 1095 1106 1105
f 1096 1097 1107
f 1096 1107 1106
f 1097 1098 1108
f 1097 1108 1107
f 1098 1099 1109
f 1098 1109 1108
f 1099 1100 1110
f 1099 1110 1109
f 1100 1101 1111
f 1100 1111 1110
f 1101 1102 1112
f 1101 1112 1111
f 1102 1093 1103
f 1102 1103 1112
f 1103 1104 1114
f 1103 1114 1113
f 1104 1105 1115
f 1104 1115 1114
f 1105 1106 1116
f 1105 1116 1115
f 1106 1107 1117
f 1106 1117 1116
f 1107 1108 1118
f 1107 1118 1117
f 1108 1109 1119
f 1108 1119 1118
f 1109 1110 1120
f 1109 1120 1119
f 1110 1111 1121
f 1110 1121 1120
f 1111 1112 1122
f 1111 1122 1121
f 1112 1103 1113
f 1112 1113 1122
f 1113 1114 1124
f 1113 1124 1123
f 1114 1115 1125
f 1114 1125 1124
f 1115 1116 1126
f 1115 1126 1125
f 1116 1117 1127
f 1116 1127 1126
f 1117 1118 1128
f 1117 1128 1127
f 1118 1119 1129
f 1118 1129 1128
f 1119 1120 1130
f 1119 1130 1129
f 1120 1121 1131
f 1120 1131 1130
f 1121 1122 1132
f 1121 1132 1131
f 1122 1113 1123
f 1122 1123 1132
f 1123 1124 1134
f 1123 1134 1133
f 1124 1125 1135
f 1124 1135 1134
f 1125 1126 1136
f 1125 1136 1135
f 1126 1127 1137
f 1126 1137 1136
f 1127 1128 1138
f 1127 1138 1137
f 1128 1129 1139
f 1128 1139 1138
f 1129 1130 1140
f 1129 1140 1139
f 1130 1131 1141
f 1130 1141 1140
f 1131 1132 1142
f 1131 1142 1141
f 1132 1123 1133
f 1132 1133 1142
f 1133 1134 1144
f 1133 1144 1143
f 1134 1135 1145
f 1134 1145 1144
f 1135 1136 1146
f 1135 1146 1145
f 1136 1137 1147
f 1136 1147 1146
f 1137 1138 1148
f 1137 1148 1147
f 1138 1139 1149
f 1138 1149 1148
f 1139 1140 1150
f 1139 1150 1149
f 1140 1141 1151
f 1140 1151 1150
f 1141 1142 1152
f 1141 1152 1151
f 1142 1133 1143
f 1142 1143 1152
f 1143 1144 1154
f 1143 1154 1153
f 1144 1145 1155
f 1144 1155 1154
f 1145 1146 1156
f 1145 1156 1155
f 1146 1147 1157
f 1146 1157 1156
f 1147 1148 1158
f 1147 1158 1157
f 1148 1149 1159
f 1148 1159 1158
f 1149 1150 1160
f 1149 1160 1159
f 1150 1151 1161
f 1150 1161 1160
f 1151 1152 1162
f 1151 1162 1161
f 1152 1143 1153
f 1152 1153 1162
f 1153 1154 1164
f 1153 1164 1163
f 1154 1155 1165
f 1154 1165 1164
f 1155 1156 1166
f 1155 1166 1165
f 1156 1157 1167
f 1156 1167 1166
f 1157 1158 1168
f 1157 1168 1167
f 1158 1159 1169
f 1158 1169 1168
f 1159 1160 1170
f 1159 1170 1169
f 1160 1161 1171
f 1160 1171 1170
f 1161 1162 1172
f 1161 1172 1171
f 1162 1153 1163
f 1162 1163 1172
f 1173 1174 1184
f 1173 1184 1183
f 1174 1175 1185
f 1174 1185 1184
f 1175 1176 1186
f 1175 1186 1185
f 1176 1177 1187
f 1176 1187 1186
f 1177 1178 1188
f 1177 1188 1187
f 1178 1179 1189
f 1178 1189 1188
f 1179 1180 1190
f 1179 1190 1189
f 1180 1181 1191
f 1180 1191 1190
f 1181 1182 1192
f 1181 1192 1191
f 1182 1173 1183
f 1182 1183 1192
f 1183 1184 1194
f 1183 1194 1193
f 1184 1185 1195
f 1184 1195 1194
f 1185 1186 1196
f 1185 1196 1195
f 1186 1187 1197
f 1186 1197 1196
f 1187 1188 1198
f 1187 1198 1197
f 1188 1189 1199
f 1188 1199 1198
f 1189 1190 1200
f 1189 1200 1199
f 1190 1191 1201
f 1190 1201 1200
f 1191 1192 1202
f 1191 1202 1201
f 1192 1183 1193
f 1192 1193 1202
f 1193 1194 1204
f 1193 1204 1203
f 1194 1195 1205
f 1194 1205 1204
f 1195 1196 1206
f 1195 1206 1205
f 1196 1197 1207
f 1196 1207 1206
f 1197 1198 1208
f 1197 1208 1207
f 1198 1199 1209
f 1198 1209 1208
f 1199 1200 1210
f 1199 1210 1209
f 1200 1201 1211
f 1200 1211 1210
f 1201 1202 1212
f 1201 1212 1211
f 1202 1193 1203
f 1202 1203 1212
f 1203 1204 1214
f 1203 1214 1213
f 1204 1205 1215
f 1204 1215 1214
f 1205 1206 1216
f 1205 1216 1215
f 1206 1207 1217
f 1206 1217 1216
f 1207 1208 1218
f 1207 1218 1217
f 1208 1209 1219
f 1208 1219 1218
f 1209 1210 1220
f 1209 1220 1219
f 1210 1211 1221
f 1210 1221 1220
f 1211 1212 1222
f 1211 1222 1221
f 1212 1203 1213
f 1212 1213 1222
f 1213 1214 1224
f 1213 1224 1223
f 1214 1215 1225
f 1214 1225 1224
f 1215 1216 1226
f 1215 1226 1225
f 1216 1217 1227
f 1216 1227 1226
f 1217 1218 1228
f 1217 1228 1227
f 1218 1219 1229
f 1218 1229 1228
f 1219 1220 1230
f 1219 1230 1229
f 1220 1221 1231
f 1220 1231 1230
f 1221 1222 1232
f 1221 1232 1231
f 1222 1213 1223
f 1222 1223 1232
f 1223 1224 1234
f 1223 1234 1233
f 1224 1225 1235
f 1224 1235 1234
f 1225 1226 1236
f 1225 1236 1235
f 1226 1227 1237
f 1226 1237 1236
f 1227 1228 1238
f 1227 1238 1237
f 1228 1229 1239
f 1228 1239 1238
f 1229 1230 1240
f 1229 1240 1239
f 1230 1231 1241
f 1230 1241 1240
f 1231 1232 1242
f 1231 1242 1241
f 1232 1223 1233
f 1232 1233 1242
f 1233 1234 1244
f 1233 1244 1243
f 1234 1235 1245
f 1234 1245 1244
f 1235 1236 1246
f 1235 1246 1245
f 1236 1237 1247
f 1236 1247 1246
f 1237 1238 1248
f 1237 1248 1247
f 1238 1239 1249
f 1238 1249 1248
f 1239 1240 1250
f 1239 1250 1249
f 1240 1241 1251
f 1240 1251 1250
f 1241 1242 1252
f 1241 1252 1251
f 1242 1233 1243
f 1242 1243 1252
f 1243 1244 1254
f 1243 1254 1253
f 1244 1245 1255
f 1244 1255 1254
f 1245 1246 1256
f 1245 1256 1255
f 1246 1247 1257
f 1246 1257 1256
f 1247 1248 1258
f 1247 1258 1257
f 1248 1249 1259
f 1248 1259 1258
f 1249 1250 1260
f 1249 1260 1259
f 1250 1251 1261
f 1250 1261 1260
f 1251 1252 1262
f 1251 1262 1261
f 1252 1243 1253
f 1252 1253 1262
f 1263 1264 1274
f 1263 1274 1273
f 1264 1265 1275
f 1264 1275 1274
f 1265 1266 1276
f 1265 1276 1275
f 1266 1267 1277
f 1266 1277 1276
f 1267 1268 1278
f 1267 1278 1277
f 1268 1269 1279
f 1268 1279 1278
f 1269 1270 1280
f 1269 1280 1279
f 1270 1271 1281
f 1270 1281 1280
f 1271 1272 1282
f 1271 1282 1281
f 1272 1263 1273
f 1272 1273 1282
f 1273 1274 1284
f 1273 1284 1283
f 1274 1275 1285
f 1274 1285 1284
f 1275 1276 1286
f 1275 1286 1285
f 1276 1277 1287
f 1276 1287 1286
f 1277 1278 1288
f 1277 1288 1287
f 1278 1279 1289
f 1278 1289 1288
f 1279 1280 1290
f 1279 1290 1289
f 1280 1281 1291
f 1280 1291 1290
f 1281 1282 1292
f 1281 1292 1291
f 1282 1273 1283
f 1282 1283 1292
f 1283 1284 1294
f 1283 1294 1293
f 1284 1285 1295
f 1284 1295 1294
f 1285 1286 1296
f 1285 1296 1295
f 1286 1287 1297
f 1286 1297 1296
f 1287 1288 1298
f 1287 1298 1297
f 1288 1289 1299
f 1288 1299 1298
f 1289 1290 1300
f 1289 1300 1299
f 1290 1291 1301
f 1290 1301 1300
f 1291 1292 1302
f 1291 1302 1301
f 1292 1283 1293
f 1292 1293 1302
f 1293 1294 1304
f 1293 1304 1303
f 1294 1295 1305
f 1294 1305 1304
f 1295 1296 1306
f 1295 1306 1305
f 1296 1297 1307
f 1296 1307 1306
f 1297 1298 1308
f 1297 1308 1307
f 1298 1299 1309
f 1298 1309 1308
f 1299 1300 1310
f 1299 1310 1309
f 1300 1301 1311
f 1300 1311 1310
f 1301 1302 1312
f 1301 1312 1311
f 1302 1293 1303
f 1302 1303 1312
f 1303 1304 1314
f 1303 1314 1313
f 1304 1305 1315
f 1304 1315 1314
f 1305 1306 1316
f 1305 1316 1315
f 1306 1307 1317
f 1306 1317 1316
f 1307 1308 1318
f 1307 1318 1317
f 1308 1309 1319
f 1308 1319 1318
f 1309 1310 1320
f 1309 1320 1319
f 1310 1311 1321
f 1310 1321 1320
f 1311 1312 1322
f 1311 1322 1321
f 1312 1303 1313
f 1312 1313 1322
f 1313 1314 1324
f 1313 1324 1323
f 1314 1315 1325
f 1314 1325 1324
f 1315 1316 1326
f 1315 1326 1325
f 1316 1317 1327
f 1316 1327 1326
f 1317 1318 1328
f 1317 1328 1327
f 1318 1319 1329
f 1318 1329 1328
f 1319 1320 1330
f 1319 1330 1329
f 1320 1321 1331
f 1320 1331 1330
f 1321 1322 1332
f 1321 1332 1331
f 1322 1313 1323
f 1322 1323 1332
f 1323 1324 1334
f 1323 1334 1333
f 1324 1325 1335
f 1324 1335 1334
f 1325 1326 1336
f 1325 1336 1335
f 1326 1327 1337
f 1326 1337 1336
f 1327 1328 1338
f 1327 1338 1337
f 1328 1329 1339
f 1328 1339 1338
f 1329 1330 1340
f 1329 1340 1339
f 1330 1331 1341
f 1330 1341 1340
f 1331 1332 1342
f 1331 1342 1341
f 1332 1323 1333
f 1332 1333 1342
f 1333 1334 1344
f 1333 1344 1343
f 1334 1335 1345
f 1334 1345 1344
f 1335 1336 1346
f 1335 1346 1345
f 1336 1337 1347
f 1336 1347 1346
f 1337 1338 1348
f 1337 1348 1347
f 1338 1339 1349
f 1338 1349 1348
f 1339 1340 1350
f 1339 1350 1349
f 1340 1341 1351
f 1340 1351 1350
f 1341 1342 1352
f 1341 1352 1351
f 1342 1333 1343
f 1342 1343 1352
f 1353 1354 1362
f 1353 1362 1361
f 1354 1355 1363
f 1354 1363 1362
f 1355 1356 1364
f 1355 1364 1363
f 1356 1357 1365
f 1356 1365 1364
f 1357 1358 1366
f 1357 1366 1365
f 1358 1359 1367
f 1358 1367 1366
f 1359 1360 1368
f 1359 1368 1367
f 1360 1353 1361
f 1360 1361 1368
f 1369 1370 1378
f 1369 1378 1377
f 1370 1371 1379
f 1370 1379 1378
f 1371 1372 1380
f 1371 1380 1379
f 1372 1373 1381
f 1372 1381 1380
f 1373 1374 1382
f 1373 1382 1381
f 1374 1375 1383
f 1374 1383 1382
f 1375 1376 1384
f 1375 1384 1383
f 1376 1369 1377
f 1376 1377 1384
f 1385 1386 1394
f 1385 1394 1393
f 1386 1387 1395
f 1386 1395 1394
f 1387 1388 1396
f 1387 1396 1395
f 1388 1389 1397
f 1388 1397 1396
f 1389 1390 1398
f 1389 1398 1397
f 1390 1391 1399
f 1390 1399 1398
f 1391 1392 1400
f 1391 1400 1399
f 1392 1385 1393
f 1392 1393 1400
f 1401 1402 1410
f 1401 1410 1409
f 1402 1403 1411
f 1402 1411 1410
f 1403 1404 1412
f 1403 1412 1411
f 1404 1405 1413
f 1404 1413 1412
f 1405 1406 1414
f 1405 1414 1413
f 1406 1407 1415
f 1406 1415 1414
f 1407 1408 1416
f 1407 1416 1415
f 1408 1401 1409
f 1408 1409 1416
f 1417 1418 1426
f 1417 1426 1425
f 1418 1419 1427
f 1418 1427 1426
f 1419 1420 1428
f 1419 1428 1427
f 1420 1421 1429
f 1420 1429 1428
f 1421 1422 1430
f 1421 1430 1429
f 1422 1423 1431
f 1422 1431 1430
f 1423 1424 1432
f 1423 1432 1431
f 1424 1417 1425
f 1424 1425 1432
f 1433 1434 1442
f 1433 1442 1441
f 1434 1435 1443
f 1434 1443 1442
f 1435 1436 1444
f 1435 1444 1443
f 1436 1437 1445
f 1436 1445 1444
f 1437 1438 1446
f 1437 1446 1445
f 1438 1439 1447
f 1438 1447 1446
f 1439 1440 1448
f 1439 1448 1447
f 1440 1433 1441
f 1440 1441 1448
f 1449 1450 1458
f 1449 1458 1457
f 1450 1451 1459
f 1450 1459 1458
f 1451 1452 1460
f 1451 1460 1459
f 1452 1453 1461
f 1452 1461 1460
f 1453 1454 1462
f 1453 1462 1461
f 1454 1455 1463
f 1454 1463 1462
f 1455 1456 1464
f 1455 1464 1463
f 1456 1449 1457
f 1456 1457 1464
f 1465 1466 1474
f 1465 1474 1473
f 1466 1467 1475
f 1466 1475 1474
f 1467 1468 1476
f 1467 1476 1475
f 1468 1469 1477
f 1468 1477 1476
f 1469 1470 1478
f 1469 1478 1477
f 1470 1471 1479
f 1470 1479 1478
f 1471 1472 1480
f 1471 1480 1479
f 1472 1465 1473
f 1472 1473 1480
f 1481 1482 1490
f 1481 1490 1489
f 1482 1483 1491
f 1482 1491 1490
f 1483 1484 1492
f 1483 1492 1491
f 1484 1485 1493
f 1484 1493 1492
f 1485 1486 1494
f 1485 1494 1493
f 1486 1487 1495
f 1486 1495 1494
f 1487 1488 1496
f 1487 1496 1495
f 1488 1481 1489
f 1488 1489 1496
f 1489 1490 1498
f 1489 1498 1497
f 1490 1491 1499
f 1490 1499 1498
f 1491 1492 1500
f 1491 1500 1499
f 1492 1493 1501
f 1492 1501 1500
f 1493 1494 1502
f 1493 1502 1501
f 1494 1495 1503
f 1494 1503 1502
f 1495 1496 1504
f 1495 1504 1503
f 1496 1489 1497
f 1496 1497 1504
f 1497 1498 1506
f 1497 1506 1505
f 1498 1499 1507
f 1498 1507 1506
f 1499 1500 1508
f 1499 1508 1507
f 1500 1501 1509
f 1500 1509 1508
f 1501 1502 1510
f 1501 1510 1509
f 1502 1503 1511
f 1502 1511 1510
f 1503 1504 1512
f 1503 1512 1511
f 1504 1497 1505
f 1504 1505 1512
f 1505 1506 1514
f 1505 1514 1513
f 1506 1507 1515
f 1506 1515 1514
f 1507 1508 1516
f 1507 1516 1515
f 1508 1509 1517
f 1508 1517 1516
f 1509 1510 1518
f 1509 1518 1517
f 1510 1511 1519
f 1510 1519 1518
f 1511 1512 1520
f 1511 1520 1519
f 1512 1505 1513
f 1512 1513 1520
f 1513 1514 1522
f 1513 1522 1521
f 1514 1515 1523
f 1514 1523 1522
f 1515 1516 1524
f 1515 1524 1523
f 1516 1517 1525
f 1516 1525 1524
f 1517 1518 1526
f 1517 1526 1525
f 1518 1519 1527
f 1518 1527 1526
f 1519 1520 1528
f 1519 1528 1527
f 1520 1513 1521
f 1520 1521 1528
f 1521 1522 1530
f 1521 1530 1529
f 1522 1523 1531
f 1522 1531 1530
f 1523 1524 1532
f 1523 1532 1531
f 1524 1525 1533
f 1524 1533 1532
f 1525 1526 1534
f 1525 1534 1533
f 1526 1527 1535
f 1526 1535 1534
f 1527 1528 1536
f 1527 1536 1535
f 1528 1521 1529
f 1528 1529 1536
