# Penguin Model
# Created for Three.js rendering

# Body vertices
v 0 0 0
v 0.5 0.3 0.3
v 0.5 0.3 -0.3
v -0.5 0.3 -0.3
v -0.5 0.3 0.3
v 0.4 1.5 0.25
v 0.4 1.5 -0.25
v -0.4 1.5 -0.25
v -0.4 1.5 0.25
v 0.3 2.2 0.2
v 0.3 2.2 -0.2
v -0.3 2.2 -0.2
v -0.3 2.2 0.2

# Head vertices
v 0 2.5 0
v 0.35 2.5 0
v 0.25 2.5 0.25
v -0.25 2.5 0.25
v -0.35 2.5 0
v -0.25 2.5 -0.25
v 0.25 2.5 -0.25
v 0.3 2.9 0
v 0.2 2.9 0.2
v -0.2 2.9 0.2
v -0.3 2.9 0
v -0.2 2.9 -0.2
v 0.2 2.9 -0.2

# Eyes
v 0.15 2.7 0.18
v -0.15 2.7 0.18

# Beak
v 0 2.6 0.3
v 0.1 2.55 0.35
v -0.1 2.55 0.35

# Wings (left)
v -0.5 1.8 0
v -0.8 1.5 0.1
v -0.8 0.8 0.1
v -0.5 0.6 0

# Wings (right)
v 0.5 1.8 0
v 0.8 1.5 0.1
v 0.8 0.8 0.1
v 0.5 0.6 0

# Feet (left)
v -0.2 0 0.3
v -0.3 0 0.5
v -0.1 0 0.5

# Feet (right)
v 0.2 0 0.3
v 0.3 0 0.5
v 0.1 0 0.5

# Body faces
f 1 2 6
f 1 6 5
f 2 3 7
f 2 7 6
f 3 4 8
f 3 8 7
f 4 5 9
f 4 9 8
f 5 6 10
f 5 10 9
f 6 7 11
f 6 11 10
f 7 8 12
f 7 12 11
f 8 9 13
f 8 13 12
f 9 10 13
f 10 11 13
f 11 12 13

# Head faces
f 14 15 21
f 14 21 20
f 15 16 22
f 15 22 21
f 16 17 23
f 16 23 22
f 17 18 24
f 17 24 23
f 18 19 25
f 18 25 24
f 19 20 26
f 19 26 25
f 20 21 26
f 21 22 26
f 22 23 26
f 23 24 26
f 24 25 26

# Connect head to body
f 10 11 15
f 10 15 14
f 11 12 19
f 11 19 15
f 12 13 18
f 12 18 19
f 13 10 14
f 13 14 18

# Beak
f 29 30 31

# Left wing
f 35 36 37
f 35 37 38

# Right wing
f 39 40 41
f 39 41 42

# Left foot
f 43 44 45

# Right foot
f 46 47 48